<svg height="512" viewBox="0 0 512 512" width="512" xmlns="http://www.w3.org/2000/svg"><g id="Flat"><path d="m360 256h128v-72a16 16 0 0 0 -16-16h-82.647a16 16 0 0 0 -15.742 13.138z" fill="#556a8a"/><path d="m344 120h80v104h-80z" fill="#7eb457"/><path d="m424 130.59v93.41h-80v-25.73a329.417 329.417 0 0 0 80-67.68z" fill="#79ad54"/><path d="m344 120a0 0 0 0 1 0 0v104a0 0 0 0 1 0 0h-32a0 0 0 0 1 0 0v-72a32 32 0 0 1 32-32z" fill="#fec093"/><path d="m168 256h-128v-72a16 16 0 0 1 16-16h82.647a16 16 0 0 1 15.742 13.138z" fill="#556a8a"/><path d="m192 24v56a40 40 0 0 1 -40 40 40.521 40.521 0 0 1 -8.15-.83 40.022 40.022 0 0 1 -31.85-39.17v-24a32 32 0 0 1 32-32z" fill="#fec9a3"/><path d="m192 24v56a40 40 0 0 1 -40 40 40.521 40.521 0 0 1 -8.15-.83 47.924 47.924 0 0 0 20.26-39.17v-21.33a47.848 47.848 0 0 0 -14.06-33.94c-.25-.25-.5-.49-.75-.73z" fill="#fec093"/><path d="m280 144-17.16 57.2a32 32 0 0 1 -30.65 22.8h-152.19v-72a32 32 0 0 1 32-32h80a31.959 31.959 0 0 1 32 32v40l16-48z" fill="#f35244"/><path d="m280 144-17.16 57.2a32 32 0 0 1 -30.65 22.8h-152.19v-17.97c45.27-18.91 87.78-46.04 124.48-83.51a32.032 32.032 0 0 1 19.52 29.48v40l16-48z" fill="#e64c3f"/><path d="m288 112h-40l-8 32h40z" fill="#fec9a3"/><path d="m184 160h16v64h-16z" fill="#d63f30"/><path d="m104 160h16v64h-16z" fill="#d63f30"/><path d="m24 224h464v192h-464z" fill="#92563a"/><path d="m488 224v192h-394.44l242.44-192z" fill="#875036"/><path d="m144 24h48a16 16 0 0 1 16 16 16 16 0 0 1 -16 16h-80a0 0 0 0 1 0 0 32 32 0 0 1 32-32z" fill="#7a432a"/><path d="m424 40h-24v32h24v16a32 32 0 0 0 32 32v-48a32 32 0 0 0 -32-32z" fill="#f98500"/><path d="m424 64v16a40 40 0 1 1 -80 0v-16a40.015 40.015 0 0 1 40-40c.44 0 .89.01 1.33.02a40.013 40.013 0 0 1 38.67 39.98z" fill="#fec9a3"/><path d="m424 64v16a40.019 40.019 0 0 1 -44.91 39.7 47.919 47.919 0 0 0 21.02-39.7v-21.33a47.848 47.848 0 0 0 -14.06-33.94c-.24-.24-.48-.47-.72-.71a40.013 40.013 0 0 1 38.67 39.98z" fill="#fec093"/><path d="m416.07 40.1a133.423 133.423 0 0 1 -72.07 31.11v-7.21a40 40 0 0 1 72.07-23.9z" fill="#f98500"/><path d="m345.167 184h53.666v16h-53.666z" fill="#556a8a" transform="matrix(.447 -.894 .894 .447 33.907 438.862)"/><path d="m360 192h64v-72a32 32 0 0 1 32 32v72h-112v-16a16 16 0 0 1 16-16z" fill="#fec9a3"/><path d="m392 296v16a40 40 0 0 1 -80 0v-16a40 40 0 0 1 80 0z" fill="#fec9a3"/><path d="m416 384v104h-128v-104a32 32 0 0 1 32-32h64a31.986 31.986 0 0 1 32 32z" fill="#ffb531"/><path d="m416 384v104h-128v-32.67c41.94-22.23 80.75-54.14 113.17-98.34a32 32 0 0 1 14.83 27.01z" fill="#ffa912"/><path d="m416 304v120h-80v-164.66a39.714 39.714 0 0 1 16-3.34h16a48 48 0 0 1 48 48z" fill="#693924"/><path d="m344 488h128v-72a16 16 0 0 0 -16-16h-82.647a16 16 0 0 0 -15.742 13.138z" fill="#556a8a"/><path d="m184 304v16a40 40 0 0 1 -79.2 8 40.571 40.571 0 0 1 -.8-8v-16a40 40 0 0 1 80 0z" fill="#fec9a3"/><path d="m184 304v16a40.006 40.006 0 0 1 -55.23 36.99 48.018 48.018 0 0 0 31.23-44.99v-21.33a47.816 47.816 0 0 0 -7.49-25.76 40.037 40.037 0 0 1 31.49 39.09z" fill="#fec093"/><path d="m208 392v96h-128v-96a32 32 0 0 1 32-32h64a31.983 31.983 0 0 1 32 32z" fill="#fa6d00"/><path d="m208 392v96h-128v-24.72a330.667 330.667 0 0 0 119.2-93.33 31.918 31.918 0 0 1 8.8 22.05z" fill="#f86400"/><path d="m184 256v48l-32 24h-47.2a40.571 40.571 0 0 1 -.8-8v-32a32 32 0 0 1 32-32z" fill="#f98500"/><path d="m168 488h-128v-72a16 16 0 0 1 16-16h82.647a16 16 0 0 1 15.742 13.138z" fill="#556a8a"/><g fill="#ffb531"><path d="m232 64h32v16h-32z"/><path d="m229.578 32h28.844v16h-28.844z" transform="matrix(.832 -.555 .555 .832 18.792 142.065)"/><path d="m232 92.686h16v22.627h-16z" transform="matrix(.707 -.707 .707 .707 -3.245 200.167)"/></g></g></svg>