<?xml version="1.0" encoding="UTF-8" standalone="no"?>
<!-- Created with Inkscape (http://www.inkscape.org/) -->

<svg
   width="167.20335mm"
   height="53.131512mm"
   viewBox="0 0 167.20335 53.131512"
   version="1.1"
   id="svg5"
   xml:space="preserve"
   inkscape:version="1.2.2 (732a01da63, 2022-12-09)"
   sodipodi:docname="alchemy.svg"
   xmlns:inkscape="http://www.inkscape.org/namespaces/inkscape"
   xmlns:sodipodi="http://sodipodi.sourceforge.net/DTD/sodipodi-0.dtd"
   xmlns="http://www.w3.org/2000/svg"
   xmlns:svg="http://www.w3.org/2000/svg"><sodipodi:namedview
     id="namedview7"
     pagecolor="#ffffff"
     bordercolor="#000000"
     borderopacity="0.25"
     inkscape:showpageshadow="2"
     inkscape:pageopacity="0.0"
     inkscape:pagecheckerboard="true"
     inkscape:deskcolor="#d1d1d1"
     inkscape:document-units="mm"
     showgrid="false"
     inkscape:zoom="0.2102413"
     inkscape:cx="625.47177"
     inkscape:cy="841.88976"
     inkscape:window-width="1920"
     inkscape:window-height="1017"
     inkscape:window-x="1272"
     inkscape:window-y="-8"
     inkscape:window-maximized="1"
     inkscape:current-layer="layer1" /><defs
     id="defs2"><clipPath
       clipPathUnits="userSpaceOnUse"
       id="clipPath356"><rect
         style="opacity:0.482966;fill:#000000;stroke-width:0.3;stroke-linecap:square;stroke-linejoin:round;paint-order:stroke fill markers"
         id="rect358"
         width="194.46875"
         height="98.807091"
         x="3.4173961"
         y="27.53573" /></clipPath><clipPath
       clipPathUnits="userSpaceOnUse"
       id="clipPath385"><rect
         style="opacity:0.482966;fill:#000000;stroke-width:0.3;stroke-linecap:square;stroke-linejoin:round;paint-order:stroke fill markers"
         id="rect387"
         width="132.29167"
         height="70.44529"
         x="29.515823"
         y="88.692581" /></clipPath><clipPath
       clipPathUnits="userSpaceOnUse"
       id="clipPath403"><rect
         style="opacity:0.482966;fill:#000000;stroke-width:0.3;stroke-linecap:square;stroke-linejoin:round;paint-order:stroke fill markers"
         id="rect405"
         width="98.331284"
         height="35.595036"
         x="52.280209"
         y="45.161201" /></clipPath></defs><g
     inkscape:label="Capa 1"
     inkscape:groupmode="layer"
     id="layer1"
     transform="translate(-19.862163,228.43699)"><path
       style="fill:#000000;stroke-width:1"
       d="m 131.51747,-175.50392 c 5.3e-4,-0.10914 0.3573,-0.73422 0.79262,-1.38906 0.43531,-0.65484 0.79199,-1.39307 0.79261,-1.6405 5.3e-4,-0.24743 0.2095,-0.57267 0.46416,-0.72276 0.31495,-0.18563 0.36906,-0.33789 0.16921,-0.47617 -0.39138,-0.27078 -1.1614,-1.79404 -1.1614,-2.2975 0,-0.22038 0.24574,-0.53221 0.54608,-0.69295 0.69215,-0.37043 1.306,0.077 1.306,0.95187 0,0.93069 0.45923,1.01823 0.89733,0.17104 0.50976,-0.98577 1.08138,-1.44382 1.66222,-1.33196 0.36121,0.0696 0.0919,0.45967 -1.17792,1.70603 -0.90541,0.88871 -1.64621,1.71117 -1.64621,1.82768 0,0.25802 -2.37269,4.09272 -2.53234,4.09272 -0.0624,0 -0.11298,-0.0893 -0.11236,-0.19844 z m 32.27803,-2.74592 c 0,-0.15481 0.56555,-1.2972 1.25678,-2.53863 0.69122,-1.24143 1.6795,-3.04569 2.19616,-4.00947 0.51667,-0.96378 1.32517,-2.40717 1.79667,-3.20754 1.55606,-2.64139 2.696,-5.90824 2.6833,-7.68982 -0.007,-0.99135 -0.72945,-4.22492 -1.20794,-5.40705 -0.98776,-2.44031 -1.21181,-2.83671 -2.22402,-3.93482 -0.58375,-0.63329 -1.06136,-1.25842 -1.06136,-1.38916 0,-0.13074 0.81803,-0.86157 1.81784,-1.62406 1.4843,-1.13197 2.00984,-1.38634 2.86429,-1.38634 1.81828,0 2.86911,1.75881 3.79124,6.34553 0.30669,1.52551 0.61991,2.8352 0.69605,2.91042 0.22257,0.21989 1.26419,-1.19694 3.83509,-5.21656 1.32472,-2.07121 2.56178,-3.89298 2.74903,-4.04838 0.18726,-0.15541 1.20297,-0.35487 2.25715,-0.44325 1.80925,-0.15168 1.90911,-0.13173 1.78162,0.3558 -0.12444,0.47583 -3.21038,5.26953 -3.97958,6.18186 -0.18403,0.21828 -0.88693,0.65679 -1.562,0.97447 -2.2819,1.07385 -3.88432,2.90771 -6.54661,7.49219 -0.6338,1.09141 -1.41844,2.4011 -1.74366,2.91042 -0.32522,0.50932 -1.26142,2.05714 -2.08047,3.43958 -4.50647,7.60641 -6.16321,10.15796 -6.72426,10.35608 -0.37604,0.13278 -0.59532,0.10653 -0.59532,-0.0713 z m -75.141668,-0.36471 c 0,-0.23644 0.137009,-0.68995 0.304467,-1.0078 0.373515,-0.70898 4.182226,-5.69387 5.596519,-7.3248 1.345727,-1.55185 1.925371,-2.7393 2.131045,-4.36562 0.3406,-2.69327 -0.751057,-6.28745 -2.103546,-6.92573 -1.295821,-0.61152 -1.952874,-0.24425 -9.195079,5.13979 -1.614884,1.20055 -3.088349,2.18281 -3.274364,2.18281 -0.403254,0 -0.414359,-0.4777 -0.07995,-3.43958 0.139655,-1.23693 0.555302,-5.93989 0.923663,-10.45104 0.368358,-4.51115 0.977469,-10.82146 1.353577,-14.02292 0.376108,-3.20145 0.620911,-6.21333 0.544007,-6.69306 -0.156123,-0.97389 -0.413076,-0.79452 3.092048,-2.15851 2.550993,-0.99269 2.665092,-0.99635 2.433746,-0.0781 -0.511464,2.03005 -1.067366,6.80534 -1.33214,11.44323 -0.166841,2.92248 -0.882092,11.9347 -1.039424,13.09687 -0.377952,2.79179 -0.442428,4.87441 -0.166851,5.38933 0.655545,1.2249 1.938255,0.5332 7.294573,-3.93359 2.353453,-1.9626 3.048982,-2.39422 4.067781,-2.52429 1.959096,-0.25012 2.392346,0.72498 2.570376,5.78503 l 0.13194,3.75019 -3.457614,4.36562 c -1.901685,2.4011 -3.901205,4.92248 -4.443378,5.60309 -0.542174,0.6806 -1.863964,2.37948 -2.937307,3.77528 -2.116106,2.75183 -2.41409,3.04731 -2.41409,2.39381 z m 40.262788,-0.74288 c -0.72447,-0.77117 -0.73399,-1.76034 -0.0256,-2.66091 0.80523,-1.02369 1.40189,-1.27431 2.25846,-0.94864 l 0.72613,0.27607 -0.5417,0.5417 c -0.46837,0.46837 -0.61642,0.49504 -1.09364,0.197 -0.30358,-0.18958 -0.6312,-0.26545 -0.72805,-0.1686 -0.36633,0.36633 0.19707,1.55883 0.95392,2.0191 0.75678,0.46023 0.76866,0.49623 0.30279,0.91783 -0.66169,0.59882 -1.17159,0.55105 -1.85231,-0.17355 z m 19.04968,-0.13559 c -0.35732,-0.35732 -0.53385,-1.04123 -0.64371,-2.49388 -0.0833,-1.10085 -0.27661,-2.23555 -0.42968,-2.52155 -0.21757,-0.40654 -0.17458,-0.61387 0.19705,-0.95018 0.84708,-0.76661 1.02755,-0.49005 1.2247,1.87672 0.10569,1.26879 0.29542,2.57848 0.42162,2.91041 0.27165,0.71448 1.21496,0.81143 1.36706,0.1405 0.12557,-0.5539 -0.45522,-1.82743 -0.9012,-1.97609 -0.52011,-0.17337 0.0219,-0.73589 0.70904,-0.73589 0.67039,0 1.18432,0.66586 1.18432,1.53443 0,0.68086 -0.92334,1.82176 -1.87096,2.3118 -0.70134,0.36267 -0.80742,0.35456 -1.25824,-0.0963 z m 3.7593,0.10019 c -0.079,-0.20584 0.13388,-0.75152 0.47304,-1.21261 0.56338,-0.76592 0.62396,-0.79035 0.7012,-0.28273 0.0545,0.35778 0.27911,0.55561 0.631,0.55561 0.5214,0 0.51753,0.0222 -0.0846,0.48413 -0.94522,0.72521 -1.55524,0.88674 -1.72069,0.4556 z m -6.47965,-1.07258 c -0.20509,-0.6946 -0.54816,-1.25353 -0.82296,-1.34075 -0.64379,-0.20433 -0.59137,-0.5035 0.17636,-1.00653 0.92016,-0.60291 1.32683,-0.33037 1.70421,1.1421 0.26797,1.04556 0.26492,1.39181 -0.0162,1.84198 -0.49586,0.794 -0.64605,0.70216 -1.0414,-0.6368 z m 14.64695,1.00054 c -0.44144,-0.15755 -0.41957,-0.72917 0.0426,-1.11273 0.25521,-0.2118 0.42757,-0.22205 0.54478,-0.0324 0.0943,0.15258 0.43233,0.26902 0.75116,0.25874 0.42301,-0.0136 0.27575,-0.15374 -0.54478,-0.51832 -1.3705,-0.60894 -1.46026,-1.25008 -0.31043,-2.2176 0.9208,-0.7748 1.07025,-0.81151 1.51067,-0.37109 0.24213,0.24213 0.21574,0.42234 -0.11543,0.78829 -0.39847,0.44029 -0.38811,0.50807 0.14405,0.94288 0.53624,0.43814 0.54611,0.50714 0.15229,1.06531 -0.49439,0.70073 -1.70242,1.36554 -2.1749,1.19691 z m -21.33146,-0.66925 c -0.60945,-0.96643 -0.76504,-1.77975 -0.41998,-2.19551 0.50159,-0.60438 0.97204,-0.45298 1.27273,0.40957 0.15219,0.43656 0.40502,0.79375 0.56184,0.79375 0.17595,0 0.12796,0.30395 -0.12532,0.79375 -0.49062,0.94875 -0.78729,0.99441 -1.28927,0.19844 z m 1.15698,-0.72761 c 0,-0.14552 -0.11203,-0.26458 -0.24897,-0.26458 -0.13693,0 -0.32255,0.11906 -0.41249,0.26458 -0.0899,0.14552 0.0221,0.26458 0.24897,0.26458 0.22687,0 0.41249,-0.11906 0.41249,-0.26458 z m 17.84908,-0.86847 c -0.11518,-1.19583 -0.1825,-2.3319 -0.1496,-2.5246 0.0329,-0.19269 -0.0661,-0.50204 -0.21994,-0.68744 -0.34401,-0.41451 0.6519,-1.4528 1.01614,-1.05938 0.12481,0.1348 0.308,1.51686 0.4071,3.07124 0.16738,2.62525 0.14377,2.84563 -0.33205,3.10028 -0.48071,0.25727 -0.52512,0.14033 -0.72165,-1.9001 z m -15.46783,1.56856 c 0,-0.19703 -0.30418,-0.68645 -0.67596,-1.08761 -0.64192,-0.69264 -0.65318,-0.75456 -0.22358,-1.22926 0.64967,-0.71787 1.16572,-0.61742 1.5097,0.29386 0.16478,0.43657 0.39929,0.79375 0.52114,0.79375 0.12184,0 0.0105,0.35719 -0.24735,0.79375 -0.4963,0.84018 -0.88395,1.03117 -0.88395,0.43551 z m 12.96458,-0.70009 c -0.48835,-0.58208 -1.07238,-1.05833 -1.29784,-1.05833 -0.30136,0 -0.23192,-0.17801 0.26221,-0.67214 0.81437,-0.81437 1.20379,-0.68935 2.16435,0.69484 0.58716,0.84611 0.67686,1.15733 0.45371,1.57428 -0.38903,0.7269 -0.57327,0.66418 -1.58243,-0.53865 z m -132.622171,-6.79451 c -0.963928,-0.1587 -2.579916,-1.70374 -2.579916,-2.46664 0,-0.63274 0.77665,-1.47882 9.921875,-10.80886 3.191262,-3.25575 5.413574,-5.30824 6.085417,-5.6204 1.305915,-0.60675 2.606461,-0.63682 3.531053,-0.0817 0.719965,0.4323 2.422072,2.52981 2.422072,2.98472 0,0.13951 0.0893,0.29335 0.198438,0.34186 0.211526,0.094 1.696498,1.99744 1.918229,2.45877 0.07276,0.15139 0.995495,1.42821 2.050521,2.83739 1.055026,1.40917 1.918229,2.64554 1.918229,2.74747 0,0.36502 -4.573934,5.16019 -4.83811,5.07214 -0.148389,-0.0495 -1.114816,-1.33403 -2.147615,-2.85459 -2.099847,-3.09155 -2.596205,-3.37494 -4.052345,-2.31371 -0.458367,0.33406 -2.450714,1.79801 -4.427432,3.25322 -5.260454,3.87261 -7.488051,4.86391 -10.000416,4.45028 z m 9.701201,-5.62965 c 3.029432,-1.54931 4.260086,-2.75712 4.512655,-4.42891 0.199718,-1.32194 -0.242605,-2.33273 -1.474346,-3.36917 -0.891789,-0.7504 -1.308426,-0.75408 -3.446984,-0.0305 -2.360088,0.79857 -4.949614,4.23673 -4.637869,6.15778 0.24052,1.48216 1.307867,2.39872 2.837317,2.43648 0.373548,0.009 1.367702,-0.33535 2.209227,-0.76572 z m 21.65797,4.29617 c -2.614478,-0.15714 -2.782652,-0.66317 -2.050619,-6.17013 0.221679,-1.66765 0.577903,-4.10365 0.791612,-5.41334 0.213707,-1.30968 0.630137,-4.22672 0.925396,-6.48229 0.295262,-2.25557 0.645854,-4.75588 0.779093,-5.55625 0.133241,-0.80036 0.510624,-3.45667 0.838631,-5.90289 0.60924,-4.54363 0.606237,-4.64722 -0.20633,-7.12034 -0.174384,-0.53076 0.07786,-0.65209 3.451799,-1.66025 1.621579,-0.48454 2.408629,-0.61316 2.531862,-0.41376 0.09835,0.15913 0.07986,1.09104 -0.0411,2.07089 -0.586137,4.74816 -1.593628,13.46771 -1.59683,13.8201 -0.0019,0.21828 -0.09968,0.93331 -0.217106,1.58895 -0.117428,0.65563 -0.283636,2.02485 -0.369359,3.0427 -0.08572,1.01786 -0.21436,2.1483 -0.285866,2.5121 -0.07151,0.3638 -0.4117,2.95291 -0.755981,5.75357 -0.344281,2.80066 -0.758169,5.2514 -0.91975,5.4461 -0.522819,0.62996 0.215898,1.71606 1.290879,1.89791 1.383204,0.234 1.777754,0.54375 1.421863,1.11624 -0.732605,1.1785 -2.539175,1.65395 -5.588191,1.47069 z m 13.555356,-1.01949 c -3.613661,-1.88423 -4.784098,-5.4635 -3.134744,-9.58624 1.152197,-2.88003 2.113045,-4.27986 4.802765,-6.99701 l 2.553652,-2.57968 h 1.478296 c 1.821117,0 3.974682,0.6131 4.60673,1.31151 0.260336,0.28767 0.473339,0.82365 0.473339,1.19107 0,0.74092 -1.092168,2.31777 -2.031756,2.93341 -0.56695,0.37148 -0.696556,0.33806 -1.943527,-0.50109 -1.543309,-1.03857 -3.343603,-1.41045 -4.684977,-0.96775 -0.801915,0.26465 -0.923091,0.43042 -1.080119,1.47756 -0.172667,1.15141 -0.03852,3.14754 0.318656,4.74174 0.259379,1.1577 1.260081,2.63069 2.354107,3.46514 0.890018,0.67885 1.119013,0.72661 3.317282,0.69183 1.2987,-0.0205 2.361272,0.0618 2.361272,0.183 0,0.30496 -5.635112,4.46606 -6.486436,4.78973 -0.988271,0.37574 -1.991574,0.32282 -2.90454,-0.15322 z m 93.701534,-2.29575 c -0.36724,-1.20054 -1.02776,-3.44826 -1.46783,-4.99492 -0.93194,-3.27542 -1.86212,-5.47779 -2.56963,-6.08407 -0.81006,-0.69416 -2.29261,-0.83404 -3.54187,-0.33419 -1.11399,0.44573 -2.16547,1.8688 -6.96678,9.42881 -0.53141,0.83674 -1.05768,1.52135 -1.16949,1.52135 -0.21122,0 -0.36126,-0.309 -1.54168,-3.175 -2.2962,-5.57509 -2.70728,-6.33365 -3.68507,-6.79992 -1.91532,-0.91335 -2.99417,-2.7e-4 -6.98456,5.9113 -1.65599,2.45327 -3.14473,4.57956 -3.30831,4.72508 -0.16357,0.14552 -0.44224,0.592 -0.61924,0.99219 -0.52377,1.18414 -1.10823,0.89331 -1.72807,-0.8599 -0.93287,-2.63862 -2.28363,-6.03825 -2.97612,-7.49038 -0.68421,-1.43477 -2.03011,-2.82837 -2.73157,-2.82837 -0.58495,0 -0.29806,-0.6294 0.95544,-2.09614 0.69366,-0.81165 1.59456,-1.92467 2.002,-2.47336 0.40744,-0.5487 1.03592,-1.19101 1.39663,-1.42736 0.57146,-0.37443 0.74423,-0.38241 1.34291,-0.062 1.16882,0.62554 1.83475,1.98747 4.05866,8.30059 0.40869,1.16018 0.84215,2.14085 0.96324,2.17926 0.12109,0.0384 0.48758,-0.31552 0.81443,-0.78651 0.66269,-0.95492 1.80857,-2.5126 4.16823,-5.66611 3.62235,-4.84102 6.44721,-5.88808 8.06616,-2.98979 0.81996,1.46792 2.69621,6.31144 2.68823,6.93966 -0.008,0.66231 0.82264,0.57519 1.26189,-0.13229 0.98669,-1.58921 4.2207,-5.72092 5.29547,-6.76539 1.63043,-1.58447 3.65003,-2.51611 4.93272,-2.27548 1.67841,0.31487 2.67269,1.46124 3.39015,3.90873 0.92994,3.1723 2.55407,9.50603 2.54841,9.93819 -0.006,0.45587 -3.41725,5.57884 -3.71484,5.57884 -0.1165,0 -0.51228,-0.98226 -0.87951,-2.18281 z m -53.26646,1.19063 c -2.49541,-1.39219 -3.81127,-4.98318 -2.98128,-8.13594 0.73114,-2.77725 1.66378,-4.14034 5.03926,-7.36505 l 3.27813,-3.13171 1.93949,0.17971 c 3.20948,0.29741 4.24815,0.804 4.26981,2.08254 0.0148,0.87229 -6.87515,8.55884 -7.38781,8.24199 -0.35938,-0.2221 -0.0776,-0.7426 1.3021,-2.40509 1.18981,-1.43367 1.47329,-2.16131 1.22595,-3.14677 -0.29234,-1.16479 -3.42114,-1.64443 -4.39224,-0.67333 -0.78816,0.78815 -0.75105,4.01272 0.0661,5.74761 0.32742,0.69512 0.71438,1.40239 0.8599,1.57173 0.14552,0.16933 0.55111,0.68193 0.90132,1.13911 0.93281,1.21772 1.98442,1.65701 4.05738,1.69487 l 1.81463,0.0331 -1.1377,1.00446 c -4.28791,3.7857 -4.01808,3.62575 -6.11652,3.62575 -1.32517,0 -2.16232,-0.14154 -2.73856,-0.46302 z"
       id="path574"
       sodipodi:nodetypes="cscsssssssssscsssscssssssssssssssscsssssssssssssssssssssscsssssssscssssssssssssssssssscscscccsssssssssssssssssssssssssssssssssssssssssscssssssscssssssssscssscccsssscccsssssssssscsssssssssssscssssssssscsssssssssssssssssssssssssscsssssssscsscsssssssssscsscc" /></g></svg>
