<?xml version="1.0" encoding="UTF-8" standalone="no"?>
<svg
   xmlns:dc="http://purl.org/dc/elements/1.1/"
   xmlns:cc="http://creativecommons.org/ns#"
   xmlns:rdf="http://www.w3.org/1999/02/22-rdf-syntax-ns#"
   xmlns:svg="http://www.w3.org/2000/svg"
   xmlns="http://www.w3.org/2000/svg"
   xmlns:sodipodi="http://sodipodi.sourceforge.net/DTD/sodipodi-0.dtd"
   xmlns:inkscape="http://www.inkscape.org/namespaces/inkscape"
   sodipodi:docname="amati.svg"
   inkscape:version="1.0 (4035a4fb49, 2020-05-01)"
   id="svg8"
   version="1.1"
   viewBox="0 0 94.946901 100.00001"
   height="100.00001mm"
   width="94.946899mm">
  <defs
     id="defs2" />
  <sodipodi:namedview
     inkscape:window-maximized="0"
     inkscape:window-y="0"
     inkscape:window-x="52"
     inkscape:window-height="728"
     inkscape:window-width="1260"
     fit-margin-bottom="0"
     fit-margin-right="0"
     fit-margin-left="0"
     fit-margin-top="0"
     showgrid="false"
     inkscape:document-rotation="0"
     inkscape:current-layer="layer1"
     inkscape:document-units="mm"
     inkscape:cy="520.72705"
     inkscape:cx="847.31312"
     inkscape:zoom="0.175"
     inkscape:pageshadow="2"
     inkscape:pageopacity="0.0"
     borderopacity="1.0"
     bordercolor="#666666"
     pagecolor="#ffffff"
     id="base" />
  <metadata
     id="metadata5">
    <rdf:RDF>
      <cc:Work
         rdf:about="">
        <dc:format>image/svg+xml</dc:format>
        <dc:type
           rdf:resource="http://purl.org/dc/dcmitype/StillImage" />
        <dc:title></dc:title>
      </cc:Work>
    </rdf:RDF>
  </metadata>
  <g
     transform="translate(202.58414,-71.294182)"
     id="layer1"
     inkscape:groupmode="layer"
     inkscape:label="Capa 1">
    <path
       id="path26"
       d="m -164.03032,170.96914 c -7.5e-4,-0.37459 0.51241,-6.91259 0.54562,-6.95043 0.0121,-0.0138 0.36701,0.004 0.78863,0.0397 0.69196,0.0585 0.76656,0.0853 0.76647,0.27514 -6e-5,0.11568 -0.11234,1.60539 -0.24951,3.31047 -0.13716,1.70508 -0.24962,3.2239 -0.2499,3.37516 l -3.8e-4,0.27501 h -0.80004 -0.80003 l -7.6e-4,-0.32502 z m 6.60103,-4.4252 v -4.75022 h 0.798 0.79801 l 0.027,2.07357 0.027,2.07357 1.85008,-2.07073 1.85009,-2.07072 1.02504,-0.003 c 0.56378,-0.002 1.02505,0.0159 1.02505,0.0387 0,0.0229 -0.84945,0.99501 -1.88767,2.1603 l -1.88767,2.11871 1.93767,2.54475 c 1.06572,1.39961 1.93767,2.56508 1.93767,2.58992 0,0.0248 -0.44524,0.0452 -0.98944,0.0452 h -0.98944 l -1.42498,-1.87509 c -0.78373,-1.0313 -1.46372,-1.91802 -1.51108,-1.97051 -0.0523,-0.0579 -0.26289,0.0781 -0.53571,0.34584 l -0.44961,0.44126 v 1.52925 1.52925 h -0.80004 -0.80004 z m 8.09822,4.57521 c -10e-4,-0.0962 -0.111,-1.68151 -0.24406,-3.52278 -0.13304,-1.84128 -0.22288,-3.36681 -0.19962,-3.39006 0.0233,-0.0232 0.38059,-0.064 0.79408,-0.0905 0.65548,-0.0421 0.75179,-0.0268 0.75179,0.11912 0,0.14438 0.0584,0.13377 0.42502,-0.0773 0.51698,-0.29754 1.14037,-0.41009 1.50456,-0.27163 0.25859,0.0983 0.27052,0.13383 0.27052,0.80536 v 0.70251 l -0.47502,2e-4 c -0.55411,2e-4 -1.07983,0.23932 -1.35671,0.61714 -0.19264,0.26289 -0.19315,0.30649 -0.0305,2.65012 0.091,1.31056 0.16465,2.43909 0.16376,2.50785 -0.001,0.0894 -0.22914,0.125 -0.80164,0.125 -0.69445,0 -0.80032,-0.0231 -0.80218,-0.17501 z m 5.85241,0.007 c -1.00777,-0.22633 -1.57725,-0.70064 -1.81239,-1.5095 -0.27124,-0.93304 -0.0714,-1.68877 0.62541,-2.36555 0.45038,-0.4374 1.16899,-0.71257 2.28067,-0.8733 0.73099,-0.10568 0.8564,-0.15162 0.8564,-0.31368 0,-0.32678 -0.29883,-0.83748 -0.55955,-0.95627 -0.7394,-0.3369 -1.94057,0.16965 -1.94057,0.81836 0,0.2728 -0.062,0.29714 -1.07504,0.42193 l -0.52503,0.0647 v -0.39719 c 0,-1.27142 1.25965,-2.30612 2.92483,-2.40252 0.87232,-0.0505 1.46156,0.11383 1.98373,0.5532 0.54611,0.45952 0.6891,0.90545 0.95054,2.96434 0.13363,1.05244 0.33258,2.19573 0.44209,2.54065 0.28126,0.88587 0.27838,0.89441 -0.32592,0.96885 -0.28876,0.0356 -0.64878,0.0884 -0.80003,0.11734 -0.15126,0.0289 -0.2757,0.0153 -0.27655,-0.0303 -7.5e-4,-0.0456 -0.0388,-0.14172 -0.0844,-0.21355 -0.0642,-0.10127 -0.19301,-0.0623 -0.57349,0.17352 -0.62428,0.38693 -1.50195,0.57121 -2.09074,0.43898 z m 1.4178,-1.64054 c 0.23699,-0.11473 0.52696,-0.34351 0.64438,-0.50841 0.18184,-0.25538 0.2037,-0.38306 0.14749,-0.86134 -0.0363,-0.30883 -0.0763,-0.5718 -0.0889,-0.58436 -0.0664,-0.0664 -1.58285,0.26371 -1.85307,0.40345 -0.71511,0.36979 -0.81246,1.18247 -0.18732,1.56364 0.41144,0.25087 0.80011,0.2471 1.33737,-0.013 z m -24.86886,1.49672 c -0.60511,-0.18044 -1.01041,-0.67646 -1.13421,-1.38813 -0.0335,-0.19251 0.0415,-1.32745 0.16661,-2.5221 0.25001,-2.38698 0.26829,-2.27812 -0.38247,-2.27812 -0.56208,0 -0.63439,-0.0659 -0.5834,-0.53172 0.10074,-0.92026 0.0695,-0.8855 0.72967,-0.81081 l 0.59015,0.0668 0.0517,-0.33717 c 0.0284,-0.18543 0.0727,-0.53213 0.0984,-0.77043 0.0257,-0.23831 0.0679,-0.45441 0.0937,-0.48023 0.0258,-0.0258 0.39143,-0.0157 0.81245,0.0224 l 0.7655,0.0694 -0.0593,0.46086 c -0.0326,0.25348 -0.0827,0.62569 -0.11132,0.82714 l -0.052,0.36627 0.64901,0.0695 0.64901,0.0695 -0.05,0.56427 c -0.0719,0.81245 -0.0396,0.78061 -0.72585,0.715 -0.72766,-0.0696 -0.63359,-0.28654 -0.86258,1.98944 -0.25799,2.56419 -0.26982,2.50819 0.54629,2.58661 l 0.50307,0.0483 -0.0612,0.61258 c -0.0336,0.33691 -0.0783,0.63227 -0.0993,0.65634 -0.0839,0.0963 -1.20584,0.0921 -1.53397,-0.006 z m -3.25015,-0.33718 c -0.055,-0.0196 -0.35877,-0.0648 -0.67503,-0.10045 -0.53176,-0.06 -0.57503,-0.0839 -0.57503,-0.31837 0,-0.20304 -0.0348,-0.23874 -0.175,-0.1793 -0.9246,0.39205 -1.48225,0.43824 -2.31292,0.19155 -0.5936,-0.17628 -1.21247,-0.68215 -1.45198,-1.18687 -0.1982,-0.41768 -0.21026,-1.44442 -0.0223,-1.89439 0.21818,-0.52216 0.79966,-1.01629 1.42887,-1.2142 0.45905,-0.14439 0.7823,-0.16704 1.74824,-0.12254 l 1.18506,0.0546 v -0.34556 c 0,-0.19005 -0.0641,-0.46956 -0.14251,-0.62113 -0.39264,-0.75927 -1.90999,-0.75704 -2.19351,0.003 l -0.11409,0.30595 -0.79577,-0.0659 c -0.43768,-0.0362 -0.80699,-0.0771 -0.82069,-0.0908 -0.0953,-0.0953 0.28992,-0.95571 0.55041,-1.22947 0.53998,-0.56751 1.05133,-0.76936 2.0661,-0.81556 1.11283,-0.0507 1.86974,0.19194 2.44356,0.78322 0.6662,0.68648 0.71465,1.13272 0.39888,3.67373 -0.11424,0.91922 -0.19299,2.0077 -0.17502,2.41883 0.0329,0.75155 -0.0271,0.8746 -0.36732,0.75347 z m -1.90008,-1.83906 c 0.55064,-0.25286 0.71327,-0.47602 0.79017,-1.08429 0.063,-0.49821 0.0544,-0.52526 -0.18508,-0.58537 -0.13811,-0.0347 -0.63842,-0.0471 -1.1118,-0.0277 -0.79832,0.0328 -0.87817,0.0557 -1.10203,0.31593 -0.78761,0.91565 0.40078,1.93611 1.60874,1.38141 z m 34.66012,1.32201 c -0.61603,-0.22538 -1.26348,-0.90049 -1.43945,-1.50096 l -0.14155,-0.48301 0.66121,-0.11886 c 0.95879,-0.17235 0.97864,-0.16914 1.04623,0.16881 0.17386,0.86929 2.10134,0.94538 2.53155,0.1 0.28273,-0.5556 -0.25856,-0.94755 -1.45182,-1.05128 -2.0867,-0.18138 -2.9148,-0.76154 -2.9148,-2.04207 0,-0.6389 0.17267,-1.06066 0.61025,-1.49057 0.47343,-0.46514 0.95912,-0.69273 1.76092,-0.82515 0.87154,-0.14393 1.64974,7.6e-4 2.21812,0.41254 0.48155,0.34884 0.68203,0.63533 0.8612,1.23068 l 0.1336,0.4439 -0.74604,0.11096 c -0.95817,0.14251 -0.93787,0.14425 -0.93787,-0.0802 0,-0.10512 -0.14411,-0.31238 -0.32024,-0.46058 -0.28491,-0.23974 -0.38403,-0.26484 -0.89867,-0.22762 -0.68273,0.0494 -1.0812,0.34218 -1.0812,0.79444 0,0.42012 0.30483,0.55239 1.68231,0.73 1.89074,0.24378 2.53657,0.66432 2.71057,1.76506 0.17233,1.09012 -0.31144,1.89631 -1.44275,2.40432 -0.66058,0.29663 -2.18258,0.36069 -2.84157,0.1196 z m 5.48924,-0.47091 c -0.34228,-1.80956 -1.76243,-9.92449 -1.74109,-9.94887 0.0569,-0.0651 1.47925,-0.3122 1.52625,-0.26519 0.0448,0.0448 1.81338,9.88416 1.78263,9.91771 -0.0197,0.0215 -1.56455,0.31353 -1.56779,0.29635 z m -45.97463,-0.1902 c -0.32076,-0.0617 -0.52503,-0.15287 -0.52503,-0.23443 0,-0.0734 0.20252,-1.11066 0.45003,-2.30497 0.54896,-2.6489 0.56538,-3.0188 0.14953,-3.36872 -0.41997,-0.35338 -1.09708,-0.44339 -1.51122,-0.20087 -0.57138,0.33461 -0.66359,0.57314 -1.15431,2.98605 -0.25727,1.26506 -0.49719,2.33485 -0.53315,2.37731 -0.0692,0.0817 -1.36447,-0.15729 -1.48026,-0.27308 -0.0373,-0.0373 0.1456,-1.11112 0.40658,-2.38613 0.26097,-1.27502 0.47409,-2.45446 0.47358,-2.62098 -0.003,-0.88386 -1.27793,-1.37865 -2.11123,-0.81914 -0.33657,0.22599 -0.34336,0.24571 -0.71363,2.0751 -0.20561,1.01581 -0.44321,2.16546 -0.52802,2.55477 l -0.15419,0.70784 -0.79768,-0.15203 c -0.63266,-0.12058 -0.78854,-0.18426 -0.75352,-0.30782 0.0243,-0.0857 0.3426,-1.64086 0.70736,-3.45594 0.36477,-1.81508 0.67905,-3.35057 0.69841,-3.41219 0.0253,-0.0805 0.2509,-0.0691 0.80036,0.0402 0.71356,0.14199 0.76137,0.16743 0.70874,0.37709 -0.0563,0.22426 -0.0552,0.22446 0.418,0.0774 1.09499,-0.34019 2.43317,0.082 3.04969,0.96224 l 0.16301,0.23273 0.48095,-0.2274 c 1.11705,-0.52816 2.84863,-0.12568 3.44766,0.80136 0.47547,0.7358 0.46402,1.11637 -0.12199,4.05695 l -0.52647,2.64183 -0.25909,-0.0132 c -0.1425,-0.007 -0.49535,-0.0585 -0.78411,-0.11406 z m 48.03595,-3.86446 c -0.37462,-1.9204 -0.65563,-3.53291 -0.62446,-3.58334 0.0558,-0.0904 1.4543,-0.37908 1.50433,-0.31058 0.0713,0.0976 1.3689,7.01144 1.3243,7.05605 -0.0516,0.0516 -1.21584,0.31924 -1.41797,0.326 -0.059,0.002 -0.40368,-1.52724 -0.7862,-3.48813 z m 4.10039,2.2506 c -1.08353,-0.45779 -1.79936,-1.44568 -2.10798,-2.90914 -0.19079,-0.90472 -0.18887,-1.48659 0.007,-2.14646 0.21547,-0.72556 0.57857,-1.24294 1.12747,-1.60651 1.30889,-0.86697 3.03454,-0.7721 3.98446,0.21905 0.31342,0.32702 0.79366,1.25365 0.69886,1.34845 -0.0679,0.0679 -1.08536,0.33277 -1.28389,0.3342 -0.0908,7.6e-4 -0.25782,-0.15591 -0.37111,-0.34793 -0.25025,-0.42415 -0.7583,-0.75083 -1.16383,-0.74836 -0.16501,0.001 -0.4928,0.0893 -0.72841,0.19625 -0.7635,0.34653 -0.99104,1.23588 -0.65672,2.56681 0.31103,1.23823 1.07333,2.00718 1.87065,1.88697 0.81789,-0.1233 1.25862,-0.53956 1.35956,-1.28404 0.0595,-0.43905 -0.0294,-0.38817 1.23006,-0.70342 l 0.27501,-0.0688 -0.001,0.62694 c -0.002,1.55281 -1.199,2.7069 -2.93818,2.83385 -0.60655,0.0443 -0.79783,0.0152 -1.30205,-0.19782 z m -62.07328,-0.48859 -0.76152,-0.20928 -0.11506,-1.25069 c -0.0633,-0.68789 -0.1609,-1.27903 -0.21692,-1.31365 -0.14498,-0.0896 -3.30231,-0.92493 -3.33492,-0.88231 -0.0148,0.0194 -0.24474,0.35034 -0.51082,0.73536 -0.26609,0.38501 -0.58528,0.83895 -0.70932,1.00874 l -0.22553,0.30872 -0.80738,-0.20742 c -0.44406,-0.11409 -0.80738,-0.23957 -0.80738,-0.27885 0,-0.0503 5.66476,-7.91045 5.95685,-8.26544 0.04,-0.0486 1.10313,0.19718 1.25276,0.28966 0.0857,0.053 0.27549,1.54547 0.59908,4.71111 0.2605,2.54847 0.49807,4.84733 0.52795,5.1086 0.0299,0.26126 0.0227,0.47045 -0.016,0.46488 -0.0387,-0.006 -0.41297,-0.10432 -0.83181,-0.21943 z m -1.24946,-5.87071 c -0.0757,-0.85254 -0.1492,-1.66257 -0.16336,-1.80008 -0.0211,-0.2051 -0.20307,0.004 -1.01284,1.16666 -0.5429,0.77917 -0.98418,1.45223 -0.98062,1.49567 0.005,0.0591 2.20888,0.73002 2.28108,0.69441 0.007,-0.004 -0.0486,-0.70412 -0.12426,-1.55666 z m 69.66099,4.75253 c -1.73124,-0.55627 -2.89142,-3.3237 -2.18496,-5.21188 0.27955,-0.74716 0.76716,-1.26873 1.54338,-1.65086 1.73974,-0.85647 3.55975,-0.22248 4.42876,1.54273 0.17375,0.35295 0.34153,0.77127 0.37283,0.92961 l 0.0569,0.2879 -2.30695,0.79539 c -1.26881,0.43747 -2.30694,0.83766 -2.30694,0.88933 0,0.0517 0.21459,0.30852 0.47686,0.57079 0.55491,0.55491 1.00811,0.69073 1.65655,0.49645 0.62362,-0.18684 1.03739,-0.68217 1.11962,-1.34029 l 0.0674,-0.5396 0.61489,-0.11672 c 0.33818,-0.0642 0.69987,-0.14167 0.80375,-0.17216 0.17604,-0.0517 0.18563,-0.005 0.14121,0.68734 -0.0832,1.29615 -0.76494,2.22909 -1.96545,2.6896 -0.71839,0.27558 -1.89607,0.34217 -2.51788,0.14237 z m 0.84702,-4.41254 c 0.7117,-0.24449 1.30982,-0.46035 1.32918,-0.4797 0.0708,-0.0708 -0.50505,-0.67173 -0.78002,-0.81392 -0.82763,-0.42798 -1.92754,0.14383 -2.19116,1.13912 -0.13745,0.51891 -0.0736,0.76398 0.17386,0.66715 0.0958,-0.0375 0.75645,-0.26818 1.46814,-0.51265 z m -44.48447,1.48644 -0.38855,-0.04 0.0635,-0.60785 c 0.0349,-0.33433 0.0635,-0.73279 0.0635,-0.88549 v -0.27763 l 0.77504,0.0559 c 0.42626,0.0308 0.79177,0.0703 0.81223,0.0878 0.0205,0.0175 0.005,0.41641 -0.034,0.88639 l -0.0712,0.85451 -0.41604,-0.0168 c -0.22882,-0.009 -0.59089,-0.0348 -0.80459,-0.0568 z m 32.20405,-2.84922 c -0.0903,-0.45501 -0.16419,-0.85519 -0.16414,-0.88928 4e-5,-0.0341 0.28134,-0.11542 0.6251,-0.18071 0.34377,-0.0653 0.69591,-0.13919 0.78254,-0.16421 0.12463,-0.036 0.18322,0.0957 0.28076,0.63073 0.0678,0.37192 0.14642,0.77098 0.17473,0.8868 0.0462,0.18892 -0.0135,0.22293 -0.58078,0.33071 -0.34774,0.0661 -0.70464,0.14109 -0.79312,0.1667 -0.13023,0.0377 -0.19216,-0.11107 -0.32509,-0.78074 z m -36.86573,-5.32559 c 0,-0.62515 -0.117,-0.55928 1.32269,-0.74464 2.96249,-0.3814 5.0877,-1.93222 5.47622,-3.99613 0.0581,-0.30887 0.10005,-2.22872 0.0982,-4.5002 l -0.003,-3.96153 -0.21307,0.30001 c -0.47337,0.6665 -1.95926,2.032 -2.64566,2.43129 -3.63533,2.11472 -7.67551,1.1302 -9.36479,-2.28205 -0.2589,-0.52295 -0.47071,-1.0382 -0.47071,-1.14501 0,-0.14215 -0.14067,-0.0364 -0.52471,0.39449 -0.71692,0.80437 -1.91348,1.66929 -3.11882,2.25439 -5.27909,2.5626 -11.16562,0.79657 -13.51019,-4.05322 -0.65848,-1.36209 -0.79103,-1.96288 -0.7943,-3.60016 -0.002,-1.19311 0.0318,-1.51093 0.2314,-2.1501 0.88866,-2.84602 3.02126,-4.70067 6.61611,-5.75378 3.15291,-0.92365 4.86477,-1.53917 6.5503,-2.35523 2.01829,-0.97716 3.47782,-2.16697 4.02502,-3.2812 l 0.27517,-0.56033 0.0295,-3.78571 c 0.0336,-4.30121 0.01,-4.47982 -0.67244,-5.09636 -0.62778,-0.56716 -1.36607,-0.79114 -2.78749,-0.84567 -1.90059,-0.0729 -3.26218,0.3476 -4.31541,1.33278 -1.90714,1.7839 -1.22189,4.31769 1.24616,4.60776 0.9875,0.11606 1.62145,-0.26295 2.09418,-1.25202 0.16063,-0.33607 0.32156,-0.61104 0.35763,-0.61104 0.137,0 0.3476,1.49115 0.34604,2.45011 -0.002,1.25943 -0.28229,2.18501 -0.9752,3.221 -0.74589,1.1152 -1.79347,1.90212 -3.18395,2.39172 -0.97952,0.3449 -2.55168,0.43668 -3.46442,0.20225 -2.24197,-0.57582 -3.7172,-2.6895 -3.72358,-5.33502 -0.002,-0.99285 0.14921,-1.6395 0.6113,-2.60741 1.21837,-2.55203 4.62987,-4.49441 9.09121,-5.17618 1.3239,-0.20232 3.73238,-0.2058 5.04974,-0.007 3.22902,0.48654 5.89135,1.98062 7.51307,4.21628 0.51325,0.70755 1.18638,2.16392 1.42686,3.08707 0.36516,1.40185 0.407,2.62206 0.40709,11.87057 7e-5,7.76261 0.0205,9.02051 0.15205,9.39356 0.33743,0.95637 1.04395,1.48806 1.98302,1.49231 0.59493,0.003 1.06875,-0.21161 1.46457,-0.66242 l 0.30062,-0.34238 V 120.5933 c 0,-14.32301 -0.0318,-20.24468 -0.11088,-20.622452 -0.14934,-0.713793 -0.61074,-1.561908 -1.12012,-2.058927 -1.06532,-1.039463 -2.92841,-1.78296 -4.94428,-1.973097 l -0.72503,-0.06838 v -0.589878 -0.589879 h 12.55056 12.55057 v 0.588378 0.588378 l -0.67503,0.07032 c -3.12981,0.32604 -5.29612,1.633332 -5.95886,3.595956 -0.15226,0.450907 -0.16642,1.754831 -0.16642,15.325691 0,8.15808 0.0202,14.83286 0.045,14.83286 0.062,0 13.04255,-10.07763 13.46501,-10.45378 1.11685,-0.99444 1.84128,-2.14974 1.95615,-3.11958 0.10732,-0.90621 -0.36123,-1.84001 -1.15845,-2.30868 -0.44628,-0.26237 -0.50233,-0.2695 -2.38213,-0.30289 l -1.92508,-0.0342 v -0.54082 -0.54082 h 8.9004 8.90041 v 0.53535 0.53535 l -0.76513,0.0647 c -0.42082,0.0356 -1.13495,0.0647 -1.58697,0.0647 -1.59428,0 -3.01182,0.36047 -4.16113,1.05815 -0.60139,0.36507 -10.07911,7.66512 -10.22331,7.87433 -0.0568,0.0824 1.71646,3.36395 5.25024,9.71587 l 5.33601,9.59141 0.85004,0.86922 c 1.41355,1.44544 2.60712,2.05227 4.2487,2.1601 l 0.95154,0.0625 v 0.63494 0.63495 h -11.60052 -11.60053 v -0.65003 c 0,-0.46048 0.0372,-0.65003 0.12763,-0.65003 0.54491,0 1.9607,-0.25212 2.60399,-0.46372 2.30513,-0.75822 3.22461,-2.29634 2.53254,-4.23649 -0.20109,-0.56375 -5.95642,-11.63462 -6.14433,-11.81915 -0.0384,-0.0377 -0.8695,0.54678 -1.84684,1.29893 l -1.77696,1.36754 0.0269,9.85158 0.0269,9.85157 0.29331,0.60003 c 0.84172,1.72193 3.21582,2.97558 6.00697,3.172 l 0.40002,0.0281 0.03,0.57503 0.03,0.57503 h -12.55569 -12.55556 z m -8.15037,-13.87069 c 0.968,-0.21102 1.62062,-0.68726 1.96221,-1.43191 0.17273,-0.37655 0.18363,-0.8392 0.18569,-7.88617 l 0.002,-7.48616 -0.45538,0.5065 c -0.62966,0.70033 -1.41463,1.30521 -3.39479,2.61598 -2.64622,1.75166 -3.18324,2.28876 -3.97258,3.97317 -1.33013,2.83842 -0.91219,6.43699 0.97244,8.37298 1.29623,1.33156 2.78203,1.75377 4.70021,1.33561 z m -2.10009,13.5193 c -1.38061,-0.14916 -4.5482,-0.69849 -5.83356,-1.01167 -9.84242,-2.3981 -16.79098,-9.30077 -18.41133,-18.28974 -0.49679,-2.75598 -0.47771,-5.67193 0.0553,-8.45038 2.06832,-10.78159 11.20861,-19.13982 24.3896,-22.30276 3.17507,-0.7619 5.02269,-0.95156 7.35033,-0.75454 4.1397,0.35042 6.68713,1.97332 7.12684,4.54032 0.27326,1.59529 -0.51141,3.22156 -1.89144,3.92012 -0.53878,0.27272 -0.66907,0.29621 -1.64278,0.29621 -1.04099,0 -1.07081,-0.007 -1.90008,-0.41883 -0.46338,-0.23035 -1.16877,-0.69635 -1.56754,-1.03554 -0.69636,-0.59233 -0.92043,-0.89631 -0.55002,-0.74621 0.0962,0.039 0.44738,0.0943 0.78029,0.12281 0.72844,0.0624 1.28207,-0.17233 1.70074,-0.72123 1.0036,-1.31579 0.52271,-2.85064 -1.16037,-3.70352 -1.41371,-0.71638 -4.0759,-0.91206 -6.44589,-0.47379 -5.44197,1.00635 -9.63558,2.83872 -13.05059,5.70237 -6.06356,5.08456 -8.77042,13.15002 -7.29113,21.72487 1.4075,8.1587 6.50305,15.16504 13.41826,18.45004 3.78125,1.79624 8.83623,2.53682 11.22365,1.64432 0.45563,-0.17032 0.75212,-0.37894 1.23202,-0.86686 1.768,-1.79756 1.16194,-3.36946 -1.15976,-3.008 -0.35067,0.0546 -0.66148,0.0754 -0.69067,0.0462 -0.0945,-0.0945 0.54227,-1.10213 0.99509,-1.57462 0.6171,-0.6439 1.37115,-0.99057 2.30895,-1.06149 1.73357,-0.13111 3.37333,0.91911 3.77784,2.41962 0.14032,0.52049 0.0389,1.35745 -0.22778,1.88023 -0.75423,1.47841 -3.59728,2.96626 -6.73571,3.525 -1.05549,0.18791 -4.59229,0.2776 -5.80026,0.14709 z m 41.05186,0.005 c -1.91208,-0.20387 -3.69663,-0.73148 -5.31073,-1.57012 -1.87817,-0.97584 -2.67005,-1.90369 -2.76649,-3.24146 -0.0404,-0.56096 -0.009,-0.73648 0.217,-1.21435 0.32171,-0.68003 0.98192,-1.30878 1.74212,-1.6591 0.49335,-0.22734 0.69905,-0.26151 1.56789,-0.26042 1.19147,0.002 1.68205,0.18072 2.44302,0.89252 0.45434,0.42498 1.26923,1.61827 1.17171,1.7158 -0.0234,0.0234 -0.34521,0.002 -0.71513,-0.0476 -2.43648,-0.32644 -2.95214,1.36177 -0.97406,3.18893 0.69757,0.64436 1.22917,0.85521 2.52954,1.00333 1.97256,0.22468 4.91774,-0.19352 7.54547,-1.07141 8.38875,-2.8026 14.68188,-11.12908 15.86633,-20.99285 0.18455,-1.53692 0.15568,-4.66859 -0.0567,-6.15028 -0.2313,-1.61366 -0.73659,-3.6857 -1.20717,-4.95023 -3.0106,-8.09 -10.1319,-13.31436 -20.16555,-14.79394 -1.2449,-0.18357 -2.17163,-0.19782 -3.25508,-0.05 -1.49872,0.20443 -2.44466,0.56488 -3.17911,1.21136 -0.7645,0.67294 -1.01131,1.45924 -0.75156,2.39436 0.13682,0.49257 0.82012,1.24648 1.26188,1.39227 0.34889,0.11515 1.12919,0.0865 1.63651,-0.06 0.23517,-0.0679 0.22924,-0.05 -0.1,0.30166 -0.56308,0.60147 -1.45176,1.24448 -2.17645,1.57478 -0.93323,0.42535 -2.20307,0.50215 -3.04396,0.18411 -0.78867,-0.29829 -1.4978,-0.96363 -1.90186,-1.7844 -0.30494,-0.61942 -0.32807,-0.73743 -0.32807,-1.67374 0,-0.96259 0.0167,-1.04107 0.37527,-1.76665 0.95119,-1.9246 3.26769,-3.08872 6.73048,-3.3823 1.82673,-0.15487 3.42828,-0.0612 5.33051,0.31183 5.02132,0.98466 9.63699,2.71217 13.46491,5.03955 7.61684,4.63104 12.3693,11.67409 13.26035,19.65155 0.16586,1.48493 0.0612,4.82715 -0.19625,6.26799 -0.85637,4.79232 -3.00724,8.80661 -6.53223,12.19149 -3.30763,3.17614 -7.5326,5.34916 -12.60844,6.48486 -2.52998,0.56607 -4.8802,0.86709 -7.07403,0.90605 -1.12755,0.02 -2.3876,3.8e-4 -2.80012,-0.0436 z m 13.17786,-28.46245 c -1.58174,-0.38343 -2.92164,-1.61398 -3.4873,-3.20272 -0.16084,-0.45172 -0.21077,-0.82886 -0.21077,-1.592 0,-1.55343 0.46713,-2.62416 1.5943,-3.65432 2.67859,-2.44809 7.0492,-1.27438 8.17783,2.19612 0.11606,0.35684 0.17623,0.85478 0.17623,1.4582 0,1.05028 -0.17605,1.70568 -0.6874,2.55911 -1.10424,1.84293 -3.39126,2.76203 -5.56289,2.23561 z m 2.84779,-1.32055 c 0.3438,-0.16222 0.73761,-0.38999 0.87511,-0.50616 l 0.25001,-0.21123 -0.60002,-0.008 -0.60003,-0.008 -0.50002,-0.79826 c -0.67244,-1.07353 -0.98413,-1.35968 -1.57507,-1.44604 l -0.47502,-0.0694 v 1.16141 1.16141 h -0.55003 -0.55003 v -2.75839 -2.75839 l 1.74304,0.0333 c 1.58646,0.0303 1.76836,0.0522 2.02509,0.24372 0.69794,0.52077 0.87272,1.51615 0.39341,2.24043 -0.14395,0.21754 -0.37229,0.42327 -0.5074,0.45718 l -0.24567,0.0617 0.37832,0.51522 c 0.20808,0.28338 0.55497,0.7961 0.77088,1.13938 0.21591,0.34328 0.42325,0.62455 0.46075,0.62503 0.10781,0.002 0.47034,-0.54774 0.69109,-1.04679 0.75192,-1.69984 0.13433,-3.68658 -1.46404,-4.70972 -2.31084,-1.4792 -5.348,-0.20101 -5.90836,2.48654 -0.31906,1.53018 0.33811,3.02975 1.72038,3.92568 1.12588,0.72975 2.48071,0.8292 3.66761,0.26921 z m -0.64721,-4.17987 c 0.2775,-0.19436 0.28763,-0.57899 0.0223,-0.84437 -0.17037,-0.17037 -0.33334,-0.20001 -1.10004,-0.20001 h -0.90004 v 0.60003 0.60003 h 0.87778 c 0.63262,0 0.93987,-0.0435 1.10005,-0.15568 z m -47.97003,-29.206477 c -0.67394,-4.817529 -4.19563,-12.545114 -7.46154,-16.372742 -0.36699,-0.43011 -0.64045,-0.808827 -0.60768,-0.841594 0.0953,-0.09531 2.57303,0.449394 3.58445,0.788006 2.51727,0.842751 3.98777,2.035041 5.01513,4.066282 0.14735,0.291348 0.34484,0.55377 0.43886,0.583161 1.00864,0.315312 1.51163,0.620043 2.28372,1.383566 0.8485,0.839077 1.2153,1.432815 1.68561,2.728526 0.18202,0.501442 0.21316,0.689221 0.12281,0.740538 -0.88028,0.500016 -1.21393,0.979218 -1.21393,1.743465 0,0.647054 0.36604,1.24715 0.93903,1.539468 1.31771,0.672246 2.80595,-0.414826 2.56877,-1.876356 -0.0906,-0.558224 -0.37293,-0.877348 -1.21774,-1.376381 -0.16775,-0.09909 -0.16528,-0.139849 0.0473,-0.778747 0.65305,-1.962402 2.11094,-3.54176 3.69575,-4.003682 l 0.46001,-0.134076 0.25991,-1.099891 c 0.56013,-2.370307 1.48304,-4.668238 2.44595,-6.090069 0.97535,-1.440221 1.35674,-1.63485 1.89435,-0.966726 1.40706,1.748663 2.44754,4.058211 3.19208,7.085427 l 0.27251,1.107994 0.49081,0.125791 c 1.05535,0.270479 2.42593,1.467352 3.07443,2.68479 0.3213,0.603165 0.72052,1.639373 0.72052,1.870146 0,0.06331 -0.20512,0.25968 -0.45582,0.436389 -0.49225,0.346976 -0.83985,0.954253 -0.83985,1.467294 0,0.45655 0.33281,1.091959 0.73102,1.395684 0.61919,0.472281 1.59695,0.466782 2.16616,-0.01217 0.40454,-0.340393 0.69899,-0.93379 0.69695,-1.404521 -0.003,-0.661319 -0.38102,-1.168222 -1.26011,-1.689171 -0.17938,-0.106304 -0.17759,-0.13399 0.052,-0.800037 0.3626,-1.051996 0.78049,-1.779123 1.42967,-2.487585 0.66394,-0.724573 1.50267,-1.279148 2.22694,-1.472474 0.45455,-0.121332 0.50362,-0.16675 0.73465,-0.680041 1.11822,-2.484386 3.5466,-3.992294 7.65294,-4.752109 0.48618,-0.08996 0.90845,-0.139091 0.93836,-0.109177 0.0299,0.02991 -0.2247,0.382158 -0.56581,0.782762 -1.26526,1.485925 -3.25826,4.680007 -4.26663,6.837925 -1.83053,3.917329 -2.88778,7.123992 -3.28591,9.966178 l -0.0665,0.475021 h -14.22936 -14.22937 z"
       style="fill:#b63735;fill-opacity:1;stroke-width:0.100004" />
    <path
       d=""
       id="path24"
       style="fill:#000000;stroke-width:0.264583" />
  </g>
</svg>
