<?xml version="1.0" encoding="UTF-8" standalone="no"?>
<!-- Created with Inkscape (http://www.inkscape.org/) -->

<svg
   width="377.09647mm"
   height="39.727928mm"
   viewBox="0 0 377.09647 39.727928"
   version="1.1"
   id="svg5"
   inkscape:version="1.1.1 (3bf5ae0d25, 2021-09-20)"
   sodipodi:docname="bessons-and-co.svg"
   xmlns:inkscape="http://www.inkscape.org/namespaces/inkscape"
   xmlns:sodipodi="http://sodipodi.sourceforge.net/DTD/sodipodi-0.dtd"
   xmlns="http://www.w3.org/2000/svg"
   xmlns:svg="http://www.w3.org/2000/svg">
  <sodipodi:namedview
     id="namedview7"
     pagecolor="#ffffff"
     bordercolor="#666666"
     borderopacity="1.0"
     inkscape:pageshadow="2"
     inkscape:pageopacity="0.0"
     inkscape:pagecheckerboard="0"
     inkscape:document-units="mm"
     showgrid="false"
     fit-margin-top="0"
     fit-margin-left="0"
     fit-margin-right="0"
     fit-margin-bottom="0"
     inkscape:zoom="0.22645918"
     inkscape:cx="841.2112"
     inkscape:cy="298.06696"
     inkscape:window-width="1920"
     inkscape:window-height="1017"
     inkscape:window-x="-8"
     inkscape:window-y="-8"
     inkscape:window-maximized="1"
     inkscape:current-layer="layer1" />
  <defs
     id="defs2" />
  <g
     inkscape:label="Capa 1"
     inkscape:groupmode="layer"
     id="layer1"
     transform="translate(-16.722179,-84.385251)">
    <g
       aria-label="BESSONS &amp; CO."
       id="text1574"
       style="font-weight:bold;font-size:50.8px;line-height:1.25;font-family:Perpetua;-inkscape-font-specification:'Perpetua Bold';letter-spacing:0px;stroke:#cc0000;stroke-width:2">
      <path
         d="m 38.31007,103.39345 q 2.480468,0.37207 4.216797,1.16582 1.761132,0.76895 2.852539,1.90997 1.11621,1.14101 1.612304,2.57968 0.496094,1.43867 0.496094,3.10059 0,1.93476 -0.694531,3.77031 -0.694532,1.81074 -2.356446,3.22461 -1.661914,1.41387 -4.390429,2.28203 -2.728516,0.84336 -6.821289,0.84336 h -15.50293 v -1.98437 h 4.960938 V 88.212986 h -4.960938 v -1.984375 h 14.882813 q 3.770312,0 6.374804,0.644922 2.604492,0.644922 4.216797,1.785937 1.612305,1.141016 2.306836,2.678906 0.719336,1.537891 0.719336,3.323828 0,1.438672 -0.446484,2.778125 -0.446485,1.314649 -1.413868,2.455664 -0.942578,1.141017 -2.455664,2.009177 -1.488281,0.86817 -3.596679,1.38907 z m -10.790039,16.892 h 5.308203 q 2.604492,0 4.365625,-0.39688 1.785937,-0.42168 2.852539,-1.36426 1.091406,-0.94257 1.562695,-2.45566 0.471289,-1.53789 0.471289,-3.79512 0,-2.03398 -0.446484,-3.47265 -0.42168,-1.46348 -1.612305,-2.40606 -1.16582,-0.94258 -3.249414,-1.38906 -2.058789,-0.44649 -5.357812,-0.44649 h -3.894336 z m 0,-17.71055 h 2.926953 q 2.951758,0 4.960937,-0.37207 2.00918,-0.37207 3.22461,-1.26504 1.215429,-0.89297 1.736328,-2.356445 0.520898,-1.488281 0.520898,-3.695898 0,-1.686719 -0.347265,-2.926954 -0.347266,-1.265039 -1.289844,-2.083593 -0.942578,-0.84336 -2.629297,-1.240235 -1.661914,-0.421679 -4.34082,-0.421679 h -4.7625 z"
         style="font-weight:normal;font-family:'Javanese Text';-inkscape-font-specification:'Javanese Text';fill:#cc0000"
         id="path13430" />
      <path
         d="m 61.874523,102.5749 h 3.249414 q 1.661914,0 2.778125,-0.12402 1.116211,-0.12403 1.785937,-0.69454 0.694532,-0.59531 1.041797,-1.810737 0.347266,-1.240235 0.496094,-3.472656 h 1.761133 V 111.15732 H 71.22589 q -0.124023,-2.25723 -0.42168,-3.54707 -0.297656,-1.31465 -0.967382,-1.98437 -0.669727,-0.66973 -1.810743,-0.84336 -1.116211,-0.17364 -2.902148,-0.17364 h -3.249414 v 15.67657 h 6.573242 q 1.934766,0 3.398242,-0.14883 1.463477,-0.14883 2.554883,-0.54571 1.091406,-0.39687 1.860352,-1.11621 0.79375,-0.71933 1.364257,-1.86035 0.570508,-1.14101 0.967383,-2.77812 0.396875,-1.63711 0.744141,-3.86953 h 1.736328 l -0.496094,12.30312 H 52.076672 v -1.98437 h 4.960937 V 88.212986 H 52.076672 V 86.228611 H 79.95714 l 0.496094,9.946679 h -1.736328 q -0.372071,-2.480468 -0.917774,-4.018359 -0.545703,-1.562695 -1.53789,-2.430859 -0.967383,-0.892969 -2.554883,-1.190625 -1.562696,-0.322461 -3.96875,-0.322461 h -7.863086 z"
         style="font-weight:normal;font-family:'Javanese Text';-inkscape-font-specification:'Javanese Text';fill:#cc0000"
         id="path13432" />
      <path
         d="m 87.175298,111.47978 h 1.736328 q 0.272852,2.82774 1.091407,4.71289 0.818554,1.88516 2.009179,3.00137 1.21543,1.11621 2.753321,1.5875 1.562695,0.44648 3.299023,0.44648 2.083594,0 3.547074,-0.52089 1.48828,-0.5209 2.43086,-1.43868 0.96738,-0.94257 1.38906,-2.23242 0.44648,-1.31465 0.44648,-2.87734 0,-1.93477 -0.64492,-3.175 -0.64492,-1.26504 -1.81074,-2.1332 -1.14102,-0.89297 -2.75332,-1.5379 -1.612307,-0.64492 -3.547072,-1.33945 -1.934766,-0.69453 -3.695899,-1.46347 -1.736328,-0.76895 -3.075781,-1.90997 -1.339453,-1.14101 -2.133203,-2.778121 -0.768945,-1.661914 -0.768945,-4.117578 0,-2.306836 0.74414,-4.216797 0.744141,-1.90996 2.207618,-3.249414 1.463476,-1.364257 3.621484,-2.108398 2.182812,-0.744141 5.060156,-0.744141 1.141012,0 2.356442,0.124024 1.21543,0.09922 2.40606,0.322461 1.21543,0.223242 2.38125,0.545703 1.16582,0.297656 2.20762,0.669726 l 0.29765,9.004102 h -1.73633 q -0.22324,-2.678906 -0.99218,-4.365625 -0.76895,-1.686719 -1.88516,-2.629297 -1.09141,-0.967383 -2.45566,-1.314648 -1.33946,-0.372071 -2.753325,-0.372071 -1.885156,0 -3.274218,0.471289 -1.389063,0.446485 -2.306836,1.314649 -0.917774,0.843359 -1.389063,2.083594 -0.446484,1.215429 -0.446484,2.75332 0,1.835547 0.644922,3.050976 0.644922,1.21543 1.810742,2.108399 1.190625,0.868167 2.827734,1.562697 1.661914,0.66972 3.646288,1.41387 1.81074,0.69453 3.54707,1.48828 1.76113,0.76894 3.12539,1.95957 1.38906,1.16582 2.23242,2.90215 0.84336,1.71152 0.84336,4.2664 0,2.48047 -0.86816,4.41524 -0.84336,1.93476 -2.45566,3.24941 -1.5875,1.31465 -3.89434,2.00918 -2.30684,0.69453 -5.208985,0.69453 -1.265039,0 -2.629297,-0.12402 -1.339453,-0.12403 -2.678906,-0.37207 -1.314648,-0.24805 -2.579688,-0.57051 -1.265039,-0.32246 -2.356445,-0.74414 z"
         style="font-weight:normal;font-family:'Javanese Text';-inkscape-font-specification:'Javanese Text';fill:#cc0000"
         id="path13434" />
      <path
         d="m 115.65108,111.47978 h 1.73633 q 0.27285,2.82774 1.09141,4.71289 0.81855,1.88516 2.00918,3.00137 1.21543,1.11621 2.75332,1.5875 1.56269,0.44648 3.29902,0.44648 2.08359,0 3.54707,-0.52089 1.48828,-0.5209 2.43086,-1.43868 0.96738,-0.94257 1.38906,-2.23242 0.44649,-1.31465 0.44649,-2.87734 0,-1.93477 -0.64493,-3.175 -0.64492,-1.26504 -1.81074,-2.1332 -1.14101,-0.89297 -2.75332,-1.5379 -1.6123,-0.64492 -3.54707,-1.33945 -1.93476,-0.69453 -3.6959,-1.46347 -1.73632,-0.76895 -3.07578,-1.90997 -1.33945,-1.14101 -2.1332,-2.778121 -0.76895,-1.661914 -0.76895,-4.117578 0,-2.306836 0.74414,-4.216797 0.74415,-1.90996 2.20762,-3.249414 1.46348,-1.364257 3.62149,-2.108398 2.18281,-0.744141 5.06015,-0.744141 1.14102,0 2.35645,0.124024 1.21543,0.09922 2.40605,0.322461 1.21543,0.223242 2.38125,0.545703 1.16582,0.297656 2.20762,0.669726 l 0.29766,9.004102 h -1.73633 q -0.22324,-2.678906 -0.99219,-4.365625 -0.76895,-1.686719 -1.88516,-2.629297 -1.0914,-0.967383 -2.45566,-1.314648 -1.33945,-0.372071 -2.75332,-0.372071 -1.88516,0 -3.27422,0.471289 -1.38906,0.446485 -2.30684,1.314649 -0.91777,0.843359 -1.38906,2.083594 -0.44648,1.215429 -0.44648,2.75332 0,1.835547 0.64492,3.050976 0.64492,1.21543 1.81074,2.108399 1.19063,0.868167 2.82774,1.562697 1.66191,0.66972 3.64629,1.41387 1.81074,0.69453 3.54707,1.48828 1.76113,0.76894 3.12539,1.95957 1.38906,1.16582 2.23242,2.90215 0.84336,1.71152 0.84336,4.2664 0,2.48047 -0.86817,4.41524 -0.84336,1.93476 -2.45566,3.24941 -1.5875,1.31465 -3.89434,2.00918 -2.30683,0.69453 -5.20898,0.69453 -1.26504,0 -2.6293,-0.12402 -1.33945,-0.12403 -2.6789,-0.37207 -1.31465,-0.24805 -2.57969,-0.57051 -1.26504,-0.32246 -2.35645,-0.74414 z"
         style="font-weight:normal;font-family:'Javanese Text';-inkscape-font-specification:'Javanese Text';fill:#cc0000"
         id="path13436" />
      <path
         d="m 144.47413,104.58408 q 0,-4.44004 1.19063,-7.98711 1.21543,-3.54707 3.37343,-6.027539 2.15801,-2.505273 5.13458,-3.844726 3.00136,-1.339454 6.57324,-1.339454 3.52226,0 6.39961,1.314649 2.90214,1.289844 4.96093,3.695898 2.05879,2.406055 3.175,5.829102 1.14102,3.423047 1.14102,7.66465 0,4.16719 -1.11621,7.71426 -1.09141,3.52226 -3.175,6.07714 -2.0836,2.55489 -5.10977,3.99356 -3.00136,1.43867 -6.79648,1.43867 -3.57188,0 -6.47402,-1.28984 -2.90215,-1.28985 -4.96094,-3.6959 -2.05879,-2.40606 -3.19981,-5.8291 -1.11621,-3.44785 -1.11621,-7.71426 z m 5.38262,-0.14883 q 0,3.42305 0.34727,6.00274 0.37207,2.55488 1.01699,4.41523 0.66972,1.83555 1.6123,3.05098 0.94258,1.21543 2.1084,1.93476 1.16582,0.71934 2.53008,1.01699 1.36426,0.27286 2.87734,0.27286 1.51309,0 2.87735,-0.27286 1.38906,-0.29765 2.57968,-1.01699 1.19063,-0.74414 2.15801,-1.98437 0.96738,-1.24024 1.63711,-3.12539 0.69453,-1.90996 1.0666,-4.51446 0.37207,-2.62929 0.37207,-6.12675 0,-3.42305 -0.37207,-5.977934 -0.34726,-2.579688 -1.01699,-4.440039 -0.64492,-1.860352 -1.5875,-3.075781 -0.94258,-1.21543 -2.1084,-1.934766 -1.14101,-0.719336 -2.50527,-0.992187 -1.36426,-0.297657 -2.87735,-0.297657 -1.51308,0 -2.90214,0.297657 -1.38907,0.297656 -2.57969,1.016992 -1.19063,0.719336 -2.15801,1.984375 -0.96738,1.240234 -1.66191,3.12539 -0.66973,1.885157 -1.0418,4.514453 -0.37207,2.629297 -0.37207,6.126757 z"
         style="font-weight:normal;font-family:'Javanese Text';-inkscape-font-specification:'Javanese Text';fill:#cc0000"
         id="path13438" />
      <path
         d="m 211.89326,122.64189 h -1.98437 l -21.45606,-33.263084 -0.12402,0.02481 v 30.881844 h 4.46484 v 1.98436 h -11.6582 v -1.98436 h 4.96094 V 88.212986 h -4.96094 v -1.984375 h 11.08769 l 17.31368,26.838669 0.12402,-0.0248 V 88.212986 h -4.96094 v -1.984375 h 12.1543 v 1.984375 h -4.96094 z"
         style="font-weight:normal;font-family:'Javanese Text';-inkscape-font-specification:'Javanese Text';fill:#cc0000"
         id="path13440" />
      <path
         d="m 220.72373,111.47978 h 1.73633 q 0.27285,2.82774 1.0914,4.71289 0.81856,1.88516 2.00918,3.00137 1.21543,1.11621 2.75332,1.5875 1.5627,0.44648 3.29903,0.44648 2.08359,0 3.54707,-0.52089 1.48828,-0.5209 2.43086,-1.43868 0.96738,-0.94257 1.38906,-2.23242 0.44648,-1.31465 0.44648,-2.87734 0,-1.93477 -0.64492,-3.175 -0.64492,-1.26504 -1.81074,-2.1332 -1.14102,-0.89297 -2.75332,-1.5379 -1.61231,-0.64492 -3.54707,-1.33945 -1.93477,-0.69453 -3.6959,-1.46347 -1.73633,-0.76895 -3.07578,-1.90997 -1.33945,-1.14101 -2.1332,-2.778121 -0.76895,-1.661914 -0.76895,-4.117578 0,-2.306836 0.74414,-4.216797 0.74414,-1.90996 2.20762,-3.249414 1.46348,-1.364257 3.62148,-2.108398 2.18282,-0.744141 5.06016,-0.744141 1.14102,0 2.35644,0.124024 1.21543,0.09922 2.40606,0.322461 1.21543,0.223242 2.38125,0.545703 1.16582,0.297656 2.20762,0.669726 l 0.29765,9.004102 h -1.73633 q -0.22324,-2.678906 -0.99218,-4.365625 -0.76895,-1.686719 -1.88516,-2.629297 -1.09141,-0.967383 -2.45566,-1.314648 -1.33946,-0.372071 -2.75332,-0.372071 -1.88516,0 -3.27422,0.471289 -1.38906,0.446485 -2.30684,1.314649 -0.91777,0.843359 -1.38906,2.083594 -0.44648,1.215429 -0.44648,2.75332 0,1.835547 0.64492,3.050976 0.64492,1.21543 1.81074,2.108399 1.19062,0.868167 2.82773,1.562697 1.66192,0.66972 3.64629,1.41387 1.81074,0.69453 3.54707,1.48828 1.76114,0.76894 3.12539,1.95957 1.38907,1.16582 2.23243,2.90215 0.84335,1.71152 0.84335,4.2664 0,2.48047 -0.86816,4.41524 -0.84336,1.93476 -2.45566,3.24941 -1.5875,1.31465 -3.89434,2.00918 -2.30684,0.69453 -5.20898,0.69453 -1.26504,0 -2.6293,-0.12402 -1.33945,-0.12403 -2.67891,-0.37207 -1.31465,-0.24805 -2.57968,-0.57051 -1.26504,-0.32246 -2.35645,-0.74414 z"
         style="font-weight:normal;font-family:'Javanese Text';-inkscape-font-specification:'Javanese Text';fill:#cc0000"
         id="path13442" />
      <path
         d="m 289.8792,122.96435 q -1.98437,0 -3.77031,-0.79375 -1.76113,-0.81855 -3.64629,-2.60449 -1.93477,1.5627 -4.2168,2.48047 -2.25722,0.91777 -4.83691,0.91777 -2.18281,0 -4.2416,-0.69453 -2.05879,-0.69453 -3.6711,-2.00918 -1.5875,-1.31465 -2.57968,-3.1998 -0.96739,-1.90996 -0.96739,-4.31602 0,-2.23242 0.81856,-3.91914 0.81855,-1.68672 2.1084,-2.95176 1.28984,-1.26504 2.87734,-2.18281 1.6123,-0.91777 3.1502,-1.63711 -0.44649,-0.94258 -0.86817,-1.90996 -0.39687,-0.992187 -0.71933,-1.95957 -0.32247,-0.992188 -0.5209,-1.95957 -0.17364,-0.967383 -0.17364,-1.860352 0,-1.612305 0.62012,-3.075781 0.64492,-1.488281 1.76113,-2.604492 1.14102,-1.116211 2.72852,-1.785938 1.5875,-0.669726 3.52227,-0.669726 1.43867,0 2.75332,0.421679 1.33945,0.396875 2.33164,1.240235 1.01699,0.818554 1.6123,2.083594 0.62012,1.240234 0.62012,2.902148 0,1.885156 -0.74414,3.249414 -0.74414,1.339453 -1.98438,2.356445 -1.21543,1.016992 -2.80293,1.835544 -1.56269,0.79375 -3.1998,1.5627 0.74414,1.38906 1.81074,3.175 1.09141,1.76113 2.25723,3.57187 1.16582,1.78594 2.28203,3.39825 1.14101,1.6123 2.00918,2.6789 0.94258,-1.21543 1.71152,-2.55488 0.79375,-1.36426 1.33945,-2.70371 0.57051,-1.36426 0.89297,-2.6541 0.34727,-1.28985 0.42168,-2.43086 h -5.20898 v -1.98438 h 11.98066 v 1.98438 h -4.53926 q -0.47128,3.10058 -1.81074,6.25078 -1.31465,3.12539 -3.37344,5.75469 1.73633,1.90996 3.19981,2.72851 1.46348,0.81856 2.85254,0.81856 1.11621,0 2.23242,-0.44649 1.11621,-0.44648 2.30684,-1.26504 0.34726,0.32246 0.5705,0.62012 0.24805,0.29766 0.5209,0.74414 -1.90996,1.90996 -3.77031,2.6541 -1.83555,0.74414 -3.64629,0.74414 z m -8.88008,-4.98574 q -0.62011,-0.69453 -1.41386,-1.71152 -0.76895,-1.017 -1.63711,-2.23242 -0.84336,-1.21543 -1.71153,-2.55489 -0.86816,-1.36426 -1.68672,-2.6789 -0.79375,-1.33946 -1.51308,-2.57969 -0.69453,-1.24024 -1.19063,-2.25723 -1.0666,0.66973 -1.98437,1.46348 -0.91777,0.79375 -1.5875,1.78594 -0.66973,0.99218 -1.0666,2.23242 -0.37207,1.21543 -0.37207,2.75332 0,2.08359 0.66972,3.64629 0.69453,1.53789 1.78594,2.55488 1.11621,1.01699 2.50527,1.53789 1.41387,0.49609 2.85254,0.49609 1.71153,0 3.29903,-0.66972 1.6123,-0.66973 3.05097,-1.78594 z m 0.22325,-25.176757 q 0,-1.190625 -0.34727,-2.058789 -0.34727,-0.868164 -0.91777,-1.413867 -0.57051,-0.570508 -1.33946,-0.84336 -0.74414,-0.272851 -1.56269,-0.272851 -0.91778,0 -1.73633,0.322461 -0.79375,0.297656 -1.41387,0.892968 -0.59531,0.595313 -0.94258,1.438672 -0.34726,0.84336 -0.34726,1.909961 0,1.314649 0.5457,3.150195 0.57051,1.835547 1.83555,4.316017 1.31465,-0.620118 2.45566,-1.339454 1.14102,-0.719336 1.95957,-1.5875 0.84336,-0.892969 1.31465,-1.984375 0.4961,-1.116211 0.4961,-2.530078 z"
         style="font-weight:normal;font-family:'Javanese Text';-inkscape-font-specification:'Javanese Text';fill:#cc0000"
         id="path13444" />
      <path
         d="m 342.46515,111.47978 -0.34726,9.82266 q -1.19063,0.42168 -2.57969,0.76894 -1.36426,0.32246 -2.77812,0.54571 -1.41387,0.24804 -2.80293,0.37207 -1.36426,0.12402 -2.55489,0.12402 -3.79511,0 -6.84609,-1.28984 -3.02617,-1.28985 -5.15938,-3.6711 -2.10839,-2.40605 -3.24941,-5.8291 -1.11621,-3.42305 -1.11621,-7.71426 0,-4.39043 1.19062,-7.937496 1.19063,-3.54707 3.39825,-6.052344 2.20761,-2.530078 5.333,-3.869531 3.1502,-1.364258 7.01973,-1.364258 1.09141,0 2.30684,0.124024 1.21543,0.09922 2.45566,0.322461 1.26504,0.198437 2.48047,0.496094 1.24023,0.297656 2.38125,0.669726 l 0.29766,9.053711 h -1.73633 q -0.22324,-2.703711 -0.99219,-4.39043 -0.74414,-1.711523 -1.88516,-2.654101 -1.14101,-0.942578 -2.57968,-1.289844 -1.43868,-0.347266 -3.05098,-0.347266 -1.63711,0 -3.10059,0.297657 -1.46347,0.297656 -2.72851,1.041796 -1.24024,0.744141 -2.25723,1.984375 -0.99219,1.240235 -1.68672,3.150196 -0.69453,1.909961 -1.0914,4.539257 -0.37207,2.604493 -0.37207,6.077153 0,3.44785 0.37207,6.02753 0.37207,2.55489 1.04179,4.41524 0.69454,1.86035 1.66192,3.07578 0.99219,1.19063 2.18281,1.90996 1.21543,0.69453 2.6293,0.96738 1.41386,0.27286 2.97656,0.27286 1.88516,0 3.47266,-0.42168 1.6123,-0.44649 2.82773,-1.53789 1.24023,-1.09141 2.03398,-2.95176 0.81856,-1.86035 1.11622,-4.7377 z"
         style="font-weight:normal;font-family:'Javanese Text';-inkscape-font-specification:'Javanese Text';fill:#cc0000"
         id="path13446" />
      <path
         d="m 348.79033,104.58408 q 0,-4.44004 1.19062,-7.98711 1.21543,-3.54707 3.37344,-6.027539 2.15801,-2.505273 5.13457,-3.844726 3.00136,-1.339454 6.57324,-1.339454 3.52227,0 6.39961,1.314649 2.90215,1.289844 4.96094,3.695898 2.05879,2.406055 3.175,5.829102 1.14101,3.423047 1.14101,7.66465 0,4.16719 -1.11621,7.71426 -1.09141,3.52226 -3.175,6.07714 -2.08359,2.55489 -5.10976,3.99356 -3.00137,1.43867 -6.79649,1.43867 -3.57187,0 -6.47402,-1.28984 -2.90215,-1.28985 -4.96094,-3.6959 -2.05879,-2.40606 -3.1998,-5.8291 -1.11621,-3.44785 -1.11621,-7.71426 z m 5.38261,-0.14883 q 0,3.42305 0.34727,6.00274 0.37207,2.55488 1.01699,4.41523 0.66973,1.83555 1.6123,3.05098 0.94258,1.21543 2.1084,1.93476 1.16582,0.71934 2.53008,1.01699 1.36426,0.27286 2.87734,0.27286 1.51309,0 2.87735,-0.27286 1.38906,-0.29765 2.57969,-1.01699 1.19062,-0.74414 2.158,-1.98437 0.96739,-1.24024 1.63711,-3.12539 0.69453,-1.90996 1.0666,-4.51446 0.37208,-2.62929 0.37208,-6.12675 0,-3.42305 -0.37208,-5.977934 -0.34726,-2.579688 -1.01699,-4.440039 -0.64492,-1.860352 -1.5875,-3.075781 -0.94258,-1.21543 -2.1084,-1.934766 -1.14101,-0.719336 -2.50527,-0.992187 -1.36426,-0.297657 -2.87734,-0.297657 -1.51309,0 -2.90215,0.297657 -1.38906,0.297656 -2.57969,1.016992 -1.19062,0.719336 -2.15801,1.984375 -0.96738,1.240234 -1.66191,3.12539 -0.66973,1.885157 -1.0418,4.514453 -0.37207,2.629297 -0.37207,6.126757 z"
         style="font-weight:normal;font-family:'Javanese Text';-inkscape-font-specification:'Javanese Text';fill:#cc0000"
         id="path13448" />
      <path
         d="m 389.2964,122.96435 q -0.74414,0 -1.41387,-0.27285 -0.64492,-0.24805 -1.11621,-0.69453 -0.47129,-0.47129 -0.74414,-1.11621 -0.27285,-0.64492 -0.27285,-1.41387 0,-0.76894 0.27285,-1.41387 0.27285,-0.66972 0.74414,-1.14101 0.49609,-0.47129 1.14102,-0.71934 0.64492,-0.27285 1.38906,-0.27285 0.74414,0 1.36426,0.27285 0.64492,0.24805 1.11621,0.71934 0.49609,0.44648 0.76894,1.0914 0.27285,0.64493 0.27285,1.41387 0,0.79375 -0.27285,1.43867 -0.27285,0.64493 -0.76894,1.11621 -0.47129,0.47129 -1.11621,0.71934 -0.64493,0.27285 -1.36426,0.27285 z"
         style="font-weight:normal;font-family:'Javanese Text';-inkscape-font-specification:'Javanese Text';fill:#cc0000"
         id="path13450" />
    </g>
  </g>
</svg>
