<?xml version="1.0" encoding="UTF-8" standalone="no"?>
<!-- Created with Inkscape (http://www.inkscape.org/) -->

<svg
   width="204.37282mm"
   height="135.87666mm"
   viewBox="0 0 204.37282 135.87666"
   version="1.1"
   id="svg5"
   inkscape:version="1.1.1 (3bf5ae0d25, 2021-09-20)"
   sodipodi:docname="montalvo.svg"
   xmlns:inkscape="http://www.inkscape.org/namespaces/inkscape"
   xmlns:sodipodi="http://sodipodi.sourceforge.net/DTD/sodipodi-0.dtd"
   xmlns="http://www.w3.org/2000/svg"
   xmlns:svg="http://www.w3.org/2000/svg">
  <sodipodi:namedview
     id="namedview7"
     pagecolor="#ffffff"
     bordercolor="#666666"
     borderopacity="1.0"
     inkscape:pageshadow="2"
     inkscape:pageopacity="0.0"
     inkscape:pagecheckerboard="0"
     inkscape:document-units="mm"
     showgrid="false"
     inkscape:snap-global="false"
     fit-margin-top="0"
     fit-margin-left="0"
     fit-margin-right="0"
     fit-margin-bottom="0"
     inkscape:zoom="0.37059484"
     inkscape:cx="1042.9179"
     inkscape:cy="333.24803"
     inkscape:window-width="1920"
     inkscape:window-height="1017"
     inkscape:window-x="-8"
     inkscape:window-y="-8"
     inkscape:window-maximized="1"
     inkscape:current-layer="layer1" />
  <defs
     id="defs2">
    <inkscape:path-effect
       effect="bspline"
       id="path-effect4310"
       is_visible="true"
       lpeversion="1"
       weight="33.333333"
       steps="2"
       helper_size="0"
       apply_no_weight="true"
       apply_with_weight="true"
       only_selected="false" />
    <inkscape:path-effect
       effect="bspline"
       id="path-effect4192"
       is_visible="true"
       lpeversion="1"
       weight="33.333333"
       steps="2"
       helper_size="0"
       apply_no_weight="true"
       apply_with_weight="true"
       only_selected="false" />
    <inkscape:path-effect
       effect="bspline"
       id="path-effect4152"
       is_visible="true"
       lpeversion="1"
       weight="33.333333"
       steps="2"
       helper_size="0"
       apply_no_weight="true"
       apply_with_weight="true"
       only_selected="false" />
    <inkscape:path-effect
       effect="bspline"
       id="path-effect4011"
       is_visible="true"
       lpeversion="1"
       weight="33.333333"
       steps="2"
       helper_size="0"
       apply_no_weight="true"
       apply_with_weight="true"
       only_selected="false" />
    <inkscape:path-effect
       effect="bspline"
       id="path-effect2494"
       is_visible="true"
       lpeversion="1"
       weight="33.333333"
       steps="2"
       helper_size="0"
       apply_no_weight="true"
       apply_with_weight="true"
       only_selected="false" />
    <inkscape:path-effect
       effect="bspline"
       id="path-effect2490"
       is_visible="true"
       lpeversion="1"
       weight="33.333333"
       steps="2"
       helper_size="0"
       apply_no_weight="true"
       apply_with_weight="true"
       only_selected="false" />
    <inkscape:path-effect
       effect="bspline"
       id="path-effect883"
       is_visible="true"
       lpeversion="1"
       weight="33.333333"
       steps="2"
       helper_size="0"
       apply_no_weight="true"
       apply_with_weight="true"
       only_selected="false" />
  </defs>
  <g
     inkscape:label="Capa 1"
     inkscape:groupmode="layer"
     id="layer1"
     transform="translate(-2.8135879,-143.89501)">
    <path
       id="path881"
       style="fill:#000000;stroke:none;stroke-width:0.226293px;stroke-linecap:butt;stroke-linejoin:miter;stroke-opacity:1"
       d="m 116.71627,143.89501 c -0.0212,1.6e-4 -0.0426,7.3e-4 -0.0641,0.002 -0.68702,0.019 -1.50132,0.26084 -2.42381,0.78628 -0.92249,0.52544 -1.95311,1.33434 -2.72171,2.83353 -0.7686,1.49919 -1.27487,3.68811 -1.48461,5.32673 -0.20974,1.63862 -0.12315,2.7267 0.13657,4.04543 0.25972,1.31874 0.69222,2.8682 0.87026,3.82091 0.17804,0.95271 0.10204,1.30893 0.0385,2.01498 -0.0636,0.70606 -0.11458,1.76176 -0.11139,2.71906 0.003,0.9573 0.0606,1.81616 -0.0221,2.28989 -0.0826,0.47374 -0.30551,0.56251 -0.42961,0.6612 -0.1241,0.0987 -0.14924,0.20687 -0.12685,0.30232 0.0224,0.0954 0.0921,0.17825 0.44198,0.20994 0.34985,0.0317 0.97951,0.0124 1.31665,0.009 0.33715,-0.003 0.38174,0.009 0.34342,0.1622 -0.0383,0.15268 -0.15932,0.44546 -0.20375,0.62364 -0.0445,0.17818 -0.0123,0.24153 0.49015,0.1905 0.50252,-0.0511 1.47539,-0.2161 2.49631,0.18474 1.02091,0.40084 2.08957,1.36735 3.00546,2.81762 0.91587,1.45027 1.67935,3.38397 2.06094,4.98685 0.38159,1.60288 0.38136,2.87501 0.076,4.3252 -0.30534,1.45019 -0.91563,3.07844 -2.11133,4.07063 -1.19571,0.9922 -2.97668,1.34834 -4.60499,1.45014 -1.6283,0.1018 -3.10401,-0.0508 -4.22355,-0.78849 -1.11953,-0.73772 -1.88302,-2.0608 -2.44282,-3.74003 -0.55979,-1.67923 -0.91598,-3.71449 -0.89059,-5.31745 0.0254,-1.60297 0.4326,-2.77328 0.71248,-3.68921 0.27987,-0.91592 0.43263,-1.5775 0.15292,-2.06094 -0.27971,-0.48344 -0.99203,-0.7888 -2.31508,-0.83976 -1.32306,-0.051 -3.25689,0.15282 -5.597671,0.83976 -2.34078,0.68694 -5.0883,1.85709 -7.75982,3.30733 -2.67154,1.45024 -5.26677,3.18041 -7.63298,5.16497 -2.36622,1.98456 -4.50355,4.22354 -6.23368,6.33533 -1.73013,2.11177 -3.05285,4.09611 -4.12146,6.13157 -1.0686,2.03546 -1.88293,4.12155 -2.23906,5.31745 -0.35614,1.1959 -0.25435,1.5012 -0.50872,1.29765 -0.25436,-0.20355 -0.86513,-0.9155 -1.19599,-2.51839 -0.33087,-1.6029 -0.38173,-4.09631 0.10165,-6.92052 0.48339,-2.82419 1.50123,-5.9792 3.00236,-8.93062 1.50113,-2.95142 3.48558,-5.69917 5.49557,-8.1417 2.01,-2.44253 4.04531,-4.57964 6.08076,-6.43698 2.03544,-1.85734 4.07081,-3.43485 5.0885,-4.22356 1.01769,-0.7887 1.01771,-0.7884 0.53435,-0.54673 -0.48336,0.24169 -1.44995,0.7249 -2.36591,1.25921 -0.91597,0.5343 -1.78094,1.11932 -3.15485,2.08613 -1.37391,0.96683 -3.25701,2.31548 -5.49601,4.47814 -2.23899,2.16266 -4.83379,5.13929 -6.86924,8.24335 -2.03544,3.10407 -3.51121,6.33529 -4.46531,9.61746 -0.95411,3.28218 -1.38645,6.61506 -1.2592,10.01172 0.12725,3.39665 0.8141,6.85669 2.1626,10.58407 1.3485,3.72737 3.35828,7.72178 5.83899,11.34737 2.48071,3.62559 5.43224,6.88213 8.52356,9.64266 3.09133,2.76052 6.32244,5.02484 9.47736,6.89487 3.15492,1.87003 6.23309,3.34579 9.260791,4.51614 3.02769,1.17035 6.00466,2.03539 8.39627,2.56967 2.39162,0.53427 4.19794,0.73755 6.24606,0.6612 2.04811,-0.0764 4.33788,-0.4324 6.42415,-0.97942 2.08629,-0.54703 3.96895,-1.28471 5.48276,-2.08615 1.51381,-0.80144 2.65899,-1.66648 3.60036,-2.45519 0.94137,-0.78872 1.6791,-1.50098 2.03532,-2.07333 0.3562,-0.57234 0.33081,-1.0049 -0.1653,-0.82694 -0.49613,0.17796 -1.46302,0.96673 -2.69696,1.74273 -1.23395,0.77599 -2.73491,1.53906 -4.4777,2.02249 -1.74277,0.48343 -3.72745,0.6871 -5.57202,0.61082 -1.84458,-0.0763 -3.54933,-0.43249 -5.27945,-0.92861 -1.7301,-0.49609 -3.48541,-1.1321 -4.6558,-1.67907 -1.17039,-0.54698 -1.75568,-1.00495 -1.31047,-1.29765 0.44522,-0.2927 1.92113,-0.42006 3.94378,-1.0307 2.02266,-0.61064 4.59236,-1.7048 6.95852,-2.88788 2.36616,-1.1831 4.52842,-2.45523 6.38571,-3.80368 1.8573,-1.34845 3.40959,-2.77288 5.41955,-5.10088 2.00996,-2.32799 4.47757,-5.55912 6.33489,-8.4723 1.85732,-2.91317 3.10415,-5.5086 3.94378,-8.16733 0.83962,-2.65873 1.2721,-5.38084 1.46295,-7.747 0.19084,-2.36618 0.13998,-4.37617 -0.16531,-6.50063 -0.30527,-2.12446 -0.86501,-4.36338 -2.09895,-7.42923 -1.23394,-3.06585 -3.14222,-6.9584 -5.03768,-10.04972 -1.89546,-3.09132 -3.77795,-5.38105 -5.99146,-7.83629 -2.21352,-2.45524 -4.75787,-5.07576 -6.39678,-6.56825 -1.63889,-1.49249 -2.37241,-1.85693 -3.23395,-2.0751 -0.86154,-0.21815 -1.85112,-0.28995 -2.78668,-0.23601 -0.93555,0.054 -1.81704,0.23399 -2.39508,0.45214 -0.57805,0.21816 -0.85246,0.47455 -1.40108,0.1958 -0.54861,-0.27874 -1.37156,-1.09312 -1.72592,-1.9646 -0.35437,-0.87146 -0.23965,-1.79995 -0.0106,-2.55065 0.22904,-0.75072 0.57251,-1.32347 0.85877,-1.70516 0.28626,-0.38169 0.51529,-0.57233 0.70539,-0.69435 0.19012,-0.12202 0.34085,-0.1754 0.46541,-0.15735 0.12457,0.0181 0.22251,0.10733 0.35005,0.1547 0.12754,0.0474 0.28474,0.0533 0.44861,0.0349 0.16386,-0.0184 0.33456,-0.0611 0.48043,-0.22718 0.14587,-0.16608 0.26702,-0.45576 0.23602,-0.76595 -0.031,-0.31019 -0.21414,-0.64108 -0.5211,-0.81147 -0.30695,-0.1704 -0.73764,-0.17984 -1.03025,-0.007 -0.2926,0.17277 -0.44708,0.52774 -0.7054,0.8623 -0.25831,0.33455 -0.62027,0.64851 -0.99224,1.0855 -0.37196,0.43699 -0.7538,0.99699 -0.95733,1.37234 -0.20353,0.37536 -0.22888,0.56602 -0.29877,0.52154 -0.0699,-0.0445 -0.18456,-0.32453 -0.25459,-0.69347 -0.07,-0.36893 -0.0951,-0.82682 0.007,-1.57742 0.10173,-0.75059 0.33031,-1.79381 0.58473,-2.70977 0.25443,-0.91596 0.53465,-1.70429 0.94363,-2.33145 0.40898,-0.62714 0.94674,-1.09293 1.54471,-1.43643 0.59798,-0.34349 1.25593,-0.56468 1.78207,-0.65633 0.52613,-0.0917 0.92056,-0.0536 1.23224,0.061 0.31167,0.11458 0.54054,0.30517 0.67401,0.54054 0.13348,0.23537 0.17161,0.51555 0.10431,0.69833 -0.0673,0.18277 -0.24035,0.26845 -0.35491,0.42121 -0.11455,0.15276 -0.17053,0.37209 -0.12994,0.57722 0.0406,0.20513 0.17756,0.39593 0.37524,0.51933 0.19768,0.12339 0.45592,0.17965 0.72441,0.14143 0.26847,-0.0382 0.54728,-0.17048 0.72749,-0.36199 0.18022,-0.19149 0.26184,-0.44248 0.22939,-0.66473 -0.0324,-0.22224 -0.17915,-0.41613 -0.34077,-0.53258 -0.16161,-0.11645 -0.33811,-0.15498 -0.50915,-0.39691 -0.17105,-0.24191 -0.3363,-0.6872 -0.69878,-1.01168 -0.35114,-0.31434 -0.88738,-0.51551 -1.54516,-0.51049 z m 0.26519,18.17374 c 0.18447,-0.0287 0.36075,-0.019 0.50385,0.0257 0.28622,0.0892 0.43908,0.31796 0.41988,0.59137 -0.0191,0.27342 -0.21016,0.59144 -0.52817,0.91579 -0.31799,0.32434 -0.76316,0.65498 -1.1129,0.8013 -0.34972,0.14633 -0.60419,0.10851 -0.71246,-0.11403 -0.10827,-0.22254 -0.0702,-0.62962 0.0888,-1.02407 0.15902,-0.39444 0.43899,-0.77639 0.78893,-0.99268 0.17499,-0.10815 0.36757,-0.1747 0.55204,-0.20331 z m -9.83006,35.12275 c 0.75228,2.4e-4 1.49504,0.0316 2.22404,0.0897 2.07361,0.1654 4.03257,0.54702 5.72451,1.29765 1.69195,0.75063 3.11687,1.87024 4.2872,3.1933 0.029,0.0328 0.0535,0.0686 0.0822,0.10165 H 92.884749 c 1.10902,-0.94936 2.35475,-1.7405 3.80765,-2.41718 1.85737,-0.86506 4.045111,-1.55193 6.233231,-1.92084 1.36758,-0.23056 2.73546,-0.33691 4.07505,-0.34386 0.0502,-2.6e-4 0.10056,-4.6e-4 0.15072,-4.4e-4 z m -15.316341,5.67457 h 28.425001 c 0.63177,0.87084 1.13842,1.79124 1.51599,2.70579 H 89.710019 c 0.58714,-0.91519 1.30961,-1.85826 2.12504,-2.70579 z m -2.71287,3.69804 H 122.1283 c 0.25878,0.87003 0.3807,1.74614 0.33812,2.70579 H 88.139229 c 0.11671,-0.73538 0.33574,-1.44901 0.74208,-2.26956 0.0688,-0.1391 0.16236,-0.29146 0.24088,-0.43623 z m -1.07666,3.69803 h 34.317911 c -0.0271,0.18598 -0.038,0.36024 -0.076,0.55469 -0.1304,0.66591 -0.34962,1.397 -0.61391,2.15111 H 88.248419 c -0.15264,-0.8468 -0.21286,-1.58636 -0.21922,-2.25276 -0.002,-0.15826 0.0114,-0.30203 0.0163,-0.45304 z m 0.42518,3.69804 h 32.833741 c -0.36424,0.8754 -0.82897,1.78522 -1.37764,2.7058 H 89.326829 c -0.0986,-0.26154 -0.21369,-0.53715 -0.29922,-0.78584 -0.24106,-0.70087 -0.4129,-1.32617 -0.5569,-1.91996 z m 1.23621,3.69805 h 29.587851 c -0.60755,0.90945 -1.29048,1.81917 -2.08658,2.70579 H 91.001929 c -0.47745,-0.89973 -0.9239,-1.81569 -1.29501,-2.70579 z m 1.8298,3.69803 h 24.699561 c -0.77732,0.77379 -1.60385,1.53015 -2.53563,2.23244 -2.58242,1.94636 -5.76251,3.54937 -8.56113,4.23636 -2.79864,0.68702 -5.215701,0.458 -7.282941,-0.39424 -2.06723,-0.85224 -3.78487,-2.32803 -5.28607,-4.45249 -0.35899,-0.50803 -0.70382,-1.05658 -1.03379,-1.62207 z" />
    <path
       id="path3956"
       style="fill:#000000;stroke:none;stroke-width:0.162649"
       d="m 181.2696,251.85226 c -0.62573,-0.0191 -1.4571,0.77774 -2.5103,2.40677 -1.14047,1.76402 -1.82878,3.26704 -1.85253,4.04396 -0.01,0.31307 -0.11967,1.07172 -0.24442,1.6859 -0.18902,0.93071 -0.19089,1.45268 -0.0115,3.13499 0.25527,2.39408 0.25182,2.81967 -0.0257,3.03603 -0.36585,0.28518 -1.08738,0.36513 -2.00242,0.22231 -1.35588,-0.21165 -1.3935,-0.29532 -1.19494,-2.65476 0.19415,-2.30705 0.19078,-2.31585 -1.07274,-2.96152 -1.0101,-0.5162 -1.17552,-0.52584 -2.18464,-0.12778 l -0.79556,0.31386 -0.90453,-0.44748 c -1.29888,-0.6428 -1.99283,-0.78818 -2.84856,-0.59652 -1.0254,0.22967 -2.20467,0.80581 -2.75372,1.34544 -0.44361,0.43597 -0.4664,0.52501 -0.45886,1.78613 0.005,0.85576 0.0871,1.42027 0.23019,1.58853 0.35636,0.4188 0.70781,1.48253 0.59551,1.80214 -0.10424,0.29659 -1.70155,1.09123 -2.16485,1.07707 -0.24926,-0.007 -0.88686,0.21352 -3.15475,1.09258 -1.06863,0.41422 -1.2555,0.44165 -1.72815,0.25422 -0.70463,-0.27945 -2.01749,-1.73372 -2.02614,-1.45083 -0.0116,0.38065 1.70172,2.36192 2.47772,2.50264 0.6086,0.11036 0.78693,0.0777 1.10364,-0.20211 0.20776,-0.18355 0.57696,-0.32783 0.82023,-0.3204 0.24328,0.007 0.60901,-0.0884 0.81284,-0.21322 0.20382,-0.12481 0.80954,-0.26142 1.34605,-0.30339 0.9291,-0.0727 3.1615,-0.6826 4.13764,-1.13056 0.25098,-0.11517 0.97125,-0.28228 1.60047,-0.37126 0.62921,-0.089 1.51209,-0.22516 1.96195,-0.30237 0.44985,-0.0773 1.02047,-0.17426 1.26805,-0.21584 0.27649,-0.0464 0.60361,0.0319 0.8481,0.20294 0.77299,0.54094 0.28849,1.63974 -0.78714,1.78532 -0.31455,0.0425 -0.76426,0.25056 -0.99938,0.46209 -0.23511,0.21153 -0.61385,0.37885 -0.84151,0.37189 -0.71901,-0.022 -1.45014,0.30078 -1.70041,0.75055 -0.3779,0.6791 -0.7225,0.86194 -1.80138,0.95564 -1.955,0.16976 -2.66066,0.32588 -3.02581,0.66937 -0.20065,0.18874 -0.50729,0.33856 -0.68175,0.33323 -0.17444,-0.005 -0.85135,0.24858 -1.50401,0.56426 l -1.1865,0.57397 -1.76896,-0.10584 c -1.67368,-0.10029 -2.9043,0.053 -2.91378,0.36292 -0.009,0.29412 -1.61983,1.58186 -2.08012,1.66286 -0.27269,0.0481 -0.79577,0.24742 -1.16247,0.44344 -0.36673,0.19603 -0.95876,0.39983 -1.31564,0.45275 -0.35688,0.053 -0.76126,0.18268 -0.89874,0.28845 -0.13747,0.10573 -0.61424,0.35648 -1.05916,0.55721 -0.44493,0.20072 -0.96138,0.55836 -1.1478,0.79477 -0.22737,0.28834 -0.7498,0.56278 -1.58725,0.83346 -1.32112,0.42701 -1.66093,0.60233 -1.66881,0.86021 -0.005,0.17658 1.03566,0.12353 1.98823,-0.10136 0.33356,-0.0788 0.96416,-0.34639 1.40134,-0.59473 0.43721,-0.24834 1.23924,-0.61078 1.78218,-0.80526 0.54293,-0.19448 1.33745,-0.51364 1.76557,-0.70946 0.42815,-0.19583 0.95339,-0.35067 1.16741,-0.34413 0.21404,0.006 0.67798,-0.17151 1.03103,-0.39566 0.35306,-0.22415 0.93722,-0.5019 1.29809,-0.61696 0.36088,-0.11505 0.8088,-0.34367 0.99538,-0.50797 0.42485,-0.37417 1.1286,-0.62152 1.71626,-0.60356 0.24815,0.007 0.89002,-0.18248 1.42626,-0.42203 0.53623,-0.23955 1.45558,-0.58497 2.04292,-0.76773 0.58732,-0.18276 1.37009,-0.4937 1.73958,-0.69087 0.36948,-0.19718 1.22043,-0.48666 1.89102,-0.64335 2.20808,-0.51593 4.98434,-1.29516 5.48853,-1.5406 1.13769,-0.55382 2.92992,-1.15382 4.93223,-1.65104 2.24564,-0.55764 2.98838,-0.84338 4.39859,-1.69213 0.90098,-0.54246 1.54826,-0.62939 3.47348,-0.46754 1.08583,0.0913 2.12704,-0.28104 2.36085,-0.84415 0.45402,-1.09343 0.76874,-2.15675 0.6982,-2.35885 -0.0425,-0.12174 -0.48155,-0.36205 -0.97561,-0.53421 -0.88047,-0.30679 -0.91651,-0.30649 -1.8259,0.01 -0.86364,0.3006 -0.95469,0.30408 -1.31732,0.0503 -0.36715,-0.25693 -0.38123,-0.32982 -0.24316,-1.26824 0.18621,-1.2655 0.45324,-1.9468 1.42804,-3.64218 1.01887,-1.77201 1.45473,-3.01836 1.49299,-4.27043 0.0517,-1.69091 -0.31534,-2.37203 -1.29357,-2.40191 z m -62.0758,1.19471 c -1.17403,-0.0358 -1.73166,0.15103 -2.03746,0.68272 -0.11923,0.2073 -0.50395,0.55472 -0.85502,0.77194 -0.35108,0.21721 -0.63983,0.44918 -0.64186,0.5156 -0.002,0.0664 -0.34517,0.51202 -0.76253,0.99024 -0.41736,0.47823 -0.76091,0.9374 -0.76345,1.02041 -0.0175,0.5724 -1.30907,0.97552 -1.58613,0.49502 -0.0656,-0.11368 -0.10328,-0.8051 -0.0846,-1.53642 0.0432,-1.66536 -0.21625,-2.1156 -1.50491,-2.61081 -0.87162,-0.33496 -0.91307,-0.33647 -2.01048,-0.0751 -0.82174,0.1957 -1.30607,0.42784 -1.81725,0.87092 -0.65112,0.56441 -1.87311,1.04748 -2.60391,1.02933 -0.1683,-0.004 -0.52683,-0.25329 -0.79672,-0.55352 -0.8877,-0.98753 -1.9434,-1.80678 -2.3443,-1.81904 -0.21679,-0.006 -0.55669,0.0945 -0.75535,0.22483 -0.33769,0.22145 -0.36419,0.36124 -0.40462,2.14376 -0.0455,2.0059 -0.21838,2.80722 -0.906831,4.20444 -0.22937,0.46551 -0.41886,0.89908 -0.42132,0.96348 -0.006,0.17817 -1.09159,2.09406 -1.70192,3.00547 -0.67696,1.01089 -0.77803,1.68873 -0.28734,1.92486 0.19364,0.0932 0.43207,0.3305 0.52991,0.52758 0.21316,0.42931 1.42275,1.36626 1.96127,1.51906 0.27566,0.0782 0.48484,0.007 0.739261,-0.24916 0.19517,-0.19706 0.35778,-0.44466 0.36101,-0.55025 0.003,-0.10562 0.30051,-0.54053 0.66072,-0.96634 0.36022,-0.42581 0.79989,-1.03479 0.97704,-1.35331 0.83186,-1.49572 1.11355,-1.88347 1.43556,-1.97495 0.21113,-0.06 0.50393,-0.42527 0.74676,-0.93193 0.52547,-1.09637 1.71235,-2.04174 2.44348,-1.94639 0.68659,0.0895 0.90016,0.47852 0.63797,1.16175 -0.11184,0.29143 -0.29256,0.834 -0.40139,1.20564 -0.12466,0.42573 -0.31471,0.70886 -0.51411,0.76552 -0.35807,0.10168 -1.19445,1.66642 -1.21285,2.26907 -0.0146,0.47909 1.23437,1.95398 1.85679,2.19251 0.23778,0.0911 0.58366,0.11486 0.76879,0.0528 0.18514,-0.0621 1.02827,-0.80045 1.87349,-1.64058 1.31988,-1.31195 1.60051,-1.51825 1.98878,-1.46161 0.33283,0.0486 0.51875,0.21819 0.70467,0.6432 0.13889,0.31749 0.5641,1.28906 0.94504,2.15893 0.48048,1.09713 0.90305,1.78773 1.37974,2.25485 0.86943,0.85197 2.06161,1.6041 2.81318,1.77488 l -10e-6,3.3e-4 c 0.78891,0.17893 1.78603,0.2105 3.38665,0.10667 2.01488,-0.13073 2.98791,-0.87472 3.6282,-2.77434 0.31432,-0.93249 0.35629,-1.68708 0.14291,-2.57605 -0.23662,-0.98587 -0.67626,-1.40384 -1.50255,-1.42909 -0.81463,-0.0249 -1.27509,0.40301 -1.48277,1.37728 -0.38212,1.79254 -0.65143,2.31002 -1.44719,2.78124 -0.70498,0.41746 -0.84945,0.44396 -1.74379,0.31889 -0.53626,-0.075 -1.10008,-0.20591 -1.25318,-0.29096 -0.40253,-0.22364 -0.74314,-1.02785 -0.72243,-1.7056 0.01,-0.3225 -0.0536,-0.91185 -0.14083,-1.30929 -0.13998,-0.6375 -0.11704,-0.78401 0.19474,-1.24564 0.55713,-0.82485 1.22485,-2.01592 1.2303,-2.1948 0.002,-0.0897 0.20986,-0.58012 0.46046,-1.08973 0.43139,-0.87728 1.11605,-1.84178 2.56692,-3.615 0.88409,-1.08053 1.05118,-1.37655 1.07393,-1.90338 0.029,-0.67258 -0.22088,-1.05969 -1.04576,-1.61885 -0.61304,-0.41556 -0.90887,-0.50514 -1.75469,-0.53099 z m 37.90849,1.68527 c -0.28424,-0.002 -0.47921,0.31216 -0.77623,1.10582 -0.20936,0.55941 -0.55145,1.31729 -0.76023,1.68445 -1.40833,2.47687 -1.40264,2.4708 -2.79224,2.89682 -1.04719,0.32106 -1.12014,0.52354 -0.65175,1.80663 0.21929,0.60071 0.44375,1.64844 0.49902,2.32837 0.10477,1.28898 0.24082,1.62044 1.03466,2.52304 0.50902,0.57876 1.54825,1.74179 1.45099,1.3304 -0.22003,-0.93061 -0.81669,-1.89765 0.25103,-2.59101 0.006,-0.16244 0.30024,-0.7561 0.65307,-1.31936 0.85861,-1.37063 1.28938,-1.56103 3.54706,-1.56495 1.56741,-0.002 1.77676,-0.0385 2.00386,-0.34241 0.54711,-0.73245 0.28762,-1.22565 -1.15411,-2.19203 -1.16015,-0.77764 -1.58857,-1.26599 -1.57249,-1.79227 0.0351,-1.1477 -0.79068,-3.41585 -1.36344,-3.74526 -0.13013,-0.0748 -0.24141,-0.11934 -0.34128,-0.12707 -0.01,-6.2e-4 -0.0188,-0.001 -0.0279,-0.001 z M 14.786769,251.77229 c -0.0248,-5.5e-4 -0.0496,-6.2e-4 -0.0743,-6.2e-4 -0.79248,-3.1e-4 -1.56834,0.27296 -2.635327,0.81955 -1.149713,0.58897 -1.549251,0.9003 -2.1966966,1.71271 -0.772759,0.96965 -3.542326,5.86286 -4.151134,7.33407 -0.369835,0.89375 -0.879127,1.37093 -2.001748,1.87534 -0.466262,0.20951 -0.875707,0.46307 -0.909664,0.56337 -0.06888,0.20344 0.698776,1.09189 1.499239,1.73503 0.404549,0.32505 0.564903,0.62535 0.704933,1.32113 0.265622,1.31985 0.676792,2.05454 2.050522,3.66392 1.493826,1.75009 3.0195266,3.15098 4.0909886,3.75647 0.722867,0.40851 0.936372,0.45002 2.263167,0.43878 1.51204,-0.0128 1.4323,0.0114 3.64913,-1.11912 0.58005,-0.29579 1.39619,-1.57007 1.41576,-2.21074 0.0272,-0.89017 -0.79366,-1.52498 -1.27176,-0.98343 -0.11541,0.13071 -0.3354,0.23383 -0.4885,0.22915 -0.15311,-0.005 -0.47909,0.20353 -0.72448,0.46254 -0.24539,0.25903 -0.64951,0.51376 -0.8983,0.56593 -0.24878,0.0522 -0.65734,0.22865 -0.90762,0.39243 -0.57904,0.37893 -1.376922,0.48339 -2.349201,0.30707 -0.649295,-0.11774 -0.917617,-0.29564 -1.763464,-1.16976 l -0.9972936,-1.03098 0.0557,-1.82198 c 0.05188,-1.69862 0.08042,-1.83869 0.424441,-2.06433 0.202988,-0.13312 0.5022006,-0.23796 0.6647006,-0.23299 0.162501,0.005 0.586831,-0.12853 0.942828,-0.29665 0.356009,-0.16813 0.837824,-0.29984 1.070799,-0.29273 0.23298,0.007 0.585908,-0.0685 0.78444,-0.168 0.19853,-0.0995 1.11666,-0.21205 2.04014,-0.2504 0.92348,-0.0384 1.78743,-0.15429 1.9199,-0.25757 0.3314,-0.25836 0.32648,-1.01719 -0.009,-1.33704 -0.42713,-0.40756 -2.26741,-0.88642 -3.07876,-0.80123 -0.47143,0.0494 -0.85757,-0.0112 -1.165912,-0.18278 -0.253611,-0.14112 -0.612663,-0.26122 -0.797853,-0.26688 -0.571918,-0.0175 -0.741716,-0.71434 -0.391117,-1.60583 0.16362,-0.41606 0.300196,-0.85467 0.30343,-0.97472 0.0091,-0.33668 2.124192,-3.27442 2.805962,-3.89723 0.82899,-0.7573 1.40897,-0.97362 3.12487,-1.16533 0.80825,-0.0903 1.52102,-0.23642 1.58412,-0.32504 0.21742,-0.30535 -0.44868,-1.4081 -0.91967,-1.52252 -0.24323,-0.059 -0.69455,-0.22951 -1.00325,-0.37867 -1.09755,-0.53033 -1.89119,-0.804 -2.66021,-0.82086 z m 185.384381,6.46988 -0.6597,0.65237 c -0.78125,0.77252 -0.98617,1.49324 -0.75523,2.65459 0.3332,1.67543 1.4136,3.17491 2.89072,4.01186 0.91777,0.52004 1.35003,0.55986 2.36367,0.21811 1.43916,-0.48523 3.15441,-1.86263 3.17542,-2.55013 0.029,-0.94761 -1.59673,-3.32818 -2.68679,-3.93477 -0.77768,-0.43275 -1.89874,-0.75634 -3.1492,-0.90859 z m -7.2294,0.0467 c -0.16922,-0.003 -0.32982,0.0628 -0.61511,0.18111 -0.80409,0.33343 -1.63136,1.24693 -1.64888,1.82033 -0.007,0.2354 -0.18598,0.67081 -0.39728,0.96771 -0.21127,0.29691 -0.47951,0.73816 -0.59602,0.98071 -0.15128,0.31489 -0.33082,0.43739 -0.62712,0.42834 -0.55531,-0.017 -0.67043,-0.43103 -0.29868,-1.07352 l 0.30365,-0.52435 -0.50127,-0.77842 c -0.5088,-0.79015 -1.22863,-1.25639 -1.97496,-1.2792 -0.26696,-0.009 -0.61408,0.2191 -1.0553,0.69049 -1.05637,1.12864 -1.36609,2.5132 -0.81092,3.62417 0.16519,0.33047 0.40032,0.87676 0.5226,1.21417 0.12637,0.34861 0.44172,0.75611 0.73044,0.944 0.4535,0.29513 2.10308,0.9295 2.96541,1.14039 0.60914,0.14896 0.81137,0.12319 1.71911,-0.21826 1.93532,-0.72797 3.68114,-2.2102 4.60722,-3.9118 0.32222,-0.59204 0.59136,-1.25542 0.59805,-1.47423 0.0207,-0.67713 -0.90472,-1.78682 -1.94256,-2.32926 -0.47021,-0.24577 -0.70554,-0.36865 -0.90481,-0.39633 -0.0249,-0.003 -0.0495,-0.005 -0.0735,-0.006 z m 9.43427,2.58105 c 0.0869,0.002 0.18985,0.0762 0.40953,0.25406 0.33477,0.27098 0.94094,0.78349 1.06251,1.14389 0.12156,0.36041 -0.24152,0.56889 -0.66102,0.5287 -0.41953,-0.0402 -0.8954,-0.32937 -1.16639,-0.59375 -0.271,-0.26438 -0.33693,-0.50411 -0.25215,-0.73489 0.0847,-0.23078 0.32025,-0.45218 0.46965,-0.54819 0.0514,-0.033 0.0924,-0.0512 0.13787,-0.0498 z m -55.83857,-1.24788 c -0.63944,-0.0129 -1.38419,0.23271 -2.46866,0.76299 -1.85803,0.90856 -2.70496,0.94724 -3.69827,0.16891 -1.14814,-0.89965 -1.46677,-0.75423 -2.45611,1.12188 -0.31081,0.5894 -0.32184,0.70601 -0.13333,1.40961 0.2253,0.84087 1.63025,2.87392 2.10014,3.03901 0.38201,0.13422 1.08311,-0.14886 1.84935,-0.74696 0.93979,-0.73356 1.78175,-1.17299 2.2227,-1.15952 0.34428,0.0107 0.49647,0.2267 1.08382,1.53833 0.37585,0.83936 0.85228,1.73305 1.05869,1.9857 0.39532,0.4839 0.78167,0.49059 0.99173,0.0173 0.0655,-0.1477 0.17454,-0.92608 0.24226,-1.72951 0.0796,-0.94394 0.24051,-1.70112 0.45506,-2.14032 0.18259,-0.37381 0.33391,-0.73439 0.33594,-0.80113 0.002,-0.0667 0.21123,-0.50221 0.465,-0.96787 l 0.46129,-0.84689 -0.30908,-0.45281 c -0.17003,-0.24905 -0.6288,-0.6323 -1.01961,-0.85178 -0.37281,-0.20938 -0.72734,-0.32643 -1.11932,-0.34472 -0.0205,-10e-4 -0.0409,-0.002 -0.0616,-0.002 z m -17.2897,0.23067 c -1.48238,-0.0325 -2.37754,0.70959 -2.54289,2.16296 -0.0827,0.72747 -0.0237,1.03104 0.3696,1.89377 0.55287,1.21271 1.91447,2.89605 2.60716,3.22326 1.51279,0.71464 4.23735,-0.14563 5.02979,-1.5883 1.05538,-1.92141 -0.74676,-4.48786 -3.79101,-5.39872 -0.61931,-0.1853 -1.17852,-0.28214 -1.67265,-0.29297 z m -61.115781,-1.14184 c -0.59625,-0.0151 -1.14337,0.068 -1.4569,0.25998 -0.62316,0.38162 -1.13576,1.38877 -1.16315,2.2852 -0.0225,0.73536 -0.2543,1.34767 -0.5867,1.54991 -0.0925,0.0563 -0.41041,0.0552 -0.70645,-0.002 -0.69524,-0.13473 -1.03651,0.13777 -1.05811,0.84487 -0.031,1.01506 0.46862,1.69497 1.26388,1.71927 0.1724,0.005 0.43636,0.16689 0.58623,0.35894 0.14988,0.19206 0.41696,0.41508 0.59349,0.49583 l -1e-5,3.2e-4 c 0.45156,0.20634 2.08437,0.25301 2.60199,0.0741 0.23827,-0.0824 0.72671,-0.37864 1.08547,-0.65842 0.79491,-0.61992 0.85945,-1.12197 0.31172,-2.42183 -0.57323,-1.36043 -0.61423,-1.84128 -0.1909,-2.23951 0.27941,-0.26283 0.42248,-0.29716 0.66213,-0.15932 0.4839,0.2783 0.94961,0.22393 1.15591,-0.13472 0.2711,-0.4714 -0.0993,-1.00332 -1.04981,-1.50742 -0.49188,-0.26089 -1.19547,-0.41803 -1.86246,-0.45705 -0.0626,-0.003 -0.12465,-0.006 -0.18633,-0.007 z m -12.72238,0.0791 c -0.0586,-0.002 -0.11632,-0.002 -0.17287,-6.2e-4 -0.90483,0.0225 -1.55263,0.47977 -2.17468,1.47056 -0.41609,0.66273 -0.42104,0.69874 -0.21257,1.62108 0.24056,1.0643 0.96747,2.69599 1.50705,3.38288 0.19806,0.25213 0.68307,0.68225 1.07746,0.95588 0.57311,0.39764 0.90614,0.5061 1.65941,0.5392 1.21583,0.0535 1.6482,-0.16448 3.27219,-1.64964 1.3814,-1.26331 1.60568,-1.72576 1.04196,-2.14684 -0.16633,-0.12424 -0.37239,-0.51911 -0.45787,-0.87752 -0.25842,-1.08344 -0.86116,-1.84975 -1.90023,-2.41473 -0.52219,-0.28393 -1.15875,-0.52263 -1.41463,-0.53044 -0.25589,-0.007 -0.88546,-0.11199 -1.39899,-0.23154 -0.29842,-0.0695 -0.57222,-0.10951 -0.82623,-0.11805 z m 112.469791,3.86849 c 0.11609,0.003 0.22765,0.01 0.33036,0.0161 0.41086,0.0263 0.68417,0.062 0.62432,0.37123 -0.0599,0.30921 -0.45295,0.89187 -0.8465,1.19998 -0.39355,0.30813 -0.78776,0.34168 -1.17044,0.14254 -0.3827,-0.19913 -0.75382,-0.63139 -0.77108,-0.9659 -0.0173,-0.33452 0.31942,-0.57105 0.76196,-0.68102 0.33191,-0.0825 0.72308,-0.0936 1.07138,-0.0829 z M 47.852109,259.08981 c -0.23271,-0.007 -0.5202,0.0175 -0.91658,0.0613 -0.85163,0.0942 -1.22379,0.22597 -1.66434,0.58957 -0.4898,0.40422 -0.69611,0.46436 -1.50626,0.4396 -0.57369,-0.0175 -1.05885,-0.12502 -1.24727,-0.27679 -0.46195,-0.37214 -2.04563,-0.38738 -2.52309,-0.0243 -0.31994,0.24327 -0.39105,0.45867 -0.43758,1.32911 -0.0397,0.74251 -0.15964,1.19881 -0.42044,1.60044 -0.20067,0.30904 -0.4703,1.1063 -0.5992,1.77166 -0.17729,0.91523 -0.34538,1.32527 -0.69028,1.68405 -0.25077,0.26084 -0.5082,0.63087 -0.57211,0.82221 -0.29973,0.89705 -0.94439,0.84032 -1.5766,-0.13876 -0.24534,-0.37994 -0.59652,-0.68794 -0.87164,-0.76462 -0.2534,-0.0707 -0.63993,-0.25504 -0.85895,-0.40986 -0.21901,-0.15481 -0.73522,-0.45251 -1.14684,-0.66147 -0.41161,-0.20897 -0.8214,-0.52744 -0.91087,-0.70766 -0.1382,-0.27835 -0.0627,-0.41266 0.50242,-0.89267 0.52565,-0.44649 0.66883,-0.6802 0.68208,-1.11411 0.0369,-1.20537 -0.10858,-1.51409 -0.9419,-2.00119 -0.93172,-0.54464 -1.46818,-0.50081 -1.82982,0.14908 -0.45649,0.8203 -1.10434,1.14398 -2.67754,1.33759 -0.59824,0.0736 -0.73686,0.0202 -1.34225,-0.51776 -1.14136,-1.01434 -1.7351,-0.74493 -1.5657,0.71049 0.17091,1.46848 0.0138,1.81968 -0.87634,1.95867 -0.3025,0.0472 -0.65255,0.20263 -0.77777,0.34524 -0.12522,0.14259 -0.54196,0.38741 -0.92592,0.54378 -0.80474,0.32777 -1.03891,0.65352 -1.06416,1.48002 -0.0216,0.70551 0.17734,1.15415 0.6265,1.41248 0.43051,0.24761 2.38474,-0.14327 3.37398,-0.67494 0.81281,-0.43685 2.75858,-1.10056 3.18827,-1.08743 0.3672,0.0112 1.56704,0.45531 2.63234,0.97416 0.44346,0.21597 1.48544,0.64299 2.3156,0.94889 1.27985,0.47161 1.59962,0.53406 2.10289,0.41069 0.82315,-0.20179 0.96653,-0.17997 1.14234,0.17411 0.10381,0.20913 0.0912,0.48553 -0.0385,0.85315 -0.21052,0.59674 -0.46703,1.73791 -0.6584,2.92896 -0.082,0.50976 -0.0577,0.85278 0.0721,1.01925 0.23358,0.29958 1.07052,0.34403 1.57322,0.0837 0.60647,-0.31413 1.66254,-1.80272 3.23961,-4.56731 1.30122,-2.28103 1.69179,-2.5572 2.75595,-1.94828 1.024,0.58593 2.0138,0.59217 3.3222,0.0214 2.04083,-0.89024 3.64951,-3.0888 3.68658,-5.03864 0.0193,-1.01039 -0.29582,-1.86419 -0.69242,-1.87631 -0.10125,-0.003 -0.40525,-0.18231 -0.67559,-0.39854 -0.45033,-0.36018 -0.69574,-0.51286 -1.11133,-0.54406 -0.0311,-0.002 -0.0632,-0.003 -0.0965,-0.005 z m 82.713191,3.27487 c 0.097,0.003 0.20342,0.0341 0.32269,0.1004 0.38168,0.21228 0.89455,0.78439 0.9756,1.30428 0.081,0.51989 -0.26946,0.98767 -0.75425,0.97938 -0.48478,-0.009 -1.1039,-0.49297 -1.31029,-0.93917 -0.20641,-0.4462 1e-5,-0.85378 0.22843,-1.13147 0.15707,-0.19091 0.3245,-0.3202 0.53782,-0.31346 z M 85.930979,261.8558 c -0.34325,-0.01 -0.71454,0.001 -1.11437,0.0336 -1.54973,0.12472 -2.25077,0.42449 -2.26743,0.96969 -0.0132,0.43354 0.68765,1.4326 1.14667,1.63433 0.89583,0.39371 4.29355,0.1977 4.85506,-0.28008 0.47606,-0.40507 0.41768,-1.08971 -0.13497,-1.58434 -0.5307,-0.47496 -1.33025,-0.73085 -2.41669,-0.77116 -0.0226,-6.1e-4 -0.0454,-0.001 -0.0683,-0.002 z m -28.97371,-0.32625 c 0.0807,0.0117 0.16802,0.0421 0.26343,0.0952 0.38169,0.21229 0.89455,0.78439 0.9756,1.30429 0.081,0.51989 -0.26978,0.98766 -0.75456,0.97936 -0.4848,-0.009 -1.1039,-0.49297 -1.31031,-0.93916 -0.20639,-0.4462 3.2e-4,-0.85377 0.22877,-1.13145 0.17134,-0.20827 0.35494,-0.3432 0.59707,-0.30817 z m -11.25935,0.82524 c 0.3429,0.0107 0.57004,0.28535 0.55812,0.67558 -0.002,0.079 -0.23967,0.39555 -0.52683,0.70315 -0.65698,0.70368 -1.30774,0.75607 -1.28781,0.1037 0.0183,-0.59943 0.77901,-1.49699 1.25652,-1.4824 z"
       sodipodi:nodetypes="sssscsssscccsssssssssssssssssssssssssscccsssssssssssssssssssssssscssssssssssssssssscssssssssscssssssscssssssscssssssccssssssssssssssssssssssssscsssssssssssssssssscsssssssssccsssssssssssssssssssscssssssccssssssccssssssssssssssssssssscssssssssssssscccsscssssscssssscsssccsssssssssscsssssssssssssssssssssssssscssscsssssssssssssssssssssscssssssssssssssssssssssssssssssssssssssssssssssss" />
  </g>
</svg>
