<?xml version="1.0" encoding="UTF-8" standalone="no"?>
<!-- Created with Inkscape (http://www.inkscape.org/) -->

<svg
   width="55mm"
   height="40mm"
   viewBox="0 0 55 40"
   version="1.1"
   id="svg8"
   inkscape:version="1.1.1 (3bf5ae0d25, 2021-09-20)"
   sodipodi:docname="nilliet.svg"
   xmlns:inkscape="http://www.inkscape.org/namespaces/inkscape"
   xmlns:sodipodi="http://sodipodi.sourceforge.net/DTD/sodipodi-0.dtd"
   xmlns="http://www.w3.org/2000/svg"
   xmlns:svg="http://www.w3.org/2000/svg"
   xmlns:rdf="http://www.w3.org/1999/02/22-rdf-syntax-ns#"
   xmlns:cc="http://creativecommons.org/ns#"
   xmlns:dc="http://purl.org/dc/elements/1.1/">
  <defs
     id="defs2">
    <inkscape:perspective
       sodipodi:type="inkscape:persp3d"
       inkscape:vp_x="0 : 148.49999 : 1"
       inkscape:vp_y="0 : 999.99994 : 0"
       inkscape:vp_z="210.00001 : 148.49999 : 1"
       inkscape:persp3d-origin="105.00001 : 98.999994 : 1"
       id="perspective1002" />
    <inkscape:path-effect
       effect="bspline"
       id="path-effect94"
       is_visible="true"
       weight="33.333333"
       steps="2"
       helper_size="0"
       apply_no_weight="true"
       apply_with_weight="true"
       only_selected="false" />
    <inkscape:path-effect
       effect="bspline"
       id="path-effect73"
       is_visible="true"
       weight="33.333333"
       steps="2"
       helper_size="0"
       apply_no_weight="true"
       apply_with_weight="true"
       only_selected="false" />
    <inkscape:path-effect
       effect="bspline"
       id="path-effect69"
       is_visible="true"
       weight="33.333333"
       steps="2"
       helper_size="0"
       apply_no_weight="true"
       apply_with_weight="true"
       only_selected="false" />
    <inkscape:path-effect
       effect="bspline"
       id="path-effect65"
       is_visible="true"
       weight="33.333333"
       steps="2"
       helper_size="0"
       apply_no_weight="true"
       apply_with_weight="true"
       only_selected="false" />
    <inkscape:path-effect
       effect="bspline"
       id="path-effect61"
       is_visible="true"
       weight="33.333333"
       steps="2"
       helper_size="0"
       apply_no_weight="true"
       apply_with_weight="true"
       only_selected="false" />
    <inkscape:path-effect
       effect="bspline"
       id="path-effect57"
       is_visible="true"
       weight="33.333333"
       steps="2"
       helper_size="0"
       apply_no_weight="true"
       apply_with_weight="true"
       only_selected="false" />
    <inkscape:path-effect
       effect="bspline"
       id="path-effect53"
       is_visible="true"
       weight="33.333333"
       steps="2"
       helper_size="0"
       apply_no_weight="true"
       apply_with_weight="true"
       only_selected="false" />
    <inkscape:path-effect
       effect="bspline"
       id="path-effect49"
       is_visible="true"
       weight="33.333333"
       steps="2"
       helper_size="0"
       apply_no_weight="true"
       apply_with_weight="true"
       only_selected="false" />
    <inkscape:path-effect
       effect="bspline"
       id="path-effect94-4"
       is_visible="true"
       weight="33.333333"
       steps="2"
       helper_size="0"
       apply_no_weight="true"
       apply_with_weight="true"
       only_selected="false" />
    <inkscape:path-effect
       effect="bspline"
       id="path-effect94-2"
       is_visible="true"
       weight="33.333333"
       steps="2"
       helper_size="0"
       apply_no_weight="true"
       apply_with_weight="true"
       only_selected="false" />
    <inkscape:path-effect
       effect="bspline"
       id="path-effect94-9"
       is_visible="true"
       weight="33.333333"
       steps="2"
       helper_size="0"
       apply_no_weight="true"
       apply_with_weight="true"
       only_selected="false" />
    <inkscape:path-effect
       effect="bspline"
       id="path-effect94-21"
       is_visible="true"
       weight="33.333333"
       steps="2"
       helper_size="0"
       apply_no_weight="true"
       apply_with_weight="true"
       only_selected="false" />
    <inkscape:path-effect
       effect="bspline"
       id="path-effect94-21-3"
       is_visible="true"
       weight="33.333333"
       steps="2"
       helper_size="0"
       apply_no_weight="true"
       apply_with_weight="true"
       only_selected="false" />
    <inkscape:path-effect
       effect="bspline"
       id="path-effect94-9-0"
       is_visible="true"
       weight="33.333333"
       steps="2"
       helper_size="0"
       apply_no_weight="true"
       apply_with_weight="true"
       only_selected="false" />
    <inkscape:path-effect
       effect="bspline"
       id="path-effect94-2-6"
       is_visible="true"
       weight="33.333333"
       steps="2"
       helper_size="0"
       apply_no_weight="true"
       apply_with_weight="true"
       only_selected="false" />
    <inkscape:path-effect
       effect="bspline"
       id="path-effect94-4-4"
       is_visible="true"
       weight="33.333333"
       steps="2"
       helper_size="0"
       apply_no_weight="true"
       apply_with_weight="true"
       only_selected="false" />
    <inkscape:path-effect
       effect="bspline"
       id="path-effect94-94"
       is_visible="true"
       weight="33.333333"
       steps="2"
       helper_size="0"
       apply_no_weight="true"
       apply_with_weight="true"
       only_selected="false" />
  </defs>
  <sodipodi:namedview
     id="base"
     pagecolor="#ffffff"
     bordercolor="#666666"
     borderopacity="1.0"
     inkscape:pageopacity="0.0"
     inkscape:pageshadow="2"
     inkscape:zoom="3.959798"
     inkscape:cx="87.378196"
     inkscape:cy="58.715117"
     inkscape:document-units="mm"
     inkscape:current-layer="g1397"
     showgrid="false"
     inkscape:snap-global="false"
     inkscape:snap-intersection-paths="true"
     fit-margin-top="0"
     fit-margin-left="0"
     fit-margin-right="0"
     fit-margin-bottom="0"
     inkscape:window-width="1920"
     inkscape:window-height="1017"
     inkscape:window-x="1272"
     inkscape:window-y="-8"
     inkscape:window-maximized="1"
     inkscape:pagecheckerboard="0" />
  <metadata
     id="metadata5">
    <rdf:RDF>
      <cc:Work
         rdf:about="">
        <dc:format>image/svg+xml</dc:format>
        <dc:type
           rdf:resource="http://purl.org/dc/dcmitype/StillImage" />
        <dc:title />
      </cc:Work>
    </rdf:RDF>
  </metadata>
  <g
     inkscape:label="Capa 1"
     inkscape:groupmode="layer"
     id="layer1"
     transform="translate(201.79836,-67.558044)">
    <g
       id="g1397">
      <circle
         r="19.5"
         cy="87.558044"
         cx="-174.29836"
         id="path180-6"
         style="opacity:1;fill:#ffffff;fill-opacity:1;stroke:#000000;stroke-width:0.5;stroke-linecap:square;stroke-linejoin:miter;stroke-miterlimit:4;stroke-dasharray:none;stroke-dashoffset:0;stroke-opacity:1;paint-order:fill markers stroke" />
      <path
         inkscape:connector-curvature="0"
         id="path1354"
         d="m -175.67574,103.82135 c -0.43633,-0.0284 -0.79822,-0.0563 -0.80421,-0.0618 -0.006,-0.006 0.017,-0.47985 0.051,-1.05401 l 0.0618,-1.04394 0.17822,0.003 c 0.098,0.002 0.47175,0.0215 0.83051,0.0441 l 0.65228,0.0411 0.0112,0.13604 0.0112,0.13604 -0.55768,-0.0289 c -0.30673,-0.0159 -0.62115,-0.0296 -0.69872,-0.0303 l -0.14103,-0.001 -0.0101,0.30394 -0.0101,0.30393 0.53901,0.0237 c 0.74166,0.0326 0.73932,0.032 0.72604,0.1914 -0.01,0.11844 -0.0194,0.12868 -0.11653,0.1252 -0.0582,-0.002 -0.34531,-0.0158 -0.63808,-0.0305 l -0.53231,-0.0267 -0.0227,0.18913 c -0.0125,0.10402 -0.0229,0.24643 -0.023,0.31648 l -3.2e-4,0.12736 0.25562,0.0215 c 0.1406,0.0118 0.44999,0.0321 0.68755,0.0451 l 0.43192,0.0236 v 0.15367 c 0,0.10205 -0.0148,0.15202 -0.0441,0.14875 -0.0242,-0.003 -0.40106,-0.0282 -0.83739,-0.0566 z m 1.79552,0.0573 c -0.0385,-0.1931 -0.23218,-2.06526 -0.21533,-2.0812 0.0342,-0.0324 0.98678,-0.13591 1.24971,-0.13584 0.41258,1e-4 0.62545,0.19527 0.62545,0.57344 0,0.19624 -0.009,0.21944 -0.13222,0.34262 l -0.13222,0.13212 0.10578,0.0312 c 0.13298,0.0392 0.20653,0.18455 0.28347,0.56008 0.0318,0.15514 0.0733,0.30078 0.0921,0.32365 0.0252,0.0305 -0.01,0.0482 -0.13046,0.0663 -0.197,0.0295 -0.20593,0.0194 -0.26451,-0.29936 -0.0234,-0.12739 -0.0635,-0.28314 -0.0891,-0.34612 -0.0751,-0.18479 -0.15811,-0.20248 -0.70322,-0.14986 -0.26282,0.0254 -0.48299,0.0556 -0.48926,0.0671 -0.006,0.0115 0.0114,0.20882 0.0393,0.4384 0.0279,0.22959 0.0435,0.42463 0.0347,0.43343 -0.0212,0.0212 -0.27079,0.0613 -0.27422,0.044 z m 0.66828,-1.24836 c 0.58052,-0.0719 0.70948,-0.14413 0.70948,-0.39752 0,-0.1496 -0.11637,-0.27902 -0.27339,-0.30405 -0.11946,-0.0191 -0.98386,0.0578 -1.00928,0.0897 -0.0299,0.0375 0.0634,0.6656 0.0988,0.6656 0.0221,0 0.23553,-0.0242 0.47441,-0.0538 z m 1.84788,-0.1503 c -0.13897,-0.5568 -0.2415,-1.02369 -0.22785,-1.03754 0.0136,-0.0138 0.0787,-0.0297 0.14464,-0.0353 l 0.11983,-0.0101 0.25417,1.01275 c 0.22046,0.87839 0.24659,1.01478 0.197,1.02804 -0.0315,0.008 -0.0972,0.0241 -0.14615,0.0349 l -0.089,0.0196 z m -7.58503,0.77878 c -0.064,-0.0126 -0.0783,-0.0334 -0.0638,-0.0928 0.0102,-0.0421 0.11679,-0.50486 0.23675,-1.02845 0.11996,-0.5236 0.22174,-0.95631 0.22619,-0.9616 0.022,-0.0261 1.1145,0.25709 1.2523,0.32457 0.21621,0.10588 0.31733,0.26322 0.31733,0.49373 0,0.21221 -0.1103,0.45653 -0.253,0.56044 -0.14939,0.10878 -0.38703,0.11139 -0.82866,0.009 -0.21676,-0.0502 -0.4153,-0.0913 -0.44119,-0.0913 -0.0312,0 -0.0767,0.13338 -0.1353,0.39666 -0.0941,0.42326 -0.10043,0.43116 -0.31063,0.38961 z m 1.57618,-0.97513 c 0.1084,-0.11538 0.13579,-0.31385 0.0594,-0.43043 -0.075,-0.1144 -0.21005,-0.17152 -0.6536,-0.27635 l -0.34928,-0.0825 -0.0724,0.30835 c -0.0398,0.16959 -0.0724,0.33161 -0.0724,0.36004 0,0.0653 0.5321,0.19676 0.81361,0.20103 0.16318,0.002 0.20986,-0.0111 0.27465,-0.0801 z m 7.80904,0.6814 c -0.50475,-0.10116 -0.86648,-0.57636 -0.87146,-1.14482 -0.004,-0.43614 0.21139,-0.74148 0.68051,-0.96552 0.24237,-0.11575 0.2946,-0.12746 0.56668,-0.12708 0.24231,3.5e-4 0.32821,0.0156 0.44861,0.0796 0.31605,0.16799 0.5323,0.4844 0.60959,0.89198 0.0478,0.25191 -0.006,0.50974 -0.15272,0.72891 -0.24393,0.36498 -0.85709,0.62196 -1.28121,0.53696 z m 0.64049,-0.38127 c 0.47899,-0.22661 0.61576,-0.60111 0.40147,-1.09926 -0.14519,-0.3375 -0.44794,-0.52151 -0.78473,-0.47694 -0.64179,0.0849 -0.9733,0.56734 -0.76557,1.11405 0.19906,0.52386 0.64185,0.70199 1.14883,0.46215 z m -11.81244,0.0369 c -0.41086,-0.14207 -0.69278,-0.39542 -0.74403,-0.66863 -0.0352,-0.18753 0.0307,-0.41031 0.32325,-1.09389 0.14657,-0.34241 0.27207,-0.62815 0.27889,-0.63496 0.01,-0.01 0.21996,0.0841 0.25726,0.11513 0.005,0.004 -0.11001,0.28835 -0.25562,0.6315 -0.22292,0.5253 -0.26476,0.65488 -0.26476,0.81988 0,0.24708 0.0772,0.36265 0.32449,0.48589 0.1276,0.0636 0.23953,0.0912 0.36987,0.0912 0.16454,0 0.20346,-0.015 0.32532,-0.12505 0.11418,-0.10316 0.18312,-0.23126 0.39375,-0.73162 0.14043,-0.33361 0.26843,-0.62148 0.28443,-0.63971 0.0178,-0.0203 0.0774,-0.0101 0.15346,0.0262 0.12313,0.0587 0.12388,0.0604 0.0761,0.17417 -0.35191,0.83814 -0.54904,1.25946 -0.6352,1.35759 -0.21947,0.24996 -0.52751,0.31675 -0.88723,0.19236 z m 13.65037,-0.82576 c -0.0655,-0.10241 -0.31951,-0.49373 -0.5644,-0.8696 -0.2449,-0.37588 -0.44491,-0.6932 -0.44446,-0.70518 0.001,-0.0282 0.88527,-0.596913 1.08909,-0.7005 0.30154,-0.153245 0.61377,-0.08193 0.77361,0.176705 0.10764,0.174168 0.12614,0.309315 0.063,0.460395 l -0.0542,0.12978 0.13042,7.8e-4 c 0.15885,9.5e-4 0.22148,0.0504 0.47908,0.37825 0.11047,0.14059 0.21958,0.25562 0.24246,0.25562 0.0404,0 0.003,0.0304 -0.19101,0.15506 l -0.0935,0.0601 -0.17046,-0.22217 c -0.36483,-0.47546 -0.39975,-0.48005 -0.9536,-0.12527 -0.21942,0.14056 -0.39895,0.2693 -0.39895,0.2861 0,0.0168 0.10474,0.19039 0.23276,0.38577 0.21983,0.33551 0.22913,0.35795 0.16747,0.40403 -0.17193,0.12853 -0.18179,0.12629 -0.30728,-0.0699 z m 0.47546,-1.44174 c 0.17209,-0.13567 0.23031,-0.27852 0.17144,-0.420655 -0.0852,-0.205789 -0.28237,-0.265495 -0.50361,-0.152533 -0.14977,0.07647 -0.76512,0.474148 -0.76512,0.494468 0,0.009 0.0804,0.14138 0.17879,0.29467 l 0.17879,0.27872 0.30602,-0.19701 c 0.16831,-0.10835 0.36347,-0.2423 0.43369,-0.29766 z m -16.21074,1.09509 c -0.21318,-0.0416 -0.46547,-0.18006 -0.68054,-0.37343 -0.308,-0.27692 -0.38702,-0.54737 -0.24887,-0.85177 0.0727,-0.16029 0.0878,-0.1622 0.26046,-0.0332 0.059,0.0441 0.0616,0.064 0.0237,0.179 -0.0239,0.0725 -0.032,0.17795 -0.0185,0.23983 0.0516,0.23508 0.50134,0.55924 0.77583,0.55924 0.16419,0 0.29848,-0.1289 0.29848,-0.28649 0,-0.0974 -0.0494,-0.16109 -0.3499,-0.45116 -0.19244,-0.18575 -0.38278,-0.39327 -0.42297,-0.461142 -0.14315,-0.241751 -0.0685,-0.531927 0.185,-0.719561 0.15229,-0.112706 0.47689,-0.100418 0.7289,0.02759 0.52323,0.265787 0.7355,0.629188 0.58206,0.996443 l -0.0526,0.12591 -0.11487,-0.0728 c -0.10787,-0.0684 -0.11415,-0.0835 -0.10307,-0.24704 0.0108,-0.158792 3.5e-4,-0.18689 -0.11774,-0.317599 -0.17585,-0.194636 -0.47031,-0.337287 -0.63317,-0.306735 -0.0675,0.01266 -0.14696,0.05765 -0.1766,0.09998 -0.10705,0.152828 -0.0704,0.225895 0.31316,0.623764 0.20188,0.20944 0.39387,0.43263 0.42663,0.49599 0.17142,0.33148 -0.0546,0.70678 -0.47637,0.79113 -0.0291,0.006 -0.11865,-0.002 -0.19903,-0.018 z m 15.53655,-26.059015 c -0.35875,-0.210027 -0.66631,-0.386844 -0.68345,-0.392925 -0.0231,-0.0082 0.9449,-1.730031 1.02383,-1.821235 0.0311,-0.0359 0.26464,0.108304 0.24755,0.152842 -0.01,0.02612 -0.20987,0.376485 -0.44411,0.778596 -0.23424,0.402112 -0.42589,0.743622 -0.42589,0.758913 0,0.01529 0.18643,0.135453 0.41429,0.267028 0.6791,0.392138 0.6847,0.396164 0.64681,0.465075 -0.1064,0.193496 -0.0812,0.200234 -0.77903,-0.208294 z m -14.21663,-0.460434 c -0.10431,-0.065 -0.30994,-0.286838 -0.30994,-0.334379 0,-0.0055 0.0625,-0.04195 0.1389,-0.08092 l 0.1389,-0.07086 0.0717,0.100747 c 0.0394,0.05541 0.12017,0.120808 0.17936,0.145326 0.27284,0.113013 0.84931,-0.135486 0.95418,-0.411315 0.0695,-0.182847 -0.057,-0.364383 -0.25405,-0.364383 -0.0523,0 -0.26694,0.04149 -0.47696,0.09219 -0.46879,0.113183 -0.66637,0.120167 -0.82159,0.02904 -0.22721,-0.133387 -0.31588,-0.478374 -0.19073,-0.7421 0.16174,-0.340859 0.85748,-0.630313 1.22415,-0.509299 0.11392,0.03759 0.34067,0.246538 0.34067,0.31391 0,0.01513 -0.0569,0.05464 -0.12645,0.0878 -0.12517,0.05969 -0.12715,0.05941 -0.19545,-0.02742 -0.0951,-0.120924 -0.27864,-0.149231 -0.50496,-0.07789 -0.21242,0.06696 -0.45997,0.264658 -0.4922,0.393078 -0.0225,0.0897 0.0263,0.224064 0.0991,0.272659 0.0719,0.04804 0.31882,0.0262 0.69108,-0.06116 0.42539,-0.09982 0.55667,-0.10719 0.71512,-0.04012 0.15779,0.06678 0.24071,0.170987 0.28975,0.364131 0.0603,0.237481 0.007,0.411198 -0.1847,0.602986 -0.33826,0.338261 -0.99339,0.500259 -1.28592,0.317978 z m 12.80842,-0.256674 c -0.14151,-0.04804 -0.13168,-0.02297 -0.161,-0.410639 l -0.023,-0.303809 -0.49429,-0.184296 -0.49429,-0.184296 -0.11115,0.0997 c -0.0611,0.05484 -0.17462,0.158661 -0.25219,0.230723 l -0.14103,0.131021 -0.13658,-0.06053 -0.13658,-0.06053 0.83391,-0.806872 0.83391,-0.806872 0.14381,0.04746 c 0.0791,0.0261 0.14907,0.0642 0.15551,0.08465 0.021,0.0669 0.12875,2.07977 0.11632,2.173826 -0.0116,0.08807 -0.0168,0.09003 -0.13338,0.05046 z m -0.21781,-1.29681 c -0.002,-0.140594 -0.0142,-0.355249 -0.0264,-0.477012 l -0.0223,-0.221386 -0.34633,0.347992 -0.34634,0.347992 0.32871,0.126639 c 0.18078,0.06965 0.34853,0.127711 0.37277,0.12902 0.0318,0.0017 0.0429,-0.06892 0.04,-0.253245 z m -10.46604,-0.18582 c -0.14234,-0.553071 -0.24906,-1.015321 -0.23716,-1.027222 0.0501,-0.05013 1.0788,-0.29391 1.24092,-0.29408 0.33334,-3.49e-4 0.54956,0.205549 0.59985,0.571213 0.05,0.363298 -0.172,0.559911 -0.82497,0.730729 -0.22047,0.05768 -0.4091,0.113115 -0.41918,0.123195 -0.0101,0.01008 0.0301,0.20086 0.0893,0.423955 l 0.10766,0.405627 -0.12921,0.03589 c -0.0711,0.01974 -0.13803,0.03597 -0.14882,0.03608 -0.0108,1.09e-4 -0.13607,-0.452317 -0.27842,-1.005388 z m 0.65959,-0.245546 c 0.3683,-0.09867 0.58892,-0.199513 0.62134,-0.284004 0.0616,-0.160394 -0.0182,-0.441899 -0.13826,-0.487967 -0.10741,-0.04121 -0.31583,-0.02175 -0.66081,0.06173 -0.18979,0.04592 -0.35322,0.09165 -0.3632,0.101624 -0.0151,0.01506 0.0927,0.50192 0.14438,0.652141 0.0199,0.05774 0.0177,0.05798 0.39655,-0.04352 z m 7.28077,0.87366 c -0.0436,-0.0084 -0.0793,-0.03472 -0.0793,-0.05848 0,-0.04793 0.45625,-2.006538 0.47081,-2.021092 0.0223,-0.02235 0.26963,0.06627 0.26963,0.09663 0,0.02594 -0.24922,1.115788 -0.44099,1.928493 -0.0185,0.07849 -0.0521,0.0868 -0.22011,0.05445 z m -5.33288,-0.231469 c 0,-0.02464 -0.0396,-0.495424 -0.088,-1.046186 -0.0484,-0.550762 -0.0841,-1.004821 -0.0793,-1.009021 0.0196,-0.01738 1.6327,-0.1461 1.65698,-0.132231 0.0145,0.0083 0.0264,0.0679 0.0264,0.132425 0,0.138119 0.0228,0.132668 -0.83559,0.199496 l -0.5359,0.04172 0.0181,0.23294 c 0.0301,0.387725 0.0342,0.397052 0.16445,0.37649 0.0625,-0.0099 0.34125,-0.03662 0.61954,-0.05946 0.55498,-0.04556 0.56778,-0.0421 0.56887,0.15391 4.6e-4,0.08208 -0.0143,0.09717 -0.0964,0.09832 -0.15573,0.0022 -1.17662,0.09672 -1.18749,0.109978 -0.0143,0.01738 0.0466,0.601838 0.0646,0.619781 0.008,0.0083 0.30347,-0.01007 0.65602,-0.04072 0.35255,-0.03065 0.66331,-0.05574 0.69057,-0.05574 0.0342,0 0.0496,0.04302 0.0496,0.138498 v 0.138498 l -0.18511,0.0213 c -0.22941,0.02639 -1.36138,0.123788 -1.44561,0.124379 -0.0339,2.39e-4 -0.0617,-0.01973 -0.0617,-0.04437 z m 3.16002,-0.04816 c -0.32041,-0.0984 -0.55761,-0.297519 -0.68184,-0.572392 -0.0401,-0.08866 -0.0583,-0.230845 -0.0594,-0.462921 -0.001,-0.295752 0.01,-0.358406 0.0958,-0.535293 0.11043,-0.227163 0.28154,-0.39309 0.51586,-0.500251 0.24929,-0.114009 0.76307,-0.105818 1.0245,0.01633 0.31901,0.149056 0.50325,0.37181 0.55016,0.665188 l 0.0235,0.147001 -0.14938,-0.01108 c -0.13849,-0.01027 -0.1528,-0.02105 -0.19616,-0.147716 -0.12602,-0.368196 -0.5768,-0.562986 -1.02165,-0.441473 -0.32315,0.08827 -0.51018,0.345473 -0.53855,0.740599 -0.037,0.515307 0.23515,0.827563 0.7578,0.869516 0.35707,0.02866 0.65466,-0.125323 0.77022,-0.398541 0.0418,-0.09872 0.0565,-0.105888 0.19181,-0.09299 0.13845,0.0132 0.1453,0.01913 0.1237,0.106966 -0.0659,0.26806 -0.30848,0.517441 -0.60679,0.623846 -0.17632,0.06289 -0.58395,0.05943 -0.7996,-0.0068 z"
         style="fill:#080808;stroke-width:1" />
      <rect
         y="67.558044"
         x="-201.79836"
         height="40"
         width="55"
         id="rect1283"
         style="opacity:1;fill:none;fill-opacity:0.80303034;stroke:none;stroke-width:0.26499999;stroke-linecap:round;stroke-linejoin:miter;stroke-miterlimit:4;stroke-dasharray:none;stroke-dashoffset:0;stroke-opacity:1;paint-order:fill markers stroke" />
      <circle
         r="17"
         cy="87.610115"
         cx="-174.53943"
         id="path180"
         style="opacity:1;fill:none;fill-opacity:0.80303034;stroke:#000000;stroke-width:0.5;stroke-linecap:square;stroke-linejoin:miter;stroke-miterlimit:4;stroke-dasharray:none;stroke-dashoffset:0;stroke-opacity:1;paint-order:fill markers stroke" />
      <path
         inkscape:path-effect="#path-effect49"
         sodipodi:nodetypes="ccccccccccccccccccccc"
         inkscape:original-d="m -198.85461,76.029344 c 0.67739,0.500086 1.35532,1.044977 2.0326,1.567869 0.65667,0.589526 1.31316,1.179378 1.96934,1.769473 0.65907,0.723155 1.36243,1.445815 2.04326,2.169128 0.45984,0.793542 0.91942,1.587321 1.37874,2.381386 0.41811,0.950304 0.83585,1.900661 1.2534,2.851398 0.28251,0.841333 0.56469,1.682706 0.84664,2.524464 0.10119,0.675973 0.20207,1.351926 0.30271,2.028298 0.0872,-0.312115 0.17403,-0.623962 0.26064,-0.935541 0.31915,-0.685346 0.63803,-1.370448 0.95665,-2.05527 0.32465,-0.540343 0.6494,-1.081013 0.9737,-1.621114 0.26349,-0.331189 0.52701,-0.662498 0.79012,-0.993348 0.28,-0.02827 0.55972,-0.05628 0.8392,-0.08402 0.21106,0.123114 0.42183,0.246476 0.63236,0.370118 0.20907,0.508041 0.41786,1.016304 0.6264,1.524861 0.19695,0.662085 0.39352,1.324073 0.58994,1.9867 0.11905,0.351605 0.23775,0.703227 0.35628,1.055405 0.23471,0.135054 0.46899,0.270283 0.7031,0.405828 0.24829,0.01255 0.49631,0.02537 0.74406,0.03845 0.34433,-0.111708 0.68839,-0.223154 1.03219,-0.334334 0.81013,-0.537332 1.62,-1.0744 2.42961,-1.611209"
         inkscape:connector-curvature="0"
         id="path47"
         d="m -198.85461,76.029344 c 0.66654,0.514146 1.3551,1.045268 2.02206,1.60147 0.66696,0.556201 1.32345,1.146059 1.98706,1.797022 0.66361,0.650963 1.35498,1.38492 1.9253,2.143308 0.57032,0.758388 1.02989,1.552171 1.4686,2.424336 0.43871,0.872164 0.85646,1.822517 1.20649,2.718537 0.35003,0.896019 0.6322,1.737394 0.82378,2.496228 0.19158,0.758835 0.29246,1.434787 0.38642,1.616862 0.094,0.182075 0.18083,-0.12976 0.38374,-0.628225 0.20291,-0.498465 0.5218,-1.183564 0.84345,-1.796142 0.32166,-0.612578 0.6464,-1.15325 0.94032,-1.588886 0.29391,-0.435637 0.55744,-0.766942 0.82902,-0.946372 0.27158,-0.179431 0.5513,-0.207436 0.79647,-0.159713 0.24517,0.04772 0.45594,0.171087 0.66567,0.486837 0.20973,0.31575 0.41852,0.824013 0.62127,1.409317 0.20274,0.585303 0.39931,1.24729 0.55705,1.754413 0.15773,0.507123 0.27643,0.858745 0.45312,1.102465 0.17669,0.243719 0.41097,0.378946 0.65225,0.452977 0.24129,0.07403 0.48931,0.08685 0.78538,0.03748 0.29607,-0.04937 0.64013,-0.160816 1.21709,-0.485122 0.57696,-0.324306 1.38683,-0.861375 2.1964,-1.398245"
         style="fill:none;stroke:#000000;stroke-width:1;stroke-linecap:round;stroke-linejoin:miter;stroke-miterlimit:4;stroke-dasharray:none;stroke-opacity:1" />
      <path
         inkscape:path-effect="#path-effect53"
         sodipodi:nodetypes="ccccccccccc"
         inkscape:original-d="m -179.28242,86.239 c 0.01,0.757771 0.0196,1.515814 0.029,2.274127 0.0879,0.544206 0.17547,1.088149 0.26282,1.632629 0.38451,0.304916 0.76844,0.609851 1.15227,0.91518 0.29648,0.04412 0.59275,0.0885 0.88873,0.133149 0.29317,-0.110772 0.58606,-0.221278 0.8787,-0.331521 0.31923,-0.206165 0.63896,-0.412549 0.95805,-0.618421 0.0521,-0.212607 0.10411,-0.425352 0.15578,-0.637622 -0.0961,-3.557449 -0.19281,-7.125155 -0.28954,-10.68733 -0.0453,-0.689966 -0.0909,-1.379763 -0.13688,-2.069238 -0.16247,-0.38767 -0.32532,-0.775347 -0.48838,-1.162614"
         inkscape:connector-curvature="0"
         id="path51"
         d="m -179.28242,86.239 c 0.01,0.757775 0.0193,1.515817 0.068,2.167098 0.0486,0.651281 0.13621,1.195225 0.37217,1.620046 0.23596,0.424821 0.61989,0.729755 0.96014,0.904479 0.34025,0.174725 0.63652,0.219112 0.93114,0.185972 0.29462,-0.03314 0.58751,-0.143643 0.89345,-0.301883 0.30593,-0.158241 0.62566,-0.364626 0.81115,-0.573919 0.1855,-0.209293 0.23748,-0.422046 0.21522,-2.30688 -0.0223,-1.884833 -0.11892,-5.452541 -0.19,-7.578603 -0.0711,-2.126063 -0.1167,-2.815858 -0.2209,-3.354375 -0.1042,-0.538517 -0.26705,-0.926193 -0.42979,-1.313596"
         style="fill:none;stroke:#000000;stroke-width:1;stroke-linecap:round;stroke-linejoin:miter;stroke-miterlimit:4;stroke-dasharray:none;stroke-opacity:1" />
      <path
         inkscape:path-effect="#path-effect57"
         sodipodi:nodetypes="ccccccccccc"
         inkscape:original-d="m -174.95707,89.606521 c 0.0904,0.358001 0.17554,0.696569 0.26291,1.045253 0.41143,0.168949 0.82184,0.337855 1.23346,0.507632 0.43587,0.02549 0.86993,0.05115 1.30451,0.07713 0.41559,-0.287282 0.83089,-0.574287 1.24594,-0.861038 0.1526,-0.203448 0.30495,-0.406656 0.457,-0.609547 -0.0675,-1.341439 -0.13529,-2.682785 -0.20334,-4.024053 -0.007,-1.345476 -0.0139,-2.690128 -0.0212,-4.035089 -0.0218,-1.459079 -0.0438,-2.917469 -0.0661,-4.375806 -0.0632,-0.43509 -0.12672,-0.869924 -0.19047,-1.304476 -0.1558,-0.376463 -0.31188,-0.752684 -0.46821,-1.128618"
         inkscape:connector-curvature="0"
         id="path55"
         d="m -174.95707,89.606521 c 0.0901,0.358084 0.17523,0.696648 0.42472,0.955586 0.24949,0.258937 0.6599,0.427842 1.0837,0.525456 0.4238,0.09761 0.85786,0.123277 1.28297,-0.0075 0.42512,-0.130767 0.84042,-0.417771 1.1242,-0.662914 0.28379,-0.245142 0.43614,-0.448349 0.47829,-1.220491 0.0422,-0.772143 -0.0256,-2.113489 -0.0631,-3.456868 -0.0374,-1.343379 -0.0445,-2.68803 -0.059,-4.090049 -0.0145,-1.402018 -0.0366,-2.860408 -0.0794,-3.8071 -0.0428,-0.946692 -0.10626,-1.38153 -0.21605,-1.786992 -0.10979,-0.405463 -0.26587,-0.781685 -0.42188,-1.157751"
         style="fill:none;stroke:#000000;stroke-width:1;stroke-linecap:round;stroke-linejoin:miter;stroke-miterlimit:4;stroke-dasharray:none;stroke-opacity:1" />
      <path
         inkscape:path-effect="#path-effect61"
         sodipodi:nodetypes="cccccccc"
         inkscape:original-d="m -170.54958,88.578744 c 0.0346,0.45629 0.069,0.912855 0.1031,1.36968 0.30001,0.266652 0.59951,0.533353 0.89887,0.800438 0.40933,0.169293 0.81835,0.338837 1.22714,0.508657 0.39341,-0.03086 0.78674,-0.06145 1.17973,-0.09178 0.47559,-0.268405 0.93585,-0.53664 1.40339,-0.804555 0.22453,-0.224616 0.44881,-0.465007 0.67284,-0.697107 0.004,-1.14064 0.008,-2.283655 0.0111,-3.425077"
         inkscape:connector-curvature="0"
         id="path59"
         d="m -170.54958,88.578744 c 0.0343,0.456309 0.0687,0.912876 0.23579,1.274745 0.16707,0.361869 0.46657,0.628571 0.82097,0.846779 0.35441,0.218209 0.76343,0.38775 1.1646,0.457197 0.40118,0.06945 0.79451,0.03885 1.22787,-0.112241 0.43337,-0.151087 0.89551,-0.416033 1.23952,-0.664276 0.34401,-0.248244 0.57229,-0.484766 0.68616,-1.171139 0.11386,-0.686373 0.11756,-1.829389 0.12126,-2.970809"
         style="fill:none;stroke:#000000;stroke-width:1;stroke-linecap:round;stroke-linejoin:miter;stroke-miterlimit:4;stroke-dasharray:none;stroke-opacity:1" />
      <path
         inkscape:path-effect="#path-effect65"
         sodipodi:nodetypes="cccccccccccccccccccccccc"
         inkscape:original-d="m -165.053,86.239 c 0.0142,0.810327 0.0281,1.620928 0.0418,2.431795 0.10864,0.336581 0.21695,0.673209 0.32504,1.010215 0.23923,0.279144 0.47796,0.558279 0.71655,0.837826 0.35472,-0.02159 0.69984,-0.04235 1.06333,-0.06397 0.29808,-0.118402 0.58065,-0.230489 0.87058,-0.345341 0.50729,-0.341 1.0143,-0.681725 1.52104,-1.022183 0.59175,-0.380696 1.18389,-0.761553 1.77545,-1.141925 0.35653,-0.329317 0.71316,-0.658706 1.06935,-0.987655 0.0986,-0.1677 0.19716,-0.335389 0.29534,-0.502683 -0.0727,-0.188536 -0.14566,-0.37684 -0.21887,-0.564819 -0.25317,-0.06567 -0.50667,-0.1311 -0.76041,-0.196255 -0.46271,0.110375 -0.92516,0.220891 -1.38813,0.331741 -0.46756,0.283849 -0.91902,0.567314 -1.37893,0.851376 -0.25429,0.311598 -0.49274,0.622768 -0.73951,0.934558 -0.0821,0.245565 -0.16431,0.490942 -0.24685,0.736817 0.0205,0.251724 0.0407,0.503061 0.0607,0.754995 0.20259,0.295719 0.40452,0.591126 0.60639,0.887096 0.39833,0.236878 0.79623,0.473926 1.19396,0.711295 0.40255,0.03985 0.805,0.07999 1.20712,0.120384 0.47112,-0.07946 0.94253,-0.158723 1.41342,-0.237678 0.58718,-0.191694 1.17483,-0.383357 1.76186,-0.574633 0.42184,-0.196652 0.8436,-0.408993 1.26501,-0.613085 0.49834,-0.316014 0.99716,-0.632234 1.49536,-0.947946"
         inkscape:connector-curvature="0"
         id="path63"
         d="m -165.053,86.239 c 0.0139,0.810332 0.0279,1.620932 0.089,2.194704 0.0611,0.573772 0.16944,0.9104 0.34311,1.218547 0.17368,0.308146 0.41241,0.587281 0.70921,0.716263 0.2968,0.128981 0.64192,0.108219 0.97273,0.03815 0.3308,-0.07006 0.61337,-0.182154 1.01198,-0.410118 0.3986,-0.227964 0.90561,-0.56869 1.45486,-0.929262 0.54924,-0.360572 1.14139,-0.741424 1.61541,-1.096299 0.47403,-0.354875 0.83066,-0.684261 1.05803,-0.932609 0.22736,-0.248348 0.32589,-0.416054 0.33851,-0.593885 0.0126,-0.17783 -0.0603,-0.366131 -0.22341,-0.492863 -0.16307,-0.126732 -0.41657,-0.192159 -0.77473,-0.169608 -0.35816,0.02255 -0.82061,0.133069 -1.28482,0.332069 -0.46421,0.199001 -0.91778,0.479044 -1.27253,0.778716 -0.35475,0.299671 -0.59798,0.607056 -0.76248,0.885721 -0.16449,0.278665 -0.2467,0.524043 -0.27777,0.772878 -0.0311,0.248835 -0.0109,0.500171 0.1004,0.774092 0.11127,0.27392 0.3132,0.569327 0.61335,0.835804 0.30016,0.266477 0.69806,0.503524 1.09828,0.642123 0.40022,0.1386 0.80267,0.178735 1.23933,0.159174 0.43665,-0.01956 0.90806,-0.09883 1.4371,-0.234186 0.52904,-0.135352 1.11669,-0.327015 1.61957,-0.524218 0.50288,-0.197202 0.92776,-0.403117 1.38763,-0.663191 0.45987,-0.260074 0.95869,-0.57629 1.45684,-0.89208"
         style="fill:none;stroke:#000000;stroke-width:1;stroke-linecap:round;stroke-linejoin:miter;stroke-miterlimit:4;stroke-dasharray:none;stroke-opacity:1" />
      <path
         inkscape:path-effect="#path-effect69"
         inkscape:original-d="m -156.08155,74.974391 c 0.19389,0.241337 0.38751,0.482942 0.58088,0.724819 0.14237,0.476219 0.28444,0.952562 0.42628,1.429249 0.0446,1.24686 0.089,2.493066 0.13305,3.740002 8.8e-4,1.291994 0.001,2.583721 0.002,3.875985 -0.007,0.868793 -0.0358,1.737894 -0.0541,2.607242 0.0775,0.588863 0.13291,1.200285 0.19896,1.800829 0.31946,0.406347 0.63839,0.81264 0.95719,1.219363 0.37148,0.204798 0.74264,0.409826 1.11356,0.615142 0.50159,0.01313 1.00315,0.02652 1.50434,0.04019 0.54478,-0.05445 1.08986,-0.108667 1.6344,-0.162604 0.34328,-0.117667 0.68665,-0.235185 1.02959,-0.352376 0.23209,-0.104524 0.46436,-0.208971 0.69614,-0.313053"
         inkscape:connector-curvature="0"
         id="path67"
         d="m -156.08155,74.974391 c 0.1936,0.241571 0.38722,0.483173 0.55508,0.842152 0.16786,0.358978 0.30993,0.83532 0.40319,1.697053 0.0932,0.861732 0.13758,2.10794 0.16009,3.3774 0.0225,1.269459 0.0232,2.561186 0.0145,3.6416 -0.009,1.080414 -0.0267,1.949739 -0.003,2.679526 0.0236,0.729787 0.091,1.339884 0.28375,1.84343 0.19275,0.503546 0.51169,0.909835 0.85689,1.215638 0.3452,0.305803 0.71635,0.510835 1.15269,0.620034 0.43634,0.109198 0.9379,0.122598 1.4609,0.102192 0.523,-0.02041 1.06808,-0.07464 1.51201,-0.160474 0.44393,-0.08584 0.7873,-0.203358 1.07481,-0.314232 0.28752,-0.110874 0.51979,-0.215325 0.75151,-0.319531"
         style="fill:none;stroke:#000000;stroke-width:1;stroke-linecap:round;stroke-linejoin:miter;stroke-miterlimit:4;stroke-dasharray:none;stroke-opacity:1" />
      <path
         inkscape:path-effect="#path-effect73"
         inkscape:original-d="m -156.48644,82.204718 c 1.13411,0.503134 2.26796,1.006538 3.40155,1.510209"
         inkscape:connector-curvature="0"
         id="path71"
         d="m -156.48644,82.204718 c 1.13397,0.503455 2.26782,1.006858 3.40155,1.510209"
         style="fill:none;stroke:#000000;stroke-width:1;stroke-linecap:round;stroke-linejoin:miter;stroke-miterlimit:4;stroke-dasharray:none;stroke-opacity:1" />
      <ellipse
         transform="rotate(-1.0146885)"
         ry="0.73232889"
         rx="1.8071986"
         cy="81.176338"
         cx="-180.77956"
         id="path75"
         style="opacity:1;fill:#000000;fill-opacity:1;stroke:none;stroke-width:1.06500006;stroke-linecap:square;stroke-linejoin:miter;stroke-miterlimit:4;stroke-dasharray:none;stroke-dashoffset:0;stroke-opacity:1;paint-order:fill markers stroke" />
      <ellipse
         transform="rotate(-1.0146885)"
         ry="0.73232889"
         rx="1.8071986"
         cy="81.428604"
         cx="-166.53636"
         id="path75-8"
         style="opacity:1;fill:#000000;fill-opacity:1;stroke:none;stroke-width:1.06500006;stroke-linecap:square;stroke-linejoin:miter;stroke-miterlimit:4;stroke-dasharray:none;stroke-dashoffset:0;stroke-opacity:1;paint-order:fill markers stroke" />
      <path
         inkscape:connector-curvature="0"
         id="path92"
         d="m -196.04742,77.304328 h 43.49813 z m 0,1.133263 h 43.49813 z m 0,1.133264 h 43.49813 z m 0,1.133265 h 43.49813 z m 0,1.132748 h 43.49813 z"
         style="fill:none;stroke:#000000;stroke-width:0.26458332px;stroke-linecap:butt;stroke-linejoin:miter;stroke-opacity:1" />
      <path
         id="path92-9"
         d="m -196.04742,93.27922 h 43.49812 z m 0,1.133263 h 43.49812 z m 0,1.133264 h 43.49812 z m 0,1.133266 h 43.49812 z m 0,1.132747 h 43.49812 z"
         style="fill:none;stroke:#000000;stroke-width:0.26458332px;stroke-linecap:butt;stroke-linejoin:miter;stroke-opacity:1"
         inkscape:connector-curvature="0" />
      <ellipse
         transform="rotate(-1.0146885)"
         ry="0.73232889"
         rx="1.8071986"
         cy="74.026421"
         cx="-182.90605"
         id="path75-6"
         style="opacity:1;fill:#000000;fill-opacity:1;stroke:none;stroke-width:1.06500006;stroke-linecap:square;stroke-linejoin:miter;stroke-miterlimit:4;stroke-dasharray:none;stroke-dashoffset:0;stroke-opacity:1;paint-order:fill markers stroke" />
      <ellipse
         transform="rotate(-1.0146885)"
         ry="0.73232889"
         rx="1.8071986"
         cy="93.602348"
         cx="-170.93282"
         id="path75-9"
         style="opacity:1;fill:#000000;fill-opacity:1;stroke:none;stroke-width:1.06500006;stroke-linecap:square;stroke-linejoin:miter;stroke-miterlimit:4;stroke-dasharray:none;stroke-dashoffset:0;stroke-opacity:1;paint-order:fill markers stroke" />
      <path
         inkscape:connector-curvature="0"
         id="path1136"
         d="M -163.39358,84.332978 V 78.9727"
         style="fill:none;stroke:#000000;stroke-width:0.26458332px;stroke-linecap:butt;stroke-linejoin:miter;stroke-opacity:1" />
      <path
         inkscape:connector-curvature="0"
         id="path1138"
         d="M -170.9231,96.679011 V 92.304948"
         style="fill:none;stroke:#000000;stroke-width:0.26458332px;stroke-linecap:butt;stroke-linejoin:miter;stroke-opacity:1" />
      <path
         inkscape:connector-curvature="0"
         id="path1140"
         d="m -183.24113,77.304328 v 3.942344"
         style="fill:none;stroke:#000000;stroke-width:0.26458332px;stroke-linecap:butt;stroke-linejoin:miter;stroke-opacity:1" />
      <path
         inkscape:connector-curvature="0"
         id="path1136-9"
         d="m -167.74839,84.364983 h 5.36028"
         style="fill:none;stroke:#000000;stroke-width:0.26458332px;stroke-linecap:butt;stroke-linejoin:miter;stroke-opacity:1" />
      <path
         inkscape:connector-curvature="0"
         id="path1136-9-8"
         d="m -181.99382,84.330738 h 5.36028"
         style="fill:none;stroke:#000000;stroke-width:0.264583px;stroke-linecap:butt;stroke-linejoin:miter;stroke-opacity:1" />
    </g>
  </g>
</svg>
