<?xml version="1.0" encoding="UTF-8" standalone="no"?>
<!-- Created with Inkscape (http://www.inkscape.org/) -->

<svg
   width="124.17381mm"
   height="130.00034mm"
   viewBox="0 0 124.17381 130.00033"
   version="1.1"
   id="svg5"
   inkscape:version="1.1.1 (3bf5ae0d25, 2021-09-20)"
   sodipodi:docname="orfeo.svg"
   xmlns:inkscape="http://www.inkscape.org/namespaces/inkscape"
   xmlns:sodipodi="http://sodipodi.sourceforge.net/DTD/sodipodi-0.dtd"
   xmlns="http://www.w3.org/2000/svg"
   xmlns:svg="http://www.w3.org/2000/svg">
  <sodipodi:namedview
     id="namedview7"
     pagecolor="#ffffff"
     bordercolor="#666666"
     borderopacity="1.0"
     inkscape:pageshadow="2"
     inkscape:pageopacity="0.0"
     inkscape:pagecheckerboard="0"
     inkscape:document-units="mm"
     showgrid="false"
     fit-margin-top="0"
     fit-margin-left="0"
     fit-margin-right="0"
     fit-margin-bottom="0"
     inkscape:zoom="0.45291836"
     inkscape:cx="-396.31866"
     inkscape:cy="137.99396"
     inkscape:window-width="1920"
     inkscape:window-height="1017"
     inkscape:window-x="-8"
     inkscape:window-y="-8"
     inkscape:window-maximized="1"
     inkscape:current-layer="layer1" />
  <defs
     id="defs2" />
  <g
     inkscape:label="Capa 1"
     inkscape:groupmode="layer"
     id="layer1"
     transform="translate(16.190859,-64.4625)">
    <path
       id="path2045"
       style="fill:#000000;stroke:none;stroke-width:0.999999px;stroke-linecap:butt;stroke-linejoin:miter;stroke-opacity:1"
       d="m 182.68945,0 9.44922,18.898438 v 207.873042 18.89844 h 37.79492 v 56.69141 l -37.79492,37.79687 h 94.48828 l -37.79492,-37.79687 v -56.69141 h 37.79492 V 226.77148 18.898438 H 248.83203 229.93359 V 37.794922 226.77148 H 211.03711 V 18.898438 L 220.48438,0 Z m 66.14258,37.794922 h 18.89649 V 226.77148 h -18.89649 z m 153.125,302.363278 c 4.14974,14.26827 13.55646,21.40235 28.22266,21.40235 14.77988,0 24.18855,-7.13408 28.22461,-21.40235 h -13.72852 c -2.44435,5.96881 -7.27668,8.95313 -14.49609,8.95313 -7.27626,0 -12.10858,-2.98432 -14.4961,-8.95313 z m -74.09961,4.85938 -12.69336,26.51953 h -10.1582 v 116.39062 h 70.77344 v -20.80468 h -45.19336 v -28.56446 h 35.13086 v -20.03906 h -35.13086 v -27.0293 h 45.19336 v -19.95312 h -46.56055 l 19.35937,-26.51953 z m -101.46875,23.02344 v 13.98437 c -13.13136,2.16013 -23.05197,7.47529 -29.75976,15.94531 -6.65095,8.41316 -9.97657,18.95816 -9.97657,31.63477 0,11.99443 3.01342,22.33971 9.03907,31.03711 6.08249,8.6974 16.3153,14.21228 30.69726,16.54297 v 14.15429 h 21.82813 v -14.32617 c 26.4901,-4.77503 39.73437,-20.57703 39.73437,-47.4082 0,-7.10571 -1.22165,-13.95667 -3.66601,-20.55078 -2.38752,-6.65094 -6.62259,-12.47804 -12.70508,-17.48047 -6.08249,-5.00243 -13.87005,-8.15742 -23.36328,-9.46484 V 368.04102 Z M 42.207031,369.74609 C 14.068401,369.74609 0,389.7269 0,429.68945 c 0,19.61177 3.5524874,34.53534 10.658203,44.76758 7.105714,10.17537 17.650718,15.26172 31.634766,15.26172 28.13863,0 42.208984,-20.00992 42.208984,-60.0293 0,-19.95285 -3.610672,-34.93071 -10.830078,-44.93554 -7.219406,-10.00487 -17.70818,-15.00782 -31.464844,-15.00782 z m 60.115239,1.79102 v 116.39062 h 25.58007 v -43.06054 h 9.03907 c 11.25545,0 19.58403,-1.22165 24.98437,-3.66602 5.45719,-2.50119 9.71939,-6.53652 12.78906,-12.10742 3.06967,-5.57087 4.60547,-12.61962 4.60547,-21.14648 0,-8.86794 -1.90423,-16.28706 -5.71289,-22.25586 -3.80866,-6.02563 -8.52657,-9.89033 -14.1543,-11.59571 -5.57086,-1.70537 -13.44571,-2.55859 -23.62109,-2.55859 z m 285.99023,0 v 116.39062 h 25.58203 v -11.9375 l 25.83594,-45.27734 4.0918,-7.67383 -0.084,4.60547 v 60.2832 h 25.58008 V 371.53711 h -25.58008 v 12.875 l -26.00781,45.36328 -3.83594,7.07813 v -65.31641 z m -260.41016,18.84375 h 7.92969 c 3.75182,0 6.65082,0.39752 8.69727,1.19336 2.10329,0.739 3.92415,2.47453 5.45898,5.20312 1.59168,2.67175 2.38672,6.19515 2.38672,10.57227 0,5.17296 -1.02386,9.37895 -3.07031,12.61914 -1.9896,3.24021 -6.48064,4.86133 -13.47266,4.86133 h -7.92969 z m -85.695309,0.17187 c 5.343498,0 9.239228,2.61395 11.683594,7.84375 2.444366,5.17297 3.666016,15.60355 3.666016,31.29297 0,15.80311 -1.250743,26.29191 -3.751953,31.46485 -2.444366,5.17296 -6.311005,7.75976 -11.597657,7.75976 -5.343497,0 -9.237275,-2.70122 -11.68164,-8.10156 -2.387521,-5.40034 -3.580078,-15.77471 -3.580079,-31.12305 0,-15.63258 1.22165,-26.06316 3.666016,-31.29297 2.444366,-5.2298 6.309052,-7.84375 11.595703,-7.84375 z m 184.181639,11.25391 v 55.68164 c -10.00485,-3.86552 -15.00781,-12.90381 -15.00781,-27.11523 0,-15.29149 5.00296,-24.8146 15.00781,-28.56641 z m 21.82813,0 c 10.00484,3.8655 15.00781,12.87667 15.00781,27.03125 0,15.29149 -5.00297,24.84171 -15.00781,28.65039 z"
       transform="matrix(0.26458333,0,0,0.26458333,-16.190859,64.4625)" />
  </g>
</svg>
