<?xml version="1.0" encoding="UTF-8" standalone="no"?>
<!-- Created with Inkscape (http://www.inkscape.org/) -->

<svg
   width="50.000038mm"
   height="10.34884mm"
   viewBox="0 0 50.000038 10.34884"
   version="1.1"
   id="svg5"
   inkscape:version="1.1.1 (3bf5ae0d25, 2021-09-20)"
   sodipodi:docname="riedl.svg"
   xmlns:inkscape="http://www.inkscape.org/namespaces/inkscape"
   xmlns:sodipodi="http://sodipodi.sourceforge.net/DTD/sodipodi-0.dtd"
   xmlns="http://www.w3.org/2000/svg"
   xmlns:svg="http://www.w3.org/2000/svg">
  <sodipodi:namedview
     id="namedview7"
     pagecolor="#ffffff"
     bordercolor="#666666"
     borderopacity="1.0"
     inkscape:pageshadow="2"
     inkscape:pageopacity="0.0"
     inkscape:pagecheckerboard="0"
     inkscape:document-units="mm"
     showgrid="false"
     fit-margin-top="0"
     fit-margin-left="0"
     fit-margin-right="0"
     fit-margin-bottom="0"
     inkscape:zoom="2.096401"
     inkscape:cx="144.77192"
     inkscape:cy="55.094422"
     inkscape:window-width="1920"
     inkscape:window-height="1017"
     inkscape:window-x="-8"
     inkscape:window-y="-8"
     inkscape:window-maximized="1"
     inkscape:current-layer="layer1" />
  <defs
     id="defs2" />
  <g
     inkscape:label="Capa 1"
     inkscape:groupmode="layer"
     id="layer1"
     transform="translate(-45.329938,-77.536313)">
    <path
       d="m 48.722004,78.969825 -0.125746,0.01886 -0.229488,-0.826784 q -0.389815,-0.09745 -0.707325,-0.09745 -0.770199,0 -1.210312,0.537567 -0.440113,0.537567 -0.440113,1.395788 0,0.917951 0.502986,1.464949 0.502987,0.546998 1.392645,0.546998 0.499843,0 1.053128,-0.191764 l 0.03458,0.141465 q -0.619303,0.427539 -1.402076,0.427539 -1.015404,0 -1.63785,-0.619302 -0.622446,-0.619303 -0.622446,-1.631564 0,-1.078277 0.685319,-1.707011 0.685319,-0.628733 1.79189,-0.628733 0.53128,0 1.087709,0.12889 l 0.02201,0.02515 z"
       id="path26717"
       style="font-size:6.43823px;line-height:1.25;font-family:Constantia;-inkscape-font-specification:Constantia;letter-spacing:0.241433px;stroke-width:0.264583" />
    <path
       d="m 50.258628,80.790008 q 0,0.587866 0.220057,0.958819 0.220057,0.367809 0.653883,0.367809 0.405533,0 0.616159,-0.323798 0.213769,-0.326941 0.213769,-0.965106 0,-0.60044 -0.2232,-0.946244 -0.223201,-0.345803 -0.647596,-0.345803 -0.402389,0 -0.619302,0.311223 -0.21377,0.311223 -0.21377,0.9431 z m 2.345176,-0.02829 q 0,0.716756 -0.433826,1.160013 -0.430682,0.440114 -1.09714,0.440114 -0.650739,0 -1.053128,-0.414964 -0.399246,-0.418108 -0.399246,-1.090853 0,-0.691607 0.418108,-1.128576 0.421251,-0.440114 1.112858,-0.440114 0.653883,0 1.053128,0.405533 0.399246,0.40239 0.399246,1.068847 z"
       id="path26719"
       style="font-size:6.43823px;line-height:1.25;font-family:Constantia;-inkscape-font-specification:Constantia;letter-spacing:0.241433px;stroke-width:0.264583" />
    <path
       d="m 53.279063,79.507392 q 0.528136,-0.100597 0.996542,-0.220057 l 0.03144,0.02201 v 0.364665 q 0.546998,-0.386671 1.018548,-0.386671 0.446401,0 0.697894,0.251494 0.254637,0.248349 0.254637,0.707325 v 1.109714 q 0,0.392959 0.0063,0.581579 0.0031,0.08488 0.08174,0.110028 l 0.348947,0.106885 0.0063,0.12889 q -0.414964,-0.0094 -0.723043,-0.0094 -0.308079,0 -0.68532,0.0094 l -0.01257,-0.12889 0.314367,-0.09117 q 0.0723,-0.02515 0.07859,-0.09745 0.0031,-0.04401 0.0031,-0.198051 V 80.39705 q 0,-0.386671 -0.185477,-0.553286 -0.185476,-0.169758 -0.546998,-0.169758 -0.31751,0 -0.657026,0.182333 v 1.373783 q 0,0.392958 0.0063,0.719899 0.0031,0.08488 0.07231,0.106885 l 0.326941,0.09745 0.0063,0.12889 q -0.389814,-0.0094 -0.697894,-0.0094 -0.308079,0 -0.72933,0.0094 l -0.01257,-0.12889 0.370953,-0.106885 q 0.06916,-0.02829 0.0723,-0.09745 0.0031,-0.201194 0.0031,-0.386671 v -1.07199 q 0,-0.411821 -0.01258,-0.763911 l -0.418108,-0.113172 z"
       id="path26721"
       style="font-size:6.43823px;line-height:1.25;font-family:Constantia;-inkscape-font-specification:Constantia;letter-spacing:0.241433px;stroke-width:0.264583" />
    <path
       d="m 58.880448,79.604846 q -0.182333,-0.0503 -0.396102,-0.0503 -0.295505,0 -0.477838,0.116316 -0.179189,0.113172 -0.179189,0.311223 0,0.191763 0.116316,0.301792 0.119459,0.110028 0.440113,0.216913 l 0.257781,0.08802 q 0.433826,0.147753 0.635021,0.339516 0.204338,0.188621 0.204338,0.4967 0,0.43697 -0.339516,0.688463 -0.339516,0.24835 -0.858221,0.24835 -0.477837,0 -0.97768,-0.194908 0.106884,-0.408676 0.172901,-0.798491 l 0.122603,-0.01886 0.226344,0.675888 q 0.179189,0.06916 0.455832,0.06916 0.292361,0 0.465263,-0.119459 0.176045,-0.11946 0.176045,-0.336373 0,-0.201194 -0.119459,-0.31751 -0.116316,-0.116316 -0.374097,-0.201195 l -0.326941,-0.110028 q -0.424395,-0.141465 -0.587866,-0.339516 -0.160327,-0.201195 -0.160327,-0.4967 0,-0.41182 0.311223,-0.647595 0.314367,-0.238919 0.826785,-0.238919 0.477837,0 0.867652,0.138322 -0.08802,0.358378 -0.160327,0.757623 l -0.11946,0.02201 z"
       id="path26723"
       style="font-size:6.43823px;line-height:1.25;font-family:Constantia;-inkscape-font-specification:Constantia;letter-spacing:0.241433px;stroke-width:0.264583" />
    <path
       d="m 61.05838,79.702299 q -0.01886,1.06256 -0.01886,1.713299 0,0.326941 0.09745,0.452688 0.09745,0.122603 0.370952,0.122603 0.216913,0 0.56586,-0.05659 l 0.01886,0.141465 q -0.543854,0.273499 -0.971393,0.273499 -0.342659,0 -0.509274,-0.182333 -0.166614,-0.185476 -0.166614,-0.556429 0,-0.609871 0.02201,-1.927068 l -0.433826,-0.106884 -0.01886,-0.128891 0.484124,-0.04087 0.216913,-0.760768 q 0.176046,-0.04716 0.320654,-0.09117 l 0.03144,0.02201 q -0.0094,0.380383 -0.0094,0.710468 v 0.116316 h 0.946244 v 0.298648 z"
       id="path26725"
       style="font-size:6.43823px;line-height:1.25;font-family:Constantia;-inkscape-font-specification:Constantia;letter-spacing:0.241433px;stroke-width:0.264583" />
    <path
       d="m 64.386893,80.849738 q -0.688463,0 -0.939957,0.135177 -0.251493,0.135178 -0.251493,0.455832 0,0.298649 0.166614,0.424395 0.166615,0.122603 0.452689,0.122603 0.323797,0 0.56586,-0.110028 z m -1.524679,-1.295191 q 0.613015,-0.267212 1.084566,-0.267212 0.480981,0 0.748192,0.251494 0.270356,0.251493 0.267212,0.726187 l -0.01572,1.307765 q -0.0031,0.160327 0.0063,0.257781 0.01257,0.09745 0.05659,0.150896 0.04716,0.0503 0.138321,0.0723 0.09117,0.01886 0.245206,0.02201 l 0.01572,0.122603 q -0.135178,0.05344 -0.330085,0.106885 -0.194908,0.05344 -0.264068,0.05344 -0.304936,0 -0.418108,-0.314367 -0.440113,0.317511 -0.829928,0.317511 -0.43697,0 -0.704182,-0.21377 -0.264068,-0.216913 -0.264068,-0.609871 0,-0.484125 0.430683,-0.713613 0.433826,-0.229487 1.358064,-0.229487 l 0.0031,-0.245206 q 0.0031,-0.352091 -0.179189,-0.521849 -0.182333,-0.169758 -0.559573,-0.169758 -0.286074,0 -0.716756,0.106885 z"
       id="path26727"
       style="font-size:6.43823px;line-height:1.25;font-family:Constantia;-inkscape-font-specification:Constantia;letter-spacing:0.241433px;stroke-width:0.264583" />
    <path
       d="m 65.961242,79.507392 q 0.528136,-0.100597 0.996543,-0.220057 l 0.03144,0.02201 v 0.364665 q 0.546999,-0.386671 1.018549,-0.386671 0.4464,0 0.697894,0.251494 0.254637,0.248349 0.254637,0.707325 v 1.109714 q 0,0.392959 0.0063,0.581579 0.0031,0.08488 0.08173,0.110028 l 0.348947,0.106885 0.0063,0.12889 q -0.414964,-0.0094 -0.723044,-0.0094 -0.308079,0 -0.685319,0.0094 l -0.01257,-0.12889 0.314367,-0.09117 q 0.0723,-0.02515 0.07859,-0.09745 0.0031,-0.04401 0.0031,-0.198051 V 80.39705 q 0,-0.386671 -0.185476,-0.553286 -0.185476,-0.169758 -0.546998,-0.169758 -0.31751,0 -0.657027,0.182333 v 1.373783 q 0,0.392958 0.0063,0.719899 0.0031,0.08488 0.0723,0.106885 l 0.326942,0.09745 0.0063,0.12889 q -0.389815,-0.0094 -0.697894,-0.0094 -0.30808,0 -0.729331,0.0094 l -0.01257,-0.12889 0.370953,-0.106885 q 0.06916,-0.02829 0.0723,-0.09745 0.0031,-0.201194 0.0031,-0.386671 v -1.07199 q 0,-0.411821 -0.01257,-0.763911 l -0.418107,-0.113172 z"
       id="path26729"
       style="font-size:6.43823px;line-height:1.25;font-family:Constantia;-inkscape-font-specification:Constantia;letter-spacing:0.241433px;stroke-width:0.264583" />
    <path
       d="m 70.893026,79.702299 q -0.01886,1.06256 -0.01886,1.713299 0,0.326941 0.09745,0.452688 0.09745,0.122603 0.370953,0.122603 0.216913,0 0.56586,-0.05659 l 0.01886,0.141465 q -0.543855,0.273499 -0.971393,0.273499 -0.34266,0 -0.509275,-0.182333 -0.166614,-0.185476 -0.166614,-0.556429 0,-0.609871 0.02201,-1.927068 l -0.433826,-0.106884 -0.01886,-0.128891 0.484124,-0.04087 0.216913,-0.760768 q 0.176046,-0.04716 0.320655,-0.09117 l 0.03144,0.02201 q -0.0094,0.380383 -0.0094,0.710468 v 0.116316 h 0.946244 v 0.298648 z"
       id="path26731"
       style="font-size:6.43823px;line-height:1.25;font-family:Constantia;-inkscape-font-specification:Constantia;letter-spacing:0.241433px;stroke-width:0.264583" />
    <path
       d="m 73.526789,78.174477 q 0,0.166615 -0.103741,0.273499 -0.103741,0.103741 -0.267212,0.103741 -0.157183,0 -0.257781,-0.09745 -0.09745,-0.09745 -0.09745,-0.257781 0,-0.169758 0.103741,-0.267212 0.103741,-0.100597 0.273499,-0.100597 0.154039,0 0.251493,0.09117 0.09745,0.08802 0.09745,0.254637 z m -1.06256,1.332915 q 0.550142,-0.103741 1.018548,-0.220057 l 0.02829,0.02201 q -0.01886,0.408677 -0.01886,0.899089 v 1.207168 q 0,0.37724 0.0063,0.521849 0.0063,0.08488 0.07859,0.110028 l 0.364666,0.106885 0.0063,0.12889 q -0.433826,-0.0094 -0.741905,-0.0094 -0.30808,0 -0.732475,0.0094 l -0.01257,-0.12889 0.364665,-0.106885 q 0.0723,-0.02515 0.07859,-0.09745 0.0063,-0.122603 0.0063,-0.41182 v -1.049985 q 0,-0.41182 -0.01257,-0.760767 l -0.418107,-0.113172 z"
       id="path26733"
       style="font-size:6.43823px;line-height:1.25;font-family:Constantia;-inkscape-font-specification:Constantia;letter-spacing:0.241433px;stroke-width:0.264583" />
    <path
       d="m 74.528989,79.507392 q 0.528137,-0.100597 0.996543,-0.220057 l 0.03144,0.02201 v 0.364665 q 0.546998,-0.386671 1.018548,-0.386671 0.4464,0 0.697894,0.251494 0.254637,0.248349 0.254637,0.707325 v 1.109714 q 0,0.392959 0.0063,0.581579 0.0031,0.08488 0.08173,0.110028 l 0.348948,0.106885 0.0063,0.12889 q -0.414964,-0.0094 -0.723044,-0.0094 -0.308079,0 -0.685319,0.0094 l -0.01258,-0.12889 0.314367,-0.09117 q 0.0723,-0.02515 0.07859,-0.09745 0.0031,-0.04401 0.0031,-0.198051 V 80.39705 q 0,-0.386671 -0.185476,-0.553286 -0.185476,-0.169758 -0.546998,-0.169758 -0.31751,0 -0.657026,0.182333 v 1.373783 q 0,0.392958 0.0063,0.719899 0.0031,0.08488 0.0723,0.106885 l 0.326942,0.09745 0.0063,0.12889 q -0.389815,-0.0094 -0.697894,-0.0094 -0.308079,0 -0.729331,0.0094 l -0.01257,-0.12889 0.370953,-0.106885 q 0.06916,-0.02829 0.07231,-0.09745 0.0031,-0.201194 0.0031,-0.386671 v -1.07199 q 0,-0.411821 -0.01257,-0.763911 l -0.418108,-0.113172 z"
       id="path26735"
       style="font-size:6.43823px;line-height:1.25;font-family:Constantia;-inkscape-font-specification:Constantia;letter-spacing:0.241433px;stroke-width:0.264583" />
    <path
       d="m 81.500384,81.308713 q 0,0.18862 0,0.339516 0.0031,0.150896 0.0063,0.273499 0.0031,0.09745 0.08174,0.122603 l 0.348947,0.103741 0.0094,0.135178 q -0.374097,-0.0094 -0.748193,-0.0094 -0.380384,0 -0.779629,0.0094 l -0.01257,-0.135178 0.386671,-0.116315 q 0.07859,-0.02201 0.08488,-0.09745 0.0031,-0.125747 0.0031,-0.279786 0.0031,-0.157184 0.0031,-0.345804 v -2.549514 q 0,-0.160327 -0.0031,-0.289217 0,-0.12889 -0.0031,-0.232631 -0.0031,-0.08174 -0.07545,-0.106885 l -0.389815,-0.122603 -0.0063,-0.135178 q 0.405533,0.01257 0.78906,0.01257 0.07545,0 0.191764,-0.0031 0.116316,-0.0063 0.28293,-0.01257 0.169758,-0.0063 0.28293,-0.0094 0.113172,-0.0031 0.179189,-0.0031 0.716756,0 1.075134,0.270355 0.358378,0.270356 0.358378,0.789061 0,0.468406 -0.245206,0.760767 -0.245206,0.289217 -0.748192,0.446401 0.198051,0.301792 0.364665,0.584722 0.166614,0.279786 0.308079,0.515561 0.144609,0.232632 0.264068,0.411821 0.11946,0.179189 0.223201,0.28293 0.05344,0.05344 0.106884,0.09431 0.05344,0.03772 0.110029,0.06287 0.05973,0.02515 0.122603,0.04401 0.06602,0.01886 0.144608,0.03772 l 0.0094,0.138322 q -0.226344,0.02829 -0.380383,0.02829 -0.128891,0 -0.226344,-0.0063 -0.09745,-0.0063 -0.172902,-0.02515 -0.07545,-0.01886 -0.138321,-0.04716 -0.05973,-0.03144 -0.11946,-0.07859 -0.12889,-0.09745 -0.254637,-0.279786 -0.122603,-0.185476 -0.25778,-0.418108 -0.132035,-0.232631 -0.276643,-0.493556 -0.144609,-0.264068 -0.304936,-0.515561 -0.04716,-0.07545 -0.08174,-0.119459 -0.03144,-0.04401 -0.07231,-0.06916 -0.03772,-0.02515 -0.09117,-0.03458 -0.0503,-0.0094 -0.132034,-0.01257 l -0.216913,-0.0063 z m 0,-1.326627 q 0.191764,0.0094 0.355234,0.0094 0.543855,0 0.795348,-0.229488 0.254637,-0.232631 0.254637,-0.726187 0,-0.477837 -0.242062,-0.697894 -0.242063,-0.220057 -0.757624,-0.220057 -0.08802,0 -0.18862,0.0063 -0.100597,0.0063 -0.216913,0.01886 z"
       id="path26737"
       style="font-size:6.43823px;line-height:1.25;font-family:Constantia;-inkscape-font-specification:Constantia;letter-spacing:0.241433px;stroke-width:0.264583" />
    <path
       d="m 85.649395,78.174477 q 0,0.166615 -0.103741,0.273499 -0.103741,0.103741 -0.267212,0.103741 -0.157183,0 -0.25778,-0.09745 -0.09745,-0.09745 -0.09745,-0.257781 0,-0.169758 0.103741,-0.267212 0.103741,-0.100597 0.273499,-0.100597 0.15404,0 0.251493,0.09117 0.09745,0.08802 0.09745,0.254637 z m -1.062559,1.332915 q 0.550141,-0.103741 1.018548,-0.220057 l 0.02829,0.02201 q -0.01886,0.408677 -0.01886,0.899089 v 1.207168 q 0,0.37724 0.0063,0.521849 0.0063,0.08488 0.07859,0.110028 l 0.364665,0.106885 0.0063,0.12889 q -0.433826,-0.0094 -0.741905,-0.0094 -0.308079,0 -0.732474,0.0094 l -0.01257,-0.12889 0.364665,-0.106885 q 0.07231,-0.02515 0.07859,-0.09745 0.0063,-0.122603 0.0063,-0.41182 v -1.049985 q 0,-0.41182 -0.01257,-0.760767 l -0.418108,-0.113172 z"
       id="path26739"
       style="font-size:6.43823px;line-height:1.25;font-family:Constantia;-inkscape-font-specification:Constantia;letter-spacing:0.241433px;stroke-width:0.264583" />
    <path
       d="m 89.304853,82.050619 q -0.267212,0.166614 -0.550142,0.238918 -0.28293,0.07231 -0.524992,0.07231 -0.691607,0 -1.103428,-0.392959 -0.41182,-0.396102 -0.41182,-1.09714 0,-0.697894 0.392958,-1.141151 0.396102,-0.443257 1.056273,-0.443257 0.553285,0 0.861364,0.333229 0.30808,0.330085 0.30808,0.914807 0,0.08802 -0.0094,0.179189 H 87.33063 q 0,0.675889 0.31751,0.96825 0.31751,0.289217 0.993399,0.289217 0.301792,0 0.644452,-0.05659 z m -0.597297,-1.596983 v -0.09431 q 0,-0.446401 -0.144609,-0.638165 -0.141465,-0.191763 -0.424395,-0.191763 -0.374096,0 -0.572147,0.270355 -0.198051,0.270355 -0.223201,0.653883 z"
       id="path26741"
       style="font-size:6.43823px;line-height:1.25;font-family:Constantia;-inkscape-font-specification:Constantia;letter-spacing:0.241433px;stroke-width:0.264583" />
    <path
       d="m 92.237261,79.633139 q -0.210625,-0.06602 -0.47155,-0.06602 -0.540711,0 -0.823641,0.308079 -0.28293,0.304936 -0.28293,0.927382 0,0.537567 0.251494,0.861365 0.251493,0.320654 0.710468,0.320654 0.295505,0 0.616159,-0.163471 z m -0.452688,-1.873626 q 0.559573,-0.106885 1.024836,-0.2232 l 0.02829,0.02515 q -0.01886,0.672745 -0.01886,1.446087 v 1.710155 q 0,0.433826 0.0031,0.858221 0,0.160327 0.0094,0.257781 0.01257,0.09745 0.05659,0.150896 0.04401,0.0503 0.128891,0.06916 0.08802,0.01886 0.245206,0.02201 l 0.01572,0.122603 q -0.138321,0.05344 -0.333229,0.106885 -0.191763,0.05344 -0.260924,0.05344 -0.31751,0 -0.427539,-0.358378 -0.487268,0.361522 -0.946244,0.361522 -0.581578,0 -0.930525,-0.411821 -0.345803,-0.414964 -0.345803,-1.018548 0,-0.779629 0.462119,-1.207168 0.462119,-0.427539 1.292047,-0.427539 0.201195,0 0.449544,0.04401 0,-0.694751 -0.01257,-1.351777 l -0.424395,-0.125747 z"
       id="path26743"
       style="font-size:6.43823px;line-height:1.25;font-family:Constantia;-inkscape-font-specification:Constantia;letter-spacing:0.241433px;stroke-width:0.264583" />
    <path
       d="m 93.865052,77.863254 -0.01572,-0.103741 q 0.556429,-0.106885 1.024835,-0.2232 l 0.02829,0.02515 q -0.01886,0.512417 -0.01886,1.42408 v 2.046528 q 0,0.562716 0.0063,0.905376 0.0094,0.09117 0.08802,0.113172 l 0.34266,0.103741 0.0094,0.12889 q -0.424395,-0.0094 -0.732474,-0.0094 -0.30808,0 -0.729331,0.0094 l -0.01257,-0.12889 0.355235,-0.103741 q 0.07859,-0.02515 0.08488,-0.100598 0.0063,-0.355234 0.0063,-0.792204 V 79.86577 q 0,-1.169444 -0.01257,-1.876769 z"
       id="path26745"
       style="font-size:6.43823px;line-height:1.25;font-family:Constantia;-inkscape-font-specification:Constantia;letter-spacing:0.241433px;stroke-width:0.264583" />
    <path
       d="m 47.638431,85.368759 q 0.165645,0.007 0.299571,0.007 0.130401,0 0.350673,-0.007 l 0.007,0.07577 -0.222035,0.06872 q -0.04053,0.0141 -0.04229,0.05991 -0.0035,0.116303 -0.0035,0.292521 v 1.429126 q 0,0.207937 0.0035,0.350674 0.0018,0.04053 0.04934,0.05463 l 0.211461,0.0652 0.0035,0.07577 q -0.232608,-0.0053 -0.444069,-0.0053 -0.207937,0 -0.410587,0.0053 l -0.007,-0.07577 0.20265,-0.06168 q 0.04229,-0.01233 0.04406,-0.06168 0.0035,-0.139212 0.0035,-0.347149 v -1.526046 l -0.87404,2.067035 -0.128639,0.0141 -0.879327,-2.081132 v 1.526046 q 0,0.207937 0.0035,0.347149 0.0018,0.04934 0.04582,0.06168 l 0.197364,0.06168 0.0035,0.07577 q -0.2097,-0.0053 -0.350674,-0.0053 -0.13745,0 -0.364771,0.0053 l -0.007,-0.07577 0.216748,-0.0652 q 0.04582,-0.0141 0.04758,-0.05463 0.0035,-0.142737 0.0035,-0.350674 v -1.429126 q 0,-0.176218 -0.0035,-0.292521 -0.0018,-0.04582 -0.04229,-0.05991 l -0.21851,-0.06872 -0.0035,-0.07577 q 0.227321,0.007 0.359484,0.007 0.151547,0 0.31543,-0.007 l 0.81765,1.933109 z"
       id="path26748"
       style="font-size:3.60894px;line-height:1.25;font-family:Constantia;-inkscape-font-specification:Constantia;letter-spacing:0px;stroke-width:0.264583" />
    <path
       d="m 49.783002,87.680736 q -0.2749,0.204413 -0.5498,0.204413 -0.276662,0 -0.415874,-0.140974 -0.13745,-0.140975 -0.13745,-0.39649 v -0.373582 q 0,-0.377106 -0.007,-0.565659 l -0.23437,-0.06344 -0.0088,-0.05991 q 0.308381,-0.05639 0.570946,-0.123352 l 0.01586,0.01234 q -0.01057,0.206175 -0.01057,0.530416 v 0.560372 q 0,0.213224 0.100444,0.310144 0.100444,0.09516 0.283711,0.09516 0.183266,0 0.375344,-0.09692 v -0.750687 q 0,-0.246705 -0.007,-0.414112 l -0.232607,-0.06344 -0.0088,-0.05991 q 0.306619,-0.05639 0.569183,-0.123352 l 0.01586,0.01234 q -0.01057,0.211462 -0.01057,0.540989 0,0.63967 0.0035,0.780645 0.0018,0.07225 0.01057,0.116303 0.0088,0.04406 0.03348,0.06873 0.02467,0.02291 0.07225,0.03348 0.04934,0.0088 0.130401,0.01057 l 0.0088,0.06873 q -0.08106,0.03172 -0.186791,0.05991 -0.105731,0.02996 -0.144499,0.02996 -0.17798,0 -0.236131,-0.202651 z"
       id="path26750"
       style="font-size:3.60894px;line-height:1.25;font-family:Constantia;-inkscape-font-specification:Constantia;letter-spacing:0px;stroke-width:0.264583" />
    <path
       d="m 51.441211,86.339719 q -0.102207,-0.02819 -0.222035,-0.02819 -0.165645,0 -0.267851,0.0652 -0.100444,0.06344 -0.100444,0.174455 0,0.107493 0.0652,0.169169 0.06696,0.06168 0.246704,0.121591 l 0.144499,0.04934 q 0.243181,0.08282 0.35596,0.190315 0.114541,0.10573 0.114541,0.278424 0,0.244943 -0.190315,0.385917 -0.190315,0.139212 -0.481074,0.139212 -0.267851,0 -0.548037,-0.109255 0.05991,-0.229083 0.09692,-0.447593 l 0.06873,-0.01057 0.126877,0.378868 q 0.100444,0.03877 0.255516,0.03877 0.163882,0 0.260802,-0.06696 0.09868,-0.06696 0.09868,-0.188553 0,-0.112779 -0.06696,-0.17798 -0.0652,-0.0652 -0.209699,-0.112779 l -0.183266,-0.06168 q -0.237894,-0.0793 -0.329528,-0.190315 -0.08987,-0.112779 -0.08987,-0.278424 0,-0.230845 0.174456,-0.363008 0.176218,-0.133926 0.463453,-0.133926 0.267851,0 0.486361,0.07754 -0.04934,0.200888 -0.08987,0.424685 l -0.06696,0.01233 z"
       id="path26752"
       style="font-size:3.60894px;line-height:1.25;font-family:Constantia;-inkscape-font-specification:Constantia;letter-spacing:0px;stroke-width:0.264583" />
    <path
       d="m 52.593675,85.537928 q 0,0.0934 -0.05815,0.15331 -0.05815,0.05815 -0.149785,0.05815 -0.08811,0 -0.144499,-0.05463 -0.05463,-0.05463 -0.05463,-0.144499 0,-0.09516 0.05815,-0.149785 0.05815,-0.05639 0.153309,-0.05639 0.08635,0 0.140974,0.0511 0.05463,0.04934 0.05463,0.142736 z m -0.595616,0.747163 q 0.308381,-0.05815 0.570945,-0.123352 l 0.01586,0.01234 q -0.01057,0.229083 -0.01057,0.503983 v 0.676676 q 0,0.211462 0.0035,0.292522 0.0035,0.04758 0.04406,0.06168 l 0.204412,0.05991 0.0035,0.07225 q -0.243181,-0.0053 -0.415874,-0.0053 -0.172694,0 -0.410588,0.0053 l -0.007,-0.07225 0.204412,-0.05991 q 0.04053,-0.0141 0.04406,-0.05463 0.0035,-0.06872 0.0035,-0.230845 v -0.588567 q 0,-0.230845 -0.007,-0.426447 l -0.234369,-0.06344 z"
       id="path26754"
       style="font-size:3.60894px;line-height:1.25;font-family:Constantia;-inkscape-font-specification:Constantia;letter-spacing:0px;stroke-width:0.264583" />
    <path
       d="m 54.865122,87.841094 q -0.236132,-0.0053 -0.350673,-0.0053 -0.07577,0 -0.200888,0.0035 -0.0652,-0.107493 -0.155072,-0.230845 -0.243181,-0.3401 -0.523367,-0.664341 l 0.636146,-0.616762 -0.195601,-0.05463 -0.007,-0.07049 q 0.227321,0.0053 0.334814,0.0053 0.09692,0 0.368295,-0.0053 l 0.007,0.07225 q -0.177979,0.04582 -0.255515,0.08106 -0.07754,0.03348 -0.181505,0.130401 l -0.377106,0.348911 0.567422,0.708395 q 0.09516,0.118066 0.148022,0.156834 0.05463,0.03877 0.181505,0.06873 z m -1.848524,-2.477621 -0.0088,-0.05815 q 0.311905,-0.05991 0.57447,-0.125115 l 0.01586,0.0141 q -0.01057,0.257278 -0.01057,0.798267 v 1.152464 q 0,0.260802 0.0035,0.511032 0.0035,0.0511 0.04582,0.06168 l 0.170932,0.0511 0.0035,0.07225 q -0.211461,-0.0053 -0.384155,-0.0053 -0.172693,0 -0.408825,0.0053 l -0.007,-0.07225 0.207937,-0.06168 q 0.03524,-0.01233 0.03877,-0.05287 0.0035,-0.199126 0.0035,-0.444068 V 86.48598 q 0,-0.914571 -0.007,-1.05202 z"
       id="path26756"
       style="font-size:3.60894px;line-height:1.25;font-family:Constantia;-inkscape-font-specification:Constantia;letter-spacing:0px;stroke-width:0.264583" />
    <path
       d="m 55.545322,85.537928 q 0,0.0934 -0.05815,0.15331 -0.05815,0.05815 -0.149785,0.05815 -0.08811,0 -0.144498,-0.05463 -0.05463,-0.05463 -0.05463,-0.144499 0,-0.09516 0.05815,-0.149785 0.05815,-0.05639 0.153309,-0.05639 0.08635,0 0.140975,0.0511 0.05463,0.04934 0.05463,0.142736 z m -0.595616,0.747163 q 0.308381,-0.05815 0.570946,-0.123352 l 0.01586,0.01234 q -0.01057,0.229083 -0.01057,0.503983 v 0.676676 q 0,0.211462 0.0035,0.292522 0.0035,0.04758 0.04405,0.06168 l 0.204413,0.05991 0.0035,0.07225 q -0.243181,-0.0053 -0.415874,-0.0053 -0.172693,0 -0.410587,0.0053 l -0.007,-0.07225 0.204413,-0.05991 q 0.04053,-0.0141 0.04405,-0.05463 0.0035,-0.06872 0.0035,-0.230845 v -0.588567 q 0,-0.230845 -0.007,-0.426447 l -0.23437,-0.06344 z"
       id="path26758"
       style="font-size:3.60894px;line-height:1.25;font-family:Constantia;-inkscape-font-specification:Constantia;letter-spacing:0px;stroke-width:0.264583" />
    <path
       d="m 55.971769,86.285091 q 0.296046,-0.05639 0.558611,-0.123352 l 0.01762,0.01234 v 0.204413 q 0.306618,-0.216748 0.570945,-0.216748 0.250229,0 0.391204,0.140974 0.142736,0.139212 0.142736,0.39649 v 0.622049 q 0,0.220272 0.0035,0.326003 0.0018,0.04758 0.04582,0.06168 l 0.195602,0.05991 0.0035,0.07225 q -0.232607,-0.0053 -0.405301,-0.0053 -0.172693,0 -0.384155,0.0053 l -0.007,-0.07225 0.176217,-0.0511 q 0.04053,-0.0141 0.04406,-0.05463 0.0018,-0.02467 0.0018,-0.111017 v -0.768309 q 0,-0.216748 -0.103968,-0.310144 -0.103969,-0.09516 -0.306619,-0.09516 -0.17798,0 -0.368295,0.102206 v 0.770072 q 0,0.220272 0.0035,0.403538 0.0018,0.04758 0.04053,0.05992 l 0.183266,0.05463 0.0035,0.07225 q -0.21851,-0.0053 -0.391204,-0.0053 -0.172693,0 -0.408825,0.0053 l -0.007,-0.07225 0.207937,-0.05991 q 0.03877,-0.01586 0.04053,-0.05463 0.0018,-0.112779 0.0018,-0.216747 v -0.600903 q 0,-0.230845 -0.007,-0.428209 l -0.23437,-0.06344 z"
       id="path26760"
       style="font-size:3.60894px;line-height:1.25;font-family:Constantia;-inkscape-font-specification:Constantia;letter-spacing:0px;stroke-width:0.264583" />
    <path
       d="m 58.976283,86.339719 q -0.102206,-0.02819 -0.222035,-0.02819 -0.165644,0 -0.267851,0.0652 -0.100444,0.06344 -0.100444,0.174455 0,0.107493 0.0652,0.169169 0.06696,0.06168 0.246705,0.121591 l 0.144498,0.04934 q 0.243181,0.08282 0.35596,0.190315 0.114542,0.10573 0.114542,0.278424 0,0.244943 -0.190315,0.385917 -0.190316,0.139212 -0.481075,0.139212 -0.267851,0 -0.548037,-0.109255 0.05991,-0.229083 0.09692,-0.447593 l 0.06873,-0.01057 0.126876,0.378868 q 0.100444,0.03877 0.255516,0.03877 0.163883,0 0.260802,-0.06696 0.09868,-0.06696 0.09868,-0.188553 0,-0.112779 -0.06696,-0.17798 -0.0652,-0.0652 -0.2097,-0.112779 l -0.183266,-0.06168 q -0.237894,-0.0793 -0.329527,-0.190315 -0.08987,-0.112779 -0.08987,-0.278424 0,-0.230845 0.174455,-0.363008 0.176218,-0.133926 0.463453,-0.133926 0.267851,0 0.486361,0.07754 -0.04934,0.200888 -0.08987,0.424685 l -0.06696,0.01233 z"
       id="path26762"
       style="font-size:3.60894px;line-height:1.25;font-family:Constantia;-inkscape-font-specification:Constantia;letter-spacing:0px;stroke-width:0.264583" />
    <path
       d="m 60.061784,86.394346 q -0.01057,0.595617 -0.01057,0.960387 0,0.183267 0.05463,0.253754 0.05463,0.06873 0.207937,0.06873 0.121591,0 0.317192,-0.03172 l 0.01057,0.0793 q -0.304856,0.153309 -0.544512,0.153309 -0.192078,0 -0.285473,-0.102206 -0.0934,-0.103969 -0.0934,-0.311906 0,-0.341862 0.01234,-1.080215 l -0.243181,-0.05991 -0.01057,-0.07225 0.271375,-0.02291 0.121591,-0.426447 q 0.09868,-0.02643 0.179742,-0.0511 l 0.01762,0.01233 q -0.0053,0.213223 -0.0053,0.398252 v 0.0652 H 60.5922 v 0.167406 z"
       id="path26764"
       style="font-size:3.60894px;line-height:1.25;font-family:Constantia;-inkscape-font-specification:Constantia;letter-spacing:0px;stroke-width:0.264583" />
    <path
       d="m 60.807185,86.285091 q 0.294284,-0.05639 0.558611,-0.123352 l 0.01762,0.01234 v 0.206175 q 0.326003,-0.21851 0.639671,-0.21851 l 0.0088,0.01057 q -0.0511,0.262565 -0.100444,0.544513 l -0.07049,0.01233 q -0.04934,-0.149785 -0.09516,-0.239656 -0.04582,-0.09163 -0.144499,-0.09163 -0.09516,0 -0.237894,0.08811 v 0.763023 q 0,0.274899 0.0035,0.392965 0.0018,0.04758 0.04405,0.05991 l 0.23437,0.06696 0.0053,0.07225 q -0.274899,-0.0053 -0.447593,-0.0053 -0.172693,0 -0.408825,0.0053 l -0.007,-0.07225 0.204413,-0.05991 q 0.04229,-0.0141 0.04405,-0.05463 0.0018,-0.07577 0.0018,-0.216747 v -0.600903 q 0,-0.287235 -0.007,-0.428209 L 60.816095,86.345 Z"
       id="path26766"
       style="font-size:3.60894px;line-height:1.25;font-family:Constantia;-inkscape-font-specification:Constantia;letter-spacing:0px;stroke-width:0.264583" />
    <path
       d="m 63.490981,87.680736 q -0.2749,0.204413 -0.5498,0.204413 -0.276662,0 -0.415874,-0.140974 -0.137449,-0.140975 -0.137449,-0.39649 v -0.373582 q 0,-0.377106 -0.007,-0.565659 l -0.23437,-0.06344 -0.0088,-0.05991 q 0.308381,-0.05639 0.570946,-0.123352 l 0.01586,0.01234 q -0.01057,0.206175 -0.01057,0.530416 v 0.560372 q 0,0.213224 0.100445,0.310144 0.100444,0.09516 0.28371,0.09516 0.183267,0 0.375344,-0.09692 v -0.750687 q 0,-0.246705 -0.007,-0.414112 l -0.232607,-0.06344 -0.0088,-0.05991 q 0.306619,-0.05639 0.569183,-0.123352 l 0.01586,0.01234 q -0.01057,0.211462 -0.01057,0.540989 0,0.63967 0.0035,0.780645 0.0018,0.07225 0.01057,0.116303 0.0088,0.04406 0.03348,0.06873 0.02467,0.02291 0.07225,0.03348 0.04934,0.0088 0.130401,0.01057 l 0.0088,0.06873 q -0.08106,0.03172 -0.186791,0.05991 -0.10573,0.02996 -0.144498,0.02996 -0.17798,0 -0.236132,-0.202651 z"
       id="path26768"
       style="font-size:3.60894px;line-height:1.25;font-family:Constantia;-inkscape-font-specification:Constantia;letter-spacing:0px;stroke-width:0.264583" />
    <path
       d="m 65.862874,86.505364 q 0.02467,0.08458 0.02467,0.190315 v 0.629097 q 0,0.206175 0.0035,0.33129 0.0035,0.04758 0.04582,0.06168 l 0.17798,0.0511 0.0035,0.07225 q -0.214985,-0.0053 -0.387679,-0.0053 -0.172693,0 -0.384154,0.0053 l -0.007,-0.07225 0.167407,-0.04934 q 0.0511,-0.01762 0.05287,-0.05639 0.0018,-0.02467 0.0018,-0.111017 V 86.78379 q 0,-0.216748 -0.09868,-0.310144 -0.09868,-0.09516 -0.292521,-0.09516 -0.170931,0 -0.348911,0.102206 v 0.770072 q 0,0.220272 0.0035,0.403538 0.0018,0.05287 0.03701,0.05992 l 0.186791,0.05463 0.0035,0.07225 q -0.21851,-0.0053 -0.391204,-0.0053 -0.172693,0 -0.408825,0.0053 l -0.007,-0.07225 0.20265,-0.05991 q 0.04405,-0.01234 0.04582,-0.05463 0.0018,-0.0934 0.0018,-0.216747 v -0.600903 q 0,-0.230845 -0.007,-0.428209 l -0.23437,-0.06344 -0.0088,-0.05991 q 0.290759,-0.05639 0.556848,-0.123352 l 0.01762,0.01234 v 0.204413 q 0.288998,-0.216748 0.548038,-0.216748 0.317192,0 0.458166,0.244943 0.278424,-0.244943 0.604427,-0.244943 0.244943,0 0.382392,0.139212 0.139212,0.13745 0.139212,0.394728 v 0.623811 q 0,0.222034 0.0035,0.327765 0.0035,0.04758 0.04758,0.06168 l 0.195601,0.05991 0.0035,0.07225 q -0.232608,-0.0053 -0.405301,-0.0053 -0.174456,0 -0.384155,0.0053 l -0.007,-0.07225 0.174456,-0.0511 q 0.04053,-0.0141 0.04582,-0.05463 0.0018,-0.02467 0.0018,-0.111017 v -0.768309 q 0,-0.216748 -0.100444,-0.310144 -0.100445,-0.09516 -0.296046,-0.09516 -0.197364,0 -0.368295,0.126877 z"
       id="path26770"
       style="font-size:3.60894px;line-height:1.25;font-family:Constantia;-inkscape-font-specification:Constantia;letter-spacing:0px;stroke-width:0.264583" />
    <path
       d="m 68.858575,87.710693 q -0.149785,0.0934 -0.308381,0.133926 -0.158596,0.04053 -0.294284,0.04053 -0.387679,0 -0.618524,-0.220272 -0.230845,-0.222035 -0.230845,-0.615 0,-0.391204 0.220272,-0.639671 0.222034,-0.248467 0.592091,-0.248467 0.310144,0 0.482837,0.186791 0.172694,0.185028 0.172694,0.512794 0,0.04934 -0.0053,0.100444 h -1.117221 q 0,0.378868 0.17798,0.54275 0.17798,0.162121 0.556848,0.162121 0.169169,0 0.361247,-0.03172 z m -0.334814,-0.895186 v -0.05286 q 0,-0.25023 -0.08106,-0.357722 -0.0793,-0.107493 -0.237894,-0.107493 -0.209699,0 -0.320716,0.151547 -0.111018,0.151547 -0.125115,0.366533 z"
       id="path26772"
       style="font-size:3.60894px;line-height:1.25;font-family:Constantia;-inkscape-font-specification:Constantia;letter-spacing:0px;stroke-width:0.264583" />
    <path
       d="m 69.099994,86.285091 q 0.296046,-0.05639 0.55861,-0.123352 l 0.01762,0.01234 v 0.204413 q 0.306619,-0.216748 0.570945,-0.216748 0.25023,0 0.391204,0.140974 0.142736,0.139212 0.142736,0.39649 v 0.622049 q 0,0.220272 0.0035,0.326003 0.0018,0.04758 0.04582,0.06168 l 0.195602,0.05991 0.0035,0.07225 q -0.232607,-0.0053 -0.405301,-0.0053 -0.172693,0 -0.384154,0.0053 l -0.007,-0.07225 0.176218,-0.0511 q 0.04053,-0.0141 0.04405,-0.05463 0.0018,-0.02467 0.0018,-0.111017 v -0.768309 q 0,-0.216748 -0.103968,-0.310144 -0.103969,-0.09516 -0.306619,-0.09516 -0.17798,0 -0.368295,0.102206 v 0.770072 q 0,0.220272 0.0035,0.403538 0.0018,0.04758 0.04053,0.05992 l 0.183267,0.05463 0.0035,0.07225 q -0.21851,-0.0053 -0.391203,-0.0053 -0.172694,0 -0.408826,0.0053 l -0.007,-0.07225 0.207937,-0.05991 q 0.03877,-0.01586 0.04053,-0.05463 0.0018,-0.112779 0.0018,-0.216747 v -0.600903 q 0,-0.230845 -0.007,-0.428209 l -0.234369,-0.06344 z"
       id="path26774"
       style="font-size:3.60894px;line-height:1.25;font-family:Constantia;-inkscape-font-specification:Constantia;letter-spacing:0px;stroke-width:0.264583" />
    <path
       d="m 71.729162,86.394346 q -0.01057,0.595617 -0.01057,0.960387 0,0.183267 0.05463,0.253754 0.05463,0.06873 0.207937,0.06873 0.12159,0 0.317192,-0.03172 l 0.01057,0.0793 q -0.304857,0.153309 -0.544513,0.153309 -0.192077,0 -0.285473,-0.102206 -0.0934,-0.103969 -0.0934,-0.311906 0,-0.341862 0.01234,-1.080215 l -0.24318,-0.05991 -0.01057,-0.07225 0.271376,-0.02291 0.12159,-0.426447 q 0.09868,-0.02643 0.179742,-0.0511 l 0.01762,0.01233 q -0.0053,0.213223 -0.0053,0.398252 v 0.0652 h 0.530416 v 0.167406 z"
       id="path26776"
       style="font-size:3.60894px;line-height:1.25;font-family:Constantia;-inkscape-font-specification:Constantia;letter-spacing:0px;stroke-width:0.264583" />
    <path
       d="m 73.908977,87.710693 q -0.149785,0.0934 -0.308381,0.133926 -0.158596,0.04053 -0.294284,0.04053 -0.387679,0 -0.618525,-0.220272 -0.230845,-0.222035 -0.230845,-0.615 0,-0.391204 0.220272,-0.639671 0.222035,-0.248467 0.592092,-0.248467 0.310143,0 0.482837,0.186791 0.172693,0.185028 0.172693,0.512794 0,0.04934 -0.0053,0.100444 h -1.117221 q 0,0.378868 0.17798,0.54275 0.17798,0.162121 0.556848,0.162121 0.169169,0 0.361247,-0.03172 z m -0.334814,-0.895186 v -0.05286 q 0,-0.25023 -0.08106,-0.357722 -0.0793,-0.107493 -0.237894,-0.107493 -0.209699,0 -0.320717,0.151547 -0.111017,0.151547 -0.125114,0.366533 z"
       id="path26778"
       style="font-size:3.60894px;line-height:1.25;font-family:Constantia;-inkscape-font-specification:Constantia;letter-spacing:0px;stroke-width:0.264583" />
    <path
       d="m 74.150395,86.285091 q 0.296046,-0.05639 0.558611,-0.123352 l 0.01762,0.01234 v 0.204413 q 0.306618,-0.216748 0.570945,-0.216748 0.250229,0 0.391204,0.140974 0.142736,0.139212 0.142736,0.39649 v 0.622049 q 0,0.220272 0.0035,0.326003 0.0018,0.04758 0.04582,0.06168 l 0.195602,0.05991 0.0035,0.07225 q -0.232607,-0.0053 -0.405301,-0.0053 -0.172693,0 -0.384155,0.0053 l -0.007,-0.07225 0.176217,-0.0511 q 0.04053,-0.0141 0.04406,-0.05463 0.0018,-0.02467 0.0018,-0.111017 v -0.768309 q 0,-0.216748 -0.103968,-0.310144 -0.103969,-0.09516 -0.306619,-0.09516 -0.17798,0 -0.368295,0.102206 v 0.770072 q 0,0.220272 0.0035,0.403538 0.0018,0.04758 0.04053,0.05992 l 0.183266,0.05463 0.0035,0.07225 q -0.21851,-0.0053 -0.391204,-0.0053 -0.172693,0 -0.408825,0.0053 l -0.007,-0.07225 0.207937,-0.05991 q 0.03877,-0.01586 0.04053,-0.05463 0.0018,-0.112779 0.0018,-0.216747 v -0.600903 q 0,-0.230845 -0.007,-0.428209 l -0.23437,-0.06344 z"
       id="path26780"
       style="font-size:3.60894px;line-height:1.25;font-family:Constantia;-inkscape-font-specification:Constantia;letter-spacing:0px;stroke-width:0.264583" />
    <path
       d="m 76.307301,86.845464 h 0.97977 v 0.229083 h -0.97977 z"
       id="path26782"
       style="font-size:3.60894px;line-height:1.25;font-family:Constantia;-inkscape-font-specification:Constantia;letter-spacing:0px;stroke-width:0.264583" />
    <path
       d="m 78.231599,87.294819 q 0,0.207937 0.0035,0.341863 0.0018,0.04229 0.04582,0.05463 l 0.243181,0.07401 0.0035,0.07577 q -0.255515,-0.0053 -0.465215,-0.0053 -0.209699,0 -0.43702,0.0053 l -0.007,-0.07577 0.216748,-0.0652 q 0.04582,-0.0141 0.04758,-0.05463 0.0035,-0.142737 0.0035,-0.350674 v -1.429126 q 0,-0.08987 -0.0018,-0.16212 0,-0.07225 -0.0018,-0.130401 -0.0018,-0.04582 -0.04229,-0.05991 l -0.21851,-0.06872 -0.0035,-0.07577 q 0.227321,0.007 0.43702,0.007 h 0.428209 q 0.394728,0 0.83351,-0.007 l 0.01057,0.0141 -0.102206,0.544513 -0.07049,0.01234 -0.109255,-0.407063 h -0.814126 v 1.006203 h 0.169169 q 0.183266,0 0.408825,-0.0035 0.04758,-0.0018 0.05991,-0.04582 l 0.07225,-0.237894 0.08459,-0.0035 q -0.0053,0.246705 -0.0053,0.36477 0,0.114542 0.0053,0.359485 l -0.08459,0.007 -0.07401,-0.241418 q -0.0141,-0.04582 -0.05287,-0.04758 -0.230845,-0.0035 -0.415874,-0.0035 h -0.167406 z"
       id="path26784"
       style="font-size:3.60894px;line-height:1.25;font-family:Constantia;-inkscape-font-specification:Constantia;letter-spacing:0px;stroke-width:0.264583" />
    <path
       d="m 80.328589,87.037541 q -0.385917,0 -0.526891,0.07577 -0.140974,0.07577 -0.140974,0.255516 0,0.167407 0.0934,0.237894 0.0934,0.06873 0.253754,0.06873 0.181504,0 0.317192,-0.06168 z m -0.854656,-0.726017 q 0.343624,-0.149785 0.607951,-0.149785 0.269613,0 0.419398,0.140974 0.151548,0.140974 0.149786,0.407063 l -0.0088,0.733066 q -0.0018,0.08987 0.0035,0.144499 0.007,0.05463 0.03172,0.08458 0.02643,0.02819 0.07754,0.04053 0.0511,0.01057 0.13745,0.01234 l 0.0088,0.06873 q -0.07577,0.02996 -0.185029,0.05991 -0.109255,0.02996 -0.148023,0.02996 -0.170931,0 -0.234369,-0.176218 -0.246705,0.17798 -0.465215,0.17798 -0.244943,0 -0.394728,-0.119828 -0.148023,-0.121591 -0.148023,-0.341863 0,-0.271375 0.241418,-0.400014 0.243181,-0.128639 0.761261,-0.128639 l 0.0018,-0.13745 q 0.0018,-0.197364 -0.100444,-0.292521 -0.102206,-0.09516 -0.313668,-0.09516 -0.160358,0 -0.401776,0.05991 z"
       id="path26786"
       style="font-size:3.60894px;line-height:1.25;font-family:Constantia;-inkscape-font-specification:Constantia;letter-spacing:0px;stroke-width:0.264583" />
    <path
       d="m 81.607929,87.686023 q 0.142736,0.04582 0.288997,0.04582 0.296046,0 0.444069,-0.181504 0.149785,-0.181504 0.149785,-0.519842 0,-0.310144 -0.13745,-0.482837 -0.13745,-0.172693 -0.407063,-0.172693 -0.172693,0 -0.338338,0.07754 z m 0.01057,-2.49172 q -0.01057,0.264327 -0.01057,0.794743 v 0.357722 q 0.283711,-0.185029 0.519842,-0.185029 0.33129,0 0.523367,0.222034 0.192078,0.222035 0.192078,0.579757 0,0.435258 -0.248467,0.678438 -0.246705,0.241419 -0.685488,0.241419 -0.292521,0 -0.630859,-0.100445 0.0035,-0.223796 0.0035,-0.576232 v -1.044971 q 0,-0.389441 -0.007,-0.727779 l -0.237894,-0.07049 -0.0088,-0.05815 q 0.288997,-0.05463 0.572707,-0.125115 z"
       id="path26788"
       style="font-size:3.60894px;line-height:1.25;font-family:Constantia;-inkscape-font-specification:Constantia;letter-spacing:0px;stroke-width:0.264583" />
    <path
       d="m 83.086398,86.285091 q 0.294284,-0.05639 0.558611,-0.123352 l 0.01762,0.01234 v 0.206175 q 0.326003,-0.21851 0.639671,-0.21851 l 0.0088,0.01057 q -0.0511,0.262565 -0.100444,0.544513 l -0.07049,0.01233 q -0.04934,-0.149785 -0.09516,-0.239656 -0.04582,-0.09163 -0.144499,-0.09163 -0.09516,0 -0.237894,0.08811 v 0.763023 q 0,0.274899 0.0035,0.392965 0.0018,0.04758 0.04405,0.05991 l 0.23437,0.06696 0.0053,0.07225 q -0.274899,-0.0053 -0.447593,-0.0053 -0.172693,0 -0.408825,0.0053 l -0.007,-0.07225 0.204413,-0.05991 q 0.04229,-0.0141 0.04405,-0.05463 0.0018,-0.07577 0.0018,-0.216747 v -0.600903 q 0,-0.287235 -0.007,-0.428209 L 83.095308,86.345 Z"
       id="path26790"
       style="font-size:3.60894px;line-height:1.25;font-family:Constantia;-inkscape-font-specification:Constantia;letter-spacing:0px;stroke-width:0.264583" />
    <path
       d="m 85.065323,85.537928 q 0,0.0934 -0.05815,0.15331 -0.05815,0.05815 -0.149785,0.05815 -0.08811,0 -0.144499,-0.05463 -0.05463,-0.05463 -0.05463,-0.144499 0,-0.09516 0.05815,-0.149785 0.05815,-0.05639 0.15331,-0.05639 0.08635,0 0.140974,0.0511 0.05463,0.04934 0.05463,0.142736 z m -0.595616,0.747163 q 0.308381,-0.05815 0.570945,-0.123352 l 0.01586,0.01234 q -0.01057,0.229083 -0.01057,0.503983 v 0.676676 q 0,0.211462 0.0035,0.292522 0.0035,0.04758 0.04406,0.06168 l 0.204412,0.05991 0.0035,0.07225 q -0.24318,-0.0053 -0.415873,-0.0053 -0.172694,0 -0.410588,0.0053 l -0.007,-0.07225 0.204413,-0.05991 q 0.04053,-0.0141 0.04405,-0.05463 0.0035,-0.06872 0.0035,-0.230845 v -0.588567 q 0,-0.230845 -0.007,-0.426447 l -0.23437,-0.06344 z"
       id="path26792"
       style="font-size:3.60894px;line-height:1.25;font-family:Constantia;-inkscape-font-specification:Constantia;letter-spacing:0px;stroke-width:0.264583" />
    <path
       d="m 87.336771,87.841094 q -0.236132,-0.0053 -0.350674,-0.0053 -0.07577,0 -0.200888,0.0035 -0.0652,-0.107493 -0.155071,-0.230845 -0.243181,-0.3401 -0.523367,-0.664341 l 0.636146,-0.616762 -0.195602,-0.05463 -0.007,-0.07049 q 0.22732,0.0053 0.334813,0.0053 0.09692,0 0.368295,-0.0053 l 0.007,0.07225 q -0.17798,0.04582 -0.255516,0.08106 -0.07753,0.03348 -0.181504,0.130401 l -0.377106,0.348911 0.567421,0.708395 q 0.09516,0.118066 0.148023,0.156834 0.05463,0.03877 0.181504,0.06873 z m -1.848525,-2.477621 -0.0088,-0.05815 q 0.311905,-0.05991 0.574469,-0.125115 l 0.01586,0.0141 q -0.01057,0.257278 -0.01057,0.798267 v 1.152464 q 0,0.260802 0.0035,0.511032 0.0035,0.0511 0.04582,0.06168 l 0.170931,0.0511 0.0035,0.07225 q -0.211462,-0.0053 -0.384155,-0.0053 -0.172694,0 -0.408825,0.0053 l -0.007,-0.07225 0.207937,-0.06168 q 0.03524,-0.01233 0.03877,-0.05287 0.0035,-0.199126 0.0035,-0.444068 V 86.48598 q 0,-0.914571 -0.007,-1.05202 z"
       id="path26794"
       style="font-size:3.60894px;line-height:1.25;font-family:Constantia;-inkscape-font-specification:Constantia;letter-spacing:0px;stroke-width:0.264583" />
    <path
       d="m 88.406413,87.037541 q -0.385917,0 -0.526891,0.07577 -0.140975,0.07577 -0.140975,0.255516 0,0.167407 0.0934,0.237894 0.0934,0.06873 0.253753,0.06873 0.181505,0 0.317192,-0.06168 z m -0.854657,-0.726017 q 0.343625,-0.149785 0.607952,-0.149785 0.269613,0 0.419398,0.140974 0.151547,0.140974 0.149785,0.407063 l -0.0088,0.733066 q -0.0018,0.08987 0.0035,0.144499 0.007,0.05463 0.03172,0.08458 0.02643,0.02819 0.07754,0.04053 0.0511,0.01057 0.13745,0.01234 l 0.0088,0.06873 q -0.07577,0.02996 -0.185028,0.05991 -0.109255,0.02996 -0.148023,0.02996 -0.170931,0 -0.23437,-0.176218 -0.246705,0.17798 -0.465215,0.17798 -0.244942,0 -0.394728,-0.119828 -0.148022,-0.121591 -0.148022,-0.341863 0,-0.271375 0.241418,-0.400014 0.24318,-0.128639 0.761261,-0.128639 l 0.0018,-0.13745 q 0.0018,-0.197364 -0.100444,-0.292521 -0.102207,-0.09516 -0.313668,-0.09516 -0.160358,0 -0.401776,0.05991 z"
       id="path26796"
       style="font-size:3.60894px;line-height:1.25;font-family:Constantia;-inkscape-font-specification:Constantia;letter-spacing:0px;stroke-width:0.264583" />
    <path
       d="m 89.682228,86.394346 q -0.01057,0.595617 -0.01057,0.960387 0,0.183267 0.05463,0.253754 0.05463,0.06873 0.207937,0.06873 0.12159,0 0.317192,-0.03172 l 0.01057,0.0793 q -0.304857,0.153309 -0.544513,0.153309 -0.192077,0 -0.285473,-0.102206 -0.0934,-0.103969 -0.0934,-0.311906 0,-0.341862 0.01233,-1.080215 l -0.243181,-0.05991 -0.01057,-0.07225 0.271376,-0.02291 0.12159,-0.426447 q 0.09868,-0.02643 0.179742,-0.0511 l 0.01762,0.01233 q -0.0053,0.213223 -0.0053,0.398252 v 0.0652 h 0.530416 v 0.167406 z"
       id="path26798"
       style="font-size:3.60894px;line-height:1.25;font-family:Constantia;-inkscape-font-specification:Constantia;letter-spacing:0px;stroke-width:0.264583" />
    <path
       d="m 91.023247,85.537928 q 0,0.0934 -0.05815,0.15331 -0.05815,0.05815 -0.149785,0.05815 -0.08811,0 -0.144499,-0.05463 -0.05463,-0.05463 -0.05463,-0.144499 0,-0.09516 0.05815,-0.149785 0.05815,-0.05639 0.15331,-0.05639 0.08635,0 0.140974,0.0511 0.05463,0.04934 0.05463,0.142736 z m -0.595617,0.747163 q 0.308382,-0.05815 0.570946,-0.123352 l 0.01586,0.01234 q -0.01057,0.229083 -0.01057,0.503983 v 0.676676 q 0,0.211462 0.0035,0.292522 0.0035,0.04758 0.04405,0.06168 l 0.204413,0.05991 0.0035,0.07225 q -0.24318,-0.0053 -0.415874,-0.0053 -0.172693,0 -0.410587,0.0053 l -0.007,-0.07225 0.204413,-0.05991 q 0.04053,-0.0141 0.04405,-0.05463 0.0035,-0.06872 0.0035,-0.230845 v -0.588567 q 0,-0.230845 -0.007,-0.426447 l -0.23437,-0.06344 z"
       id="path26800"
       style="font-size:3.60894px;line-height:1.25;font-family:Constantia;-inkscape-font-specification:Constantia;letter-spacing:0px;stroke-width:0.264583" />
    <path
       d="m 91.842657,87.00406 q 0,0.329527 0.123352,0.537464 0.123352,0.206175 0.366533,0.206175 0.227321,0 0.345387,-0.181504 0.119828,-0.183267 0.119828,-0.540989 0,-0.336576 -0.125115,-0.530415 -0.125114,-0.19384 -0.363008,-0.19384 -0.225559,0 -0.347149,0.174456 -0.119828,0.174455 -0.119828,0.528653 z m 1.314584,-0.01586 q 0,0.401777 -0.24318,0.650244 -0.241419,0.246705 -0.615,0.246705 -0.364771,0 -0.59033,-0.232608 -0.223797,-0.234369 -0.223797,-0.611475 0,-0.387679 0.23437,-0.632622 0.236132,-0.246705 0.623811,-0.246705 0.366533,0 0.590329,0.227321 0.223797,0.225559 0.223797,0.59914 z"
       id="path26802"
       style="font-size:3.60894px;line-height:1.25;font-family:Constantia;-inkscape-font-specification:Constantia;letter-spacing:0px;stroke-width:0.264583" />
    <path
       d="m 93.400424,86.285091 q 0.296046,-0.05639 0.55861,-0.123352 l 0.01762,0.01234 v 0.204413 q 0.306619,-0.216748 0.570946,-0.216748 0.250229,0 0.391203,0.140974 0.142737,0.139212 0.142737,0.39649 v 0.622049 q 0,0.220272 0.0035,0.326003 0.0018,0.04758 0.04582,0.06168 l 0.195601,0.05991 0.0035,0.07225 q -0.232608,-0.0053 -0.405301,-0.0053 -0.172694,0 -0.384155,0.0053 l -0.007,-0.07225 0.176218,-0.0511 q 0.04053,-0.0141 0.04406,-0.05463 0.0018,-0.02467 0.0018,-0.111017 v -0.768309 q 0,-0.216748 -0.103969,-0.310144 -0.103968,-0.09516 -0.306619,-0.09516 -0.17798,0 -0.368295,0.102206 v 0.770072 q 0,0.220272 0.0035,0.403538 0.0018,0.04758 0.04053,0.05992 l 0.183266,0.05463 0.0035,0.07225 q -0.21851,-0.0053 -0.391203,-0.0053 -0.172693,0 -0.408825,0.0053 l -0.007,-0.07225 0.207937,-0.05991 q 0.03877,-0.01586 0.04053,-0.05463 0.0018,-0.112779 0.0018,-0.216747 v -0.600903 q 0,-0.230845 -0.007,-0.428209 l -0.23437,-0.06344 z"
       id="path26804"
       style="font-size:3.60894px;line-height:1.25;font-family:Constantia;-inkscape-font-specification:Constantia;letter-spacing:0px;stroke-width:0.264583" />
  </g>
</svg>
