<?xml version="1.0" encoding="UTF-8" standalone="no"?>
<svg
   xmlns:dc="http://purl.org/dc/elements/1.1/"
   xmlns:cc="http://creativecommons.org/ns#"
   xmlns:rdf="http://www.w3.org/1999/02/22-rdf-syntax-ns#"
   xmlns:svg="http://www.w3.org/2000/svg"
   xmlns="http://www.w3.org/2000/svg"
   xmlns:sodipodi="http://sodipodi.sourceforge.net/DTD/sodipodi-0.dtd"
   xmlns:inkscape="http://www.inkscape.org/namespaces/inkscape"
   width="115.6525mm"
   height="100.00012mm"
   viewBox="0 0 115.6525 100.00012"
   version="1.1"
   id="svg8"
   inkscape:version="1.0 (4035a4fb49, 2020-05-01)"
   sodipodi:docname="rott.svg">
  <defs
     id="defs2">
    <inkscape:path-effect
       only_selected="false"
       apply_with_weight="true"
       apply_no_weight="true"
       helper_size="0"
       steps="2"
       weight="33.333333"
       lpeversion="1"
       is_visible="true"
       id="path-effect1008"
       effect="bspline" />
    <inkscape:path-effect
       only_selected="false"
       apply_with_weight="true"
       apply_no_weight="true"
       helper_size="0"
       steps="2"
       weight="33.333333"
       lpeversion="1"
       is_visible="true"
       id="path-effect983"
       effect="bspline" />
    <inkscape:path-effect
       only_selected="false"
       apply_with_weight="true"
       apply_no_weight="true"
       helper_size="0"
       steps="2"
       weight="33.333333"
       lpeversion="1"
       is_visible="true"
       id="path-effect956"
       effect="bspline" />
    <inkscape:path-effect
       only_selected="false"
       apply_with_weight="true"
       apply_no_weight="true"
       helper_size="0"
       steps="2"
       weight="33.333333"
       lpeversion="1"
       is_visible="true"
       id="path-effect93"
       effect="bspline" />
    <inkscape:path-effect
       only_selected="false"
       apply_with_weight="true"
       apply_no_weight="true"
       helper_size="0"
       steps="2"
       weight="33.333333"
       lpeversion="1"
       is_visible="true"
       id="path-effect73"
       effect="bspline" />
    <inkscape:path-effect
       effect="bspline"
       id="path-effect54"
       is_visible="true"
       lpeversion="1"
       weight="33.333333"
       steps="2"
       helper_size="0"
       apply_no_weight="true"
       apply_with_weight="true"
       only_selected="false" />
    <inkscape:path-effect
       effect="bspline"
       id="path-effect50"
       is_visible="true"
       lpeversion="1"
       weight="33.333333"
       steps="2"
       helper_size="0"
       apply_no_weight="true"
       apply_with_weight="true"
       only_selected="false" />
    <inkscape:path-effect
       effect="bspline"
       id="path-effect46"
       is_visible="true"
       lpeversion="1"
       weight="33.333333"
       steps="2"
       helper_size="0"
       apply_no_weight="true"
       apply_with_weight="true"
       only_selected="false" />
    <inkscape:path-effect
       effect="bspline"
       id="path-effect42"
       is_visible="true"
       lpeversion="1"
       weight="33.333333"
       steps="2"
       helper_size="0"
       apply_no_weight="true"
       apply_with_weight="true"
       only_selected="false" />
    <inkscape:path-effect
       effect="bspline"
       id="path-effect38"
       is_visible="true"
       lpeversion="1"
       weight="33.333333"
       steps="2"
       helper_size="0"
       apply_no_weight="true"
       apply_with_weight="true"
       only_selected="false" />
    <inkscape:path-effect
       effect="bspline"
       id="path-effect34"
       is_visible="true"
       lpeversion="1"
       weight="33.333333"
       steps="2"
       helper_size="0"
       apply_no_weight="true"
       apply_with_weight="true"
       only_selected="false" />
    <inkscape:path-effect
       effect="bspline"
       id="path-effect30"
       is_visible="true"
       lpeversion="1"
       weight="33.333333"
       steps="2"
       helper_size="0"
       apply_no_weight="true"
       apply_with_weight="true"
       only_selected="false" />
    <inkscape:path-effect
       effect="bspline"
       id="path-effect26"
       is_visible="true"
       lpeversion="1"
       weight="33.333333"
       steps="2"
       helper_size="0"
       apply_no_weight="true"
       apply_with_weight="true"
       only_selected="false" />
  </defs>
  <sodipodi:namedview
     id="base"
     pagecolor="#ffffff"
     bordercolor="#666666"
     borderopacity="1.0"
     inkscape:pageopacity="0.0"
     inkscape:pageshadow="2"
     inkscape:zoom="0.64"
     inkscape:cx="105.46058"
     inkscape:cy="195.18937"
     inkscape:document-units="mm"
     inkscape:current-layer="layer1"
     inkscape:document-rotation="0"
     showgrid="false"
     inkscape:snap-midpoints="true"
     fit-margin-top="0"
     fit-margin-left="0"
     fit-margin-right="0"
     fit-margin-bottom="0"
     inkscape:window-width="1366"
     inkscape:window-height="705"
     inkscape:window-x="-8"
     inkscape:window-y="-8"
     inkscape:window-maximized="1" />
  <metadata
     id="metadata5">
    <rdf:RDF>
      <cc:Work
         rdf:about="">
        <dc:format>image/svg+xml</dc:format>
        <dc:type
           rdf:resource="http://purl.org/dc/dcmitype/StillImage" />
        <dc:title></dc:title>
      </cc:Work>
    </rdf:RDF>
  </metadata>
  <g
     inkscape:label="Capa 1"
     inkscape:groupmode="layer"
     id="layer1"
     transform="translate(-286.1793,23.976566)">
    <g
       id="g1018"
       transform="matrix(2.7520309,0,0,2.7520309,-703.19419,-592.51565)">
      <path
         style="fill:#ffffff;stroke:#000000;stroke-width:0.499999;stroke-linecap:square;stroke-linejoin:miter;stroke-miterlimit:4;stroke-dasharray:none;stroke-opacity:1;paint-order:normal"
         d="m 361.4076,224.82245 c -0.14161,-0.13373 -0.42509,-0.40146 -0.73227,-0.92115 -0.30718,-0.5197 -0.63789,-1.29137 -0.80333,-2.20485 -0.16544,-0.91348 -0.16544,-1.96864 0.0865,-2.96093 0.25196,-0.99228 0.75592,-1.92145 1.29926,-2.93727 0.54335,-1.01582 1.12606,-2.11822 1.47256,-3.14185 0.3465,-1.02363 0.45674,-1.96856 0.39381,-2.77173 -0.0629,-0.80316 -0.29927,-1.46494 -0.53551,-2.1264 0,0 0,0 0,0 0.78745,-0.26773 1.57506,-0.53551 2.43276,-0.70868 0.8577,-0.17316 1.78822,-0.25202 2.77108,-0.18928 0.98286,0.0627 2.02525,0.26806 2.95445,0.66975 0.9292,0.40168 1.74814,1.00014 2.41742,1.69314 0.66929,0.69301 1.18901,1.48045 1.55121,2.09467 0.3622,0.61422 0.56678,1.05487 0.77152,1.49584 0.39373,-0.22049 0.78754,-0.44102 1.35452,-0.70876 0.56699,-0.26774 1.30718,-0.58271 2.24429,-0.86619 0.93711,-0.28348 2.07101,-0.53546 3.29159,-0.73232 1.22058,-0.19686 2.5277,-0.33859 3.73255,-0.33856 1.20485,3e-5 2.30726,0.14177 3.44121,0.40954 1.13395,0.26777 2.29936,0.66149 3.45691,1.24425 1.15755,0.58276 2.30721,1.35445 3.26789,2.16557 0.96067,0.81112 1.73236,1.66155 2.42529,2.59864 0.69292,0.93708 1.30712,1.96076 1.72442,2.92145 0.4173,0.9607 0.63778,1.85838 0.75588,2.89781 0.11809,1.03944 0.13386,2.22056 0.0315,3.33872 -0.10238,1.11816 -0.32286,2.17333 -0.63785,3.09462 -0.31499,0.92128 -0.72442,1.70864 -1.1339,2.49611 0,0 0,0 0,0 -0.36222,-0.15749 -0.72413,-0.31484 -1.24387,-0.38579 -0.51974,-0.071 -1.19694,-0.0552 -1.91355,0.0392 -0.71662,0.0945 -1.47256,0.2677 -2.27581,0.55906 -0.80325,0.29135 -1.65368,0.70081 -2.42543,1.16543 -0.77174,0.46461 -1.46468,0.98432 -2.24425,1.53553 -0.77957,0.55122 -1.64577,1.13393 -2.4017,1.59064 -0.75594,0.45672 -1.40804,0.79072 -2.09777,1.0647 -0.68972,0.27397 -1.44438,0.49876 -2.23244,0.63837 -0.78806,0.1396 -1.65417,0.20376 -2.46526,0.17958 -0.8111,-0.0242 -1.61397,-0.13657 -2.32282,-0.3323 -0.70886,-0.19573 -1.35489,-0.47936 -2.0006,-0.76284 0,0 0,0 0,0 -0.14174,0.42522 -0.28353,0.85059 -0.49614,1.31516 -0.21262,0.46457 -0.4961,0.96853 -0.88981,1.51184 -0.39371,0.54331 -0.89766,1.12601 -1.5512,1.64569 -0.65354,0.51969 -1.45673,0.9764 -2.34647,1.24415 -0.88974,0.26776 -1.86616,0.3465 -2.7796,0.33078 -0.91343,-0.0157 -1.76386,-0.12596 -2.48831,-0.29129 -0.72445,-0.16532 -1.32323,-0.38592 -1.9217,-0.60641 0,0 0,0 0,0 0.1575,-0.34648 0.31494,-0.69283 0.39371,-1.13374 0.0788,-0.44091 0.0788,-0.97636 -0.0157,-1.5433 -0.0944,-0.56695 -0.28343,-1.1654 -0.57477,-1.88199 -0.29133,-0.71658 -0.68505,-1.55127 -1.09453,-2.3781 -0.40947,-0.82683 -0.83468,-1.64577 -1.18006,-2.38323 -0.34539,-0.73747 -0.61534,-1.40439 -0.77288,-2.1525 -0.15755,-0.74811 -0.2048,-1.58278 -0.0867,-2.33094 0.11809,-0.74816 0.40156,-1.40962 0.68506,-1.8979 0.28351,-0.48827 0.56699,-0.80325 0.70873,-0.96075 0.14175,-0.15749 0.14171,-0.15749 1.1e-4,-0.29123 z"
         id="path40-7"
         inkscape:path-effect="#path-effect1008"
         inkscape:original-d="m 361.5492,224.95619 c -0.28321,-0.26747 -0.56669,-0.5352 -0.85045,-0.8032 -0.33047,-0.77144 -0.66117,-1.54312 -0.99219,-2.3151 2.6e-4,-1.05492 2.6e-4,-2.11008 0,-3.16555 0.50424,-0.92893 1.00819,-1.8581 1.51191,-2.78758 0.58298,-1.10216 1.16567,-2.20457 1.74815,-3.30729 0.11049,-0.94467 0.22075,-1.8896 0.33073,-2.83482 -0.23598,-0.66119 -0.70871,-1.98438 -0.70871,-1.98438 v 0 c 0,0 1.57517,-0.5352 2.36236,-0.80319 0.92945,-0.0627 1.85864,-0.15724 2.78757,-0.23624 1.03971,0.18926 2.07912,0.40974 3.1183,0.61421 0.81923,0.59874 1.63817,1.19719 2.45684,1.79539 0.51999,0.78773 1.03971,1.57517 1.55916,2.36235 0.205,0.44125 0.61421,1.32292 0.61421,1.32292 0,0 0.78771,-0.44071 1.18118,-0.66146 0.74046,-0.31472 1.48066,-0.62969 2.22059,-0.94494 1.13422,-0.25172 2.26812,-0.5037 3.4018,-0.75596 1.30744,-0.14147 2.61456,-0.28321 3.9215,-0.42522 1.1027,0.14201 2.20511,0.28375 3.30729,0.42522 1.1657,0.39399 2.33111,0.78771 3.49628,1.18118 1.14993,0.77197 2.2996,1.54365 3.44903,2.3151 0.77198,0.85072 1.54366,1.70115 2.31511,2.55134 0.61446,1.02395 1.22867,2.04762 1.84263,3.07106 0.22075,0.89795 0.44123,1.79563 0.66146,2.69308 0.016,1.18147 0.0318,2.36259 0.0473,3.54353 -0.22024,1.05544 -0.44072,2.11061 -0.66146,3.16555 -0.40923,0.78773 -1.22844,2.3624 -1.22844,2.3624 v 0 c 0,0 -0.72419,-0.31471 -1.08667,-0.47247 -0.67693,0.016 -1.35413,0.0317 -2.03163,0.0472 -0.75567,0.1735 -1.51161,0.34673 -2.26785,0.51971 -0.85018,0.40974 -1.7006,0.81921 -2.55135,1.22843 -0.69268,0.51998 -1.38562,1.03969 -2.07885,1.55915 -0.86593,0.58297 -1.73213,1.16568 -2.59861,1.74814 -0.64542,0.33099 -1.29114,0.67746 -1.93712,0.99219 -0.73993,0.22075 -1.49587,0.44123 -2.22059,0.66145 -0.85019,0.0633 -1.71638,0.12629 -2.55135,0.18899 -0.78719,-0.10998 -1.59036,-0.22022 -2.36236,-0.33073 -0.64543,-0.28321 -1.93712,-0.85044 -1.93712,-0.85044 v 0 c 0,0 -0.28321,0.8507 -0.42522,1.27566 -0.28323,0.50424 -0.56671,1.0082 -0.85045,1.51191 -0.50371,0.58298 -1.00766,1.16568 -1.5119,1.74814 -0.80294,0.45699 -1.60613,0.9137 -2.40962,1.37016 -0.97615,0.079 -1.95257,0.15774 -2.92931,0.23624 -0.85018,-0.10998 -1.70061,-0.22022 -2.55132,-0.33073 -0.59822,-0.22022 -1.79541,-0.66146 -1.79541,-0.66146 v 0 c 0,0 0.31525,-0.69269 0.47249,-1.03943 2.7e-4,-0.53522 2.7e-4,-1.07067 0,-1.6064 -0.18872,-0.59821 -0.37772,-1.19666 -0.56697,-1.79539 -0.39346,-0.83445 -0.78719,-1.66913 -1.18118,-2.50409 -0.42498,-0.8187 -0.85019,-1.63763 -1.27566,-2.45685 -0.25173,-0.6612 -0.5352,-1.32265 -0.8032,-1.98437 -0.047,-0.83445 -0.0942,-1.66913 -0.14174,-2.50409 0.28374,-0.66121 0.56722,-1.32266 0.85043,-1.98438 0.28376,-0.31472 0.56724,-0.6297 0.85045,-0.94494 z"
         sodipodi:nodetypes="cccccccccccccccccccccccccccccccccccccccccccccccccccccccccc" />
      <path
         id="path40-3-8"
         style="fill:#ffffff;stroke:#000000;stroke-width:0.499999;stroke-linecap:square;stroke-linejoin:miter;stroke-miterlimit:4;stroke-dasharray:none;stroke-opacity:1;paint-order:stroke fill markers"
         d="m 366.42972,207.92265 c -0.84648,0.0725 -1.6853,0.24666 -2.49219,0.51172 0.76019,2.59061 -0.28011,5.26502 -1.55735,7.50246 -0.94078,1.6751 -1.91599,3.55983 -1.46723,5.5432 0.16886,1.12981 0.76277,2.15936 1.53239,2.97582 0.45378,0.79395 -0.35801,1.44546 -0.75781,2.02735 -1.23206,1.89927 -0.57852,4.32556 0.45104,6.15722 1.10785,2.42792 2.75384,4.81664 2.70055,7.58731 0.11374,0.30721 -0.34502,0.88753 0.0711,0.9664 2.37596,0.62248 5.21736,0.7421 7.23986,-0.87538 1.45059,-1.13553 2.38532,-2.82122 2.84998,-4.5836 0.79784,-0.68112 1.6377,0.2418 2.43904,0.41068 3.35656,1.20913 7.15715,0.21705 9.95392,-1.85856 2.53937,-1.72865 5.06167,-3.77335 8.1948,-4.2506 1.0949,-0.21086 2.24529,-0.29285 3.33411,-0.007 1.44524,-2.94281 1.71991,-6.4798 0.70826,-9.59821 -2.17167,-5.66261 -8.20818,-9.52166 -14.25697,-9.18427 -3.43333,0.18114 -6.91535,0.95235 -9.87316,2.76686 -0.9816,0.0164 -1.03182,-1.14392 -1.4714,-1.76668 -1.09087,-2.17156 -3.11201,-4.0442 -5.62216,-4.25778 -0.65518,-0.0882 -1.31711,-0.10133 -1.97675,-0.0673 z" />
      <path
         style="fill:#000000;stroke:none;stroke-width:0.499999;stroke-miterlimit:4;stroke-dasharray:none;paint-order:stroke fill markers"
         d="m 382.17811,231.7862 c -3.46802,-0.41632 -8.22481,-2.93141 -12.31725,-6.51259 -0.72299,-0.63268 -2.60908,-2.50646 -2.60908,-2.59208 0,-0.0267 0.10235,-0.0659 0.22753,-0.0869 1.81603,-0.30501 2.84293,-1.14735 2.91492,-2.39107 0.0398,-0.6863 -0.0894,-1.07728 -0.49082,-1.48644 -0.46444,-0.47334 -0.83719,-0.60086 -1.77183,-0.60609 -0.40046,-0.002 -0.80413,0.0171 -0.89702,0.0431 l -0.16893,0.0471 0.0173,4.01812 c 0.0166,3.8059 0.0234,4.03038 0.13254,4.25019 0.15046,0.30305 0.31688,0.40517 0.72951,0.44775 0.22778,0.0236 0.33841,0.0619 0.33841,0.11745 0,0.0677 -0.3164,0.0824 -1.7596,0.0824 -1.44359,0 -1.75961,-0.0149 -1.75961,-0.0826 0,-0.0541 0.10717,-0.0952 0.31106,-0.11944 0.35165,-0.0416 0.54864,-0.15012 0.70442,-0.38774 0.0985,-0.1503 0.10949,-0.46732 0.13736,-4.0038 0.0168,-2.11229 0.0133,-3.84051 -0.007,-3.84051 -0.0951,7e-5 -0.56204,0.58455 -0.69346,0.86802 -0.25959,0.55999 -0.33937,1.33349 -0.18269,1.77142 0.0239,0.0667 -0.0264,0.0133 -0.11164,-0.12027 -0.77579,-1.20979 0.27305,-2.91969 2.09171,-3.41004 0.54293,-0.14631 1.62525,-0.13055 2.24933,0.033 0.94324,0.24713 1.61071,0.71198 1.91652,1.33471 0.1498,0.3049 0.16811,0.40876 0.16811,0.95035 0,0.56497 -0.0149,0.63678 -0.19976,1.01378 -0.42589,0.8651 -1.25906,1.29724 -2.88852,1.49814 l -0.78257,0.0965 0.44885,0.29803 c 0.24688,0.1639 1.26798,0.88916 2.26915,1.61167 4.73625,3.41804 7.09134,4.89917 9.44277,5.93859 1.46701,0.64849 2.50455,0.91878 3.52662,0.91878 0.70558,0 1.16623,-0.0982 1.71423,-0.36578 l 0.36405,-0.1777 -0.23274,0.20683 c -0.59137,0.52553 -1.69348,0.7734 -2.8314,0.63679 z m -5.9766,-4.69793 c -1.38332,-0.30452 -2.46234,-1.26665 -2.89344,-2.57995 -0.18031,-0.54929 -0.22183,-1.69522 -0.0813,-2.24502 0.18503,-0.72425 0.4927,-1.25249 1.06193,-1.82326 0.77974,-0.78184 1.53166,-1.13265 2.55712,-1.19298 1.28474,-0.0756 2.28529,0.31889 3.15956,1.24565 0.70028,0.74233 1.04073,1.64421 1.03488,2.74141 -0.005,0.93469 -0.24281,1.62765 -0.82398,2.40077 -0.88045,1.17125 -2.55029,1.77576 -4.01471,1.45338 z m 1.92028,-0.52819 c 0.63404,-0.29312 1.01936,-0.82667 1.249,-1.72948 0.15195,-0.59724 0.15112,-2.729 -10e-4,-3.29542 -0.35251,-1.31096 -1.04423,-1.89422 -2.25801,-1.90396 -0.65255,-0.005 -1.02281,0.10551 -1.44823,0.43279 -0.67037,0.51589 -0.94505,1.30956 -0.99212,2.86672 -0.037,1.2264 0.0652,1.93785 0.37075,2.57874 0.43412,0.91057 1.03403,1.25573 2.13028,1.22567 0.50379,-0.0133 0.66491,-0.0435 0.94946,-0.17506 z m 5.63389,0.47479 c 0,-0.0552 0.10849,-0.0937 0.32832,-0.11645 0.39998,-0.0413 0.59693,-0.16224 0.74346,-0.45689 0.10385,-0.20876 0.11148,-0.4405 0.11148,-3.40947 v -3.18551 l -0.4854,-0.0718 c -1.00391,-0.14863 -1.46827,-0.0843 -1.84476,0.25583 -0.20497,0.18518 -0.28627,0.32471 -0.47293,0.81166 -0.0371,0.0969 -0.0474,-0.10733 -0.0308,-0.60677 0.0133,-0.41407 0.0428,-0.77182 0.0644,-0.79496 0.0216,-0.0232 0.33674,-0.0723 0.70045,-0.10916 0.5066,-0.0514 0.88985,-0.0486 1.63825,0.0116 0.53733,0.0433 1.49574,0.0761 2.12982,0.0728 1.0706,-0.005 1.20154,-0.0187 1.83544,-0.18482 0.37544,-0.0984 0.68261,-0.17106 0.68261,-0.16174 0,0.01 -0.15693,0.0962 -0.34889,0.19301 -0.62414,0.31474 -1.06966,0.4231 -2.42704,0.59028 l -0.25788,0.0317 1.3e-4,3.16662 c 5e-5,2.89485 0.01,3.18447 0.10617,3.37466 0.14764,0.28973 0.3581,0.42509 0.72887,0.469 0.20905,0.0247 0.31769,0.0659 0.31769,0.12027 0,0.0677 -0.31601,0.0826 -1.75961,0.0826 -1.44319,0 -1.75961,-0.0149 -1.75961,-0.0825 z m 7.28114,-5e-5 c 0,-0.0541 0.10716,-0.0952 0.31105,-0.11944 0.37194,-0.0441 0.55951,-0.1561 0.70401,-0.42054 0.0984,-0.17997 0.10899,-0.46976 0.12458,-3.41944 l 0.0173,-3.22282 -0.53706,-0.0688 c -1.44092,-0.1848 -1.93382,0.0377 -2.26697,1.02329 -0.031,0.0919 -0.0416,-0.14332 -0.0267,-0.5962 0.0133,-0.41133 0.0353,-0.75857 0.0483,-0.77164 0.0133,-0.0133 0.33636,-0.0526 0.71845,-0.0879 0.48795,-0.0451 0.93849,-0.0451 1.51382,-3e-5 2.48399,0.19439 3.41027,0.14034 4.7024,-0.27421 0.0667,-0.0214 0.0116,0.0317 -0.12126,0.11811 -0.46938,0.30385 -1.29672,0.51899 -2.59389,0.67451 l -0.28823,0.0345 10e-4,3.13627 c 0.001,2.94674 0.008,3.15158 0.11629,3.38941 0.14333,0.31569 0.3262,0.43824 0.7242,0.48539 0.20384,0.0242 0.31105,0.0654 0.31105,0.11944 -10e-6,0.0677 -0.31127,0.0826 -1.72928,0.0826 -1.418,0 -1.72927,-0.0149 -1.72927,-0.0826 z"
         id="path936-7" />
    </g>
  </g>
</svg>
