<?xml version="1.0" encoding="UTF-8" standalone="no"?>
<!-- Created with Inkscape (http://www.inkscape.org/) -->

<svg
   width="27.059896mm"
   height="25.510572mm"
   viewBox="0 0 27.059896 25.510572"
   version="1.1"
   id="svg3782"
   inkscape:version="1.2.2 (732a01da63, 2022-12-09)"
   sodipodi:docname="winter.svg"
   xmlns:inkscape="http://www.inkscape.org/namespaces/inkscape"
   xmlns:sodipodi="http://sodipodi.sourceforge.net/DTD/sodipodi-0.dtd"
   xmlns="http://www.w3.org/2000/svg"
   xmlns:svg="http://www.w3.org/2000/svg">
  <sodipodi:namedview
     id="namedview3784"
     pagecolor="#ffffff"
     bordercolor="#000000"
     borderopacity="0.25"
     inkscape:showpageshadow="2"
     inkscape:pageopacity="0.0"
     inkscape:pagecheckerboard="0"
     inkscape:deskcolor="#d1d1d1"
     inkscape:document-units="mm"
     showgrid="false"
     inkscape:zoom="2.1089996"
     inkscape:cx="169.27457"
     inkscape:cy="110.47892"
     inkscape:window-width="1920"
     inkscape:window-height="1017"
     inkscape:window-x="-8"
     inkscape:window-y="-8"
     inkscape:window-maximized="1"
     inkscape:current-layer="layer1" />
  <defs
     id="defs3779">
    <inkscape:path-effect
       effect="bspline"
       id="path-effect6931"
       is_visible="true"
       lpeversion="1"
       weight="33.333333"
       steps="2"
       helper_size="0"
       apply_no_weight="true"
       apply_with_weight="true"
       only_selected="false" />
    <inkscape:path-effect
       effect="bspline"
       id="path-effect3430"
       is_visible="true"
       lpeversion="1"
       weight="33.333333"
       steps="2"
       helper_size="0"
       apply_no_weight="true"
       apply_with_weight="true"
       only_selected="false" />
    <inkscape:path-effect
       effect="bspline"
       id="path-effect3646"
       is_visible="true"
       lpeversion="1"
       weight="33.333333"
       steps="2"
       helper_size="0"
       apply_no_weight="true"
       apply_with_weight="true"
       only_selected="false" />
  </defs>
  <g
     inkscape:label="Capa 1"
     inkscape:groupmode="layer"
     id="layer1"
     transform="translate(-112.79263,-69.567294)">
    <g
       id="g3773"
       transform="translate(31.571914,-17.686157)">
      <g
         id="g8928"
         transform="translate(-0.48613383)">
        <path
           style="fill:#ffffff;fill-opacity:1;stroke:#000000;stroke-width:0.3;stroke-linecap:square;stroke-linejoin:round;stroke-dasharray:none;stroke-opacity:1;paint-order:stroke fill markers"
           d="m 96.245487,88.064909 a 0.38033855,0.92596477 0 0 0 -0.380339,0.925964 0.38033855,0.92596477 0 0 0 0.28112,0.893381 v 15.719516 h 0.198437 V 89.884254 a 0.38033855,0.92596477 0 0 0 0.28112,-0.893381 0.38033855,0.92596477 0 0 0 -0.380338,-0.925964 z"
           id="path8922" />
        <path
           style="fill:#ffffff;fill-opacity:1;stroke:#000000;stroke-width:0.3;stroke-linecap:square;stroke-linejoin:round;stroke-dasharray:none;stroke-opacity:1;paint-order:stroke fill markers"
           d="m 91.965923,88.064909 a 0.38033855,0.91106219 0 0 0 -0.380339,0.911062 0.38033855,0.91106219 0 0 0 0.28112,0.879003 V 105.3215 h 0.198438 V 89.854974 a 0.38033855,0.91106219 0 0 0 0.28112,-0.879003 0.38033855,0.91106219 0 0 0 -0.380339,-0.911062 z"
           id="path8920" />
        <path
           style="fill:#ffffff;fill-opacity:1;stroke:#000000;stroke-width:0.3;stroke-linecap:square;stroke-linejoin:round;stroke-dasharray:none;stroke-opacity:1;paint-order:stroke fill markers"
           d="m 94.818965,87.403451 a 0.38033855,0.95742578 0 0 0 -0.380338,0.957425 0.38033855,0.95742578 0 0 0 0.28112,0.923735 v 16.253609 h 0.198437 V 89.284611 a 0.38033855,0.95742578 0 0 0 0.28112,-0.923735 0.38033855,0.95742578 0 0 0 -0.380339,-0.957425 z"
           id="path8918" />
        <path
           style="fill:#ffffff;fill-opacity:1;stroke:#000000;stroke-width:0.3;stroke-linecap:square;stroke-linejoin:round;stroke-dasharray:none;stroke-opacity:1;paint-order:stroke fill markers"
           d="m 93.392444,87.403451 a 0.38033855,0.98391926 0 0 0 -0.380338,0.983919 0.38033855,0.98391926 0 0 0 0.28112,0.949296 v 16.703374 h 0.198437 V 89.336666 a 0.38033855,0.98391926 0 0 0 0.28112,-0.949296 0.38033855,0.98391926 0 0 0 -0.380339,-0.983919 z"
           id="rect3484" />
      </g>
      <path
         id="path3366"
         style="fill:#ffffff;fill-opacity:1;stroke:#000000;stroke-width:0.3;stroke-linecap:square;stroke-linejoin:round;stroke-dasharray:none;stroke-opacity:1;paint-order:stroke fill markers"
         d="m 91.391838,107.91021 c -0.09068,10e-4 -0.08491,0.0266 -0.0615,0.12609 0.03122,0.13268 0.09397,0.39772 0.07441,0.67438 -0.01955,0.27666 -0.12103,0.5646 -0.241846,0.7984 -0.120816,0.2338 -0.261474,0.41351 -0.413411,0.54208 -0.151938,0.12858 -0.315496,0.20621 -0.412895,0.24908 -0.0974,0.0429 -0.128342,0.0509 0.627868,0.0548 0.649624,0.003 4.75716,0.003 5.406906,0 0.756211,-0.004 0.725268,-0.0119 0.627868,-0.0548 -0.0974,-0.0429 -0.260958,-0.1205 -0.412894,-0.24908 -0.151937,-0.12858 -0.292596,-0.30828 -0.413412,-0.54208 -0.120816,-0.2338 -0.221779,-0.52174 -0.241329,-0.7984 -0.01955,-0.27667 0.04268,-0.5417 0.0739,-0.67438 0.03122,-0.1327 0.03134,-0.13314 -0.187068,-0.12144 -0.21841,0.0117 -4.082103,0.0117 -4.300513,0 -0.0546,-0.003 -0.09586,-0.005 -0.12609,-0.005 z"
         sodipodi:nodetypes="ssssssscssssssss" />
      <path
         id="path3397"
         style="fill:#ffffff;fill-opacity:1;stroke:#000000;stroke-width:0.3;stroke-linecap:square;stroke-linejoin:round;stroke-dasharray:none;stroke-opacity:1;paint-order:stroke fill markers"
         d="m 90.776888,110.25733 c -0.483435,0.0312 -0.483112,0.0316 -0.54932,0.0667 -0.06621,0.035 -0.198631,0.10508 -0.288355,0.19482 -0.08972,0.0897 -0.136787,0.19872 -0.167948,0.36638 -0.03116,0.16766 -0.04647,0.3937 -0.05426,0.5886 -0.0078,0.1949 -0.0079,0.35856 0.128675,0.44028 0.136554,0.0817 0.409395,0.0816 1.212329,0.0816 h 5.141288 c 0.802934,0 1.075774,5e-5 1.212329,-0.0816 0.136567,-0.0817 0.136474,-0.24538 0.128674,-0.44028 -0.0078,-0.1949 -0.02362,-0.42094 -0.05478,-0.5886 -0.03116,-0.16766 -0.0777,-0.27668 -0.167431,-0.36638 -0.08972,-0.0897 -0.222145,-0.15982 -0.288355,-0.19482 -0.06621,-0.035 -0.0664,-0.0355 -0.549837,-0.0667 -0.483435,-0.0312 -5.219573,-0.0312 -5.703009,0 z"
         sodipodi:nodetypes="ssssssssssscscs" />
      <path
         id="path3335"
         style="fill:#ffffff;fill-opacity:1;stroke:#000000;stroke-width:0.3;stroke-linecap:square;stroke-linejoin:round;stroke-dasharray:none;stroke-opacity:1;paint-order:stroke fill markers"
         d="m 93.241078,106.64052 c -0.466081,9.1e-4 -1.187207,0.008 -1.610237,0.0662 -0.483464,0.0663 -0.576983,0.19913 -0.623735,0.33176 -0.04675,0.13262 -0.04704,0.2648 -0.01188,0.40514 0.03516,0.14035 0.105589,0.28872 0.152445,0.37052 0.04686,0.0818 0.06993,0.0972 0.54932,0.1049 0.403987,0.006 1.120486,0.008 1.67535,0.008 0.10357,3e-5 0.212471,0 0.300757,0 0.566941,-3e-5 1.416637,-2.1e-4 1.869137,-0.008 0.47942,-0.008 0.50248,-0.0231 0.54932,-0.1049 0.04684,-0.0818 0.117296,-0.23018 0.152446,-0.37052 0.03515,-0.14034 0.03486,-0.27303 -0.01189,-0.40566 -0.04675,-0.13262 -0.14027,-0.26495 -0.623734,-0.33124 -0.483465,-0.0663 -1.356246,-0.0662 -1.792656,-0.0662 -0.08003,0 -0.141858,2e-4 -0.195853,5.2e-4 -0.05409,-3.2e-4 -0.116088,-5.2e-4 -0.196371,-5.2e-4 -0.05455,0 -0.115835,-1.3e-4 -0.182419,0 z" />
      <path
         id="path3263"
         style="fill:#ffffff;fill-opacity:1;stroke:#000000;stroke-width:0.3;stroke-linecap:square;stroke-linejoin:round;stroke-dasharray:none;stroke-opacity:1;paint-order:stroke fill markers"
         d="m 87.183309,88.255078 c -0.301533,-0.0051 -0.607142,0.04532 -0.901754,0.136426 -0.428758,0.132594 -0.833808,0.351123 -1.083138,0.663009 -0.2493,0.311885 -0.342906,0.71696 -0.296106,1.067635 0.0468,0.350673 0.233865,0.647186 0.483175,0.803051 0.24931,0.155871 0.560945,0.171172 0.794783,0.132292 0.23383,-0.03888 0.390089,-0.132265 0.468189,-0.327112 0.07807,-0.194848 0.07763,-0.491176 -0.02377,-0.694014 -0.10139,-0.202838 -0.303564,-0.31168 -0.334864,-0.412895 -0.0313,-0.101216 0.108841,-0.194653 0.319361,-0.227893 0.21051,-0.03324 0.490829,-0.0061 0.763777,0.114722 0.27294,0.120829 0.538456,0.335335 0.717786,0.711584 0.17933,0.376253 0.27256,0.913785 0.31936,1.47898 0.0466,0.565192 0.04656,1.157793 -0.0083,1.937349 -0.0546,0.779556 -0.163821,1.746098 -0.343131,2.853056 -0.17931,1.106958 -0.428619,2.353968 -0.576709,3.437516 -0.1481,1.083556 -0.195134,2.003836 -0.05478,2.783296 0.14035,0.77946 0.467789,1.41846 0.912089,1.98747 0.444308,0.56901 1.005544,1.06775 1.582332,1.41852 0.576788,0.35078 1.169187,0.5538 1.862935,0.67076 0.581857,0.0981 3.088219,0.0981 3.670076,0 0.693748,-0.11696 1.286147,-0.31998 1.862935,-0.67076 0.576788,-0.35077 1.138024,-0.84951 1.582332,-1.41852 0.4443,-0.56901 0.771741,-1.20801 0.912089,-1.98747 0.14036,-0.77946 0.09332,-1.69974 -0.05478,-2.783296 -0.148088,-1.083548 -0.397399,-2.330558 -0.576709,-3.437516 -0.179308,-1.106958 -0.288531,-2.0735 -0.343131,-2.853056 -0.0548,-0.779556 -0.05474,-1.372157 -0.0083,-1.937349 0.0468,-0.565195 0.14003,-1.102727 0.31936,-1.47898 0.17933,-0.376249 0.444846,-0.590755 0.717786,-0.711584 0.272958,-0.120869 0.553268,-0.147962 0.763778,-0.114722 0.21052,0.03324 0.35066,0.126677 0.31936,0.227893 -0.0313,0.101215 -0.23347,0.210057 -0.33486,0.412895 -0.1014,0.202838 -0.10181,0.499166 -0.0238,0.694014 0.0781,0.194847 0.23436,0.288232 0.46819,0.327112 0.23384,0.03888 0.54547,0.02358 0.79478,-0.132292 0.24931,-0.155865 0.43638,-0.452378 0.48318,-0.803051 0.0468,-0.350675 -0.0468,-0.75575 -0.29611,-1.067635 -0.24933,-0.311886 -0.65438,-0.530415 -1.08314,-0.663009 -0.29461,-0.09111 -0.60022,-0.141492 -0.90175,-0.136426 h -5.2e-4 c -0.136966,0.0023 -0.273372,0.01615 -0.407213,0.04289 -0.428848,0.08571 -0.834293,0.304186 -1.146183,0.60048 -0.31189,0.296292 -0.529848,0.670491 -0.685746,1.25522 -0.129584,0.486027 -0.215298,1.117516 -0.254248,1.768885 -0.172411,-0.105675 -0.376621,-0.190653 -0.605131,-0.268718 -0.467774,-0.159803 -1.036777,-0.292302 -1.60197,-0.374137 -0.565192,-0.08183 -1.126678,-0.11314 -1.606103,-0.120923 -0.09691,-0.0016 -0.189993,-0.0017 -0.279053,0 -0.03395,-6.43e-4 -0.06816,-0.0015 -0.103353,-0.0015 -0.0571,-7.8e-5 -0.115771,5.77e-4 -0.1757,0.0015 -0.479426,0.0078 -1.040911,0.03909 -1.606103,0.120923 -0.565193,0.08183 -1.134196,0.214334 -1.60197,0.374137 -0.110998,0.03792 -0.216011,0.07774 -0.314709,0.120406 -0.04265,-0.598364 -0.125208,-1.171475 -0.244947,-1.620573 -0.155898,-0.584729 -0.373856,-0.958928 -0.685746,-1.25522 -0.311888,-0.296294 -0.717333,-0.514772 -1.146183,-0.60048 -0.133841,-0.02675 -0.270245,-0.04057 -0.40721,-0.04289 z m 6.286438,4.104659 c 0.212805,0.0068 0.449902,0.0189 0.68833,0.04238 0.514528,0.05065 1.029054,0.151939 1.543575,0.288354 0.514523,0.136414 1.028996,0.308155 1.457792,0.506946 0.142616,0.06612 0.274463,0.13516 0.394808,0.201021 0.0096,0.216748 0.02202,0.435582 0.03979,0.660425 l -0.0015,-0.0155 c -0.37268,-0.09377 -0.74572,-0.187647 -0.94878,-0.234611 -0.203048,-0.04696 -0.236152,-0.04699 -0.0956,0.14056 0.14057,0.187559 0.454785,0.562429 0.687813,0.888835 0.23304,0.326406 0.385013,0.604377 0.473873,0.841292 0.0778,0.207302 0.107232,0.383231 0.130742,0.555005 0.003,0.02454 0.0068,0.04893 0.0098,0.07338 l -0.0021,-0.02015 c 0.0593,0.437659 0.122305,0.884123 0.186035,1.333768 0.14032,0.990017 0.280977,1.98814 0.319877,2.791048 0.0389,0.80288 -0.0237,1.41058 -0.397908,2.10426 -0.37417,0.69369 -1.059959,1.47331 -1.800407,1.93322 -0.740448,0.45989 -1.535556,0.59999 -1.933215,0.67024 -0.17717,0.0313 -1.02896,0.0313 -1.206128,0 -0.39767,-0.0702 -1.192766,-0.21035 -1.933216,-0.67024 -0.740448,-0.45991 -1.426237,-1.23953 -1.800407,-1.93322 -0.374208,-0.69368 -0.436808,-1.30138 -0.397908,-2.10426 0.0389,-0.80291 0.179557,-1.801031 0.319877,-2.791048 0.06373,-0.449645 0.126735,-0.896109 0.186035,-1.333768 l -0.0021,0.02015 c 0.003,-0.02445 0.0073,-0.04884 0.01033,-0.07338 0.02351,-0.171774 0.05294,-0.347703 0.130742,-0.555005 0.08886,-0.236915 0.240316,-0.514886 0.473356,-0.841292 0.23303,-0.326406 0.54776,-0.701276 0.68833,-0.888835 0.14055,-0.187549 0.107446,-0.18752 -0.0956,-0.14056 -0.20306,0.04696 -0.5761,0.140841 -0.94878,0.234611 l -0.0021,0.0155 c 0.02211,-0.279897 0.03725,-0.55145 0.04651,-0.819588 0.02897,-0.01404 0.05853,-0.02803 0.08837,-0.04186 0.428796,-0.19879 0.943269,-0.370531 1.457792,-0.506946 0.514521,-0.136414 1.029045,-0.237704 1.543575,-0.288354 0.238372,-0.02347 0.475563,-0.03562 0.68833,-0.04238 z"
         sodipodi:nodetypes="sssssscsssssccssssssssssssccscssscssssssscsscssscsssscssssscssscccsssccccsscsssscssccccssscccssscc" />
      <path
         style="fill:#000000;fill-opacity:1;stroke:none;stroke-width:0.1;stroke-linecap:square;stroke-linejoin:round;paint-order:stroke fill markers"
         d="m 93.067188,88.999218 c 0,5.501185 0,11.002112 0,16.502792"
         id="path3428"
         inkscape:path-effect="#path-effect3430"
         inkscape:original-d="m 93.067188,88.999218 c -2.56e-4,5.501185 -2.56e-4,11.002112 0,16.502792" />
      <path
         id="path3644"
         style="opacity:1;fill:#000000;fill-opacity:1;stroke:none;stroke-width:0.3;stroke-linecap:square;stroke-linejoin:round;stroke-dasharray:none;stroke-opacity:1;paint-order:stroke fill markers"
         d="m 102.14089,87.93713 c -0.0301,0.0049 0.0369,0.07069 0.13435,0.197404 0.15585,0.202742 0.38993,0.561293 0.53796,1.005624 0.1481,0.44433 0.21021,0.974698 0.0543,1.707389 -0.15596,0.732691 -0.52985,1.667899 -1.24696,2.455147 -0.62879,0.690292 -1.52156,1.266572 -2.651513,1.692403 0.05558,0.46294 0.124963,0.962693 0.211356,1.496033 0.17931,1.106956 0.428619,2.35397 0.576709,3.437516 0.08027,0.587264 0.13031,1.126174 0.13746,1.621094 0.689318,-0.17442 1.354698,-0.37955 1.975068,-0.61547 1.10691,-0.42096 2.07348,-0.935258 2.9621,-1.69137 0.88862,-0.756113 1.69967,-1.754286 2.24534,-2.705261 0.54567,-0.950975 0.82605,-1.854776 0.9586,-2.852539 0.13269,-0.997764 0.11735,-2.089544 0.008,-2.96261 -0.10908,-0.873067 -0.31199,-1.527593 -0.44441,-1.878438 -0.13243,-0.350848 -0.19505,-0.39777 -0.22635,-0.33538 -0.0313,0.06239 -0.0312,0.233743 -0.0858,0.576709 -0.0546,0.342964 -0.16382,0.857854 -0.5302,1.598352 -0.36638,0.740497 -0.98977,1.706956 -1.32498,2.237072 -0.33525,0.530115 -0.38185,0.623594 -0.40515,0.452169 -0.0233,-0.171425 -0.0237,-0.607978 -0.0393,-1.021126 -0.0156,-0.413149 -0.0465,-0.802701 -0.24133,-1.418518 -0.19482,-0.615819 -0.55336,-1.457678 -1.04438,-2.011247 -0.49102,-0.553569 -1.11467,-0.818997 -1.38751,-0.928109 -0.10234,-0.04092 -0.15558,-0.05977 -0.17363,-0.05684 z m -4.549597,7.475513 c -1.181167,0.294686 -2.547076,0.520343 -4.09329,0.891418 -1.948885,0.467714 -4.178461,1.169151 -5.745386,1.769401 -1.566925,0.600251 -2.471438,1.098899 -3.328996,1.870687 -0.857557,0.771791 -1.668172,1.816481 -2.206067,2.892331 -0.537895,1.07585 -0.802869,2.18258 -0.841809,3.40651 -0.03894,1.22393 0.148383,2.56475 0.577226,3.65611 0.428843,1.09136 0.957803,1.68267 1.292885,2.10347 0.335088,0.42079 0.554457,0.54633 0.546657,0.39056 -0.0078,-0.15577 -0.101615,-0.34192 -0.109415,-0.76287 -0.0078,-0.42096 -0.0078,-0.95138 0.0078,-1.49707 0.01558,-0.54569 0.04665,-1.10686 0.116789,-1.56683 0.07014,-0.45998 0.1793,-0.81834 0.2651,-1.02112 0.0858,-0.20305 0.148197,-0.2501 0.257349,-0.008 0.109153,0.24184 0.265214,0.77214 0.514697,1.39578 0.249483,0.62363 0.592303,1.34065 1.021126,1.87068 0.428824,0.53003 0.943543,0.87299 1.325501,1.04439 0.381958,0.1714 0.631034,0.17156 0.802535,0.17156 0.171496,0 0.264942,0 0.202572,-0.11679 -0.06237,-0.1168 -0.280256,-0.35064 -0.514181,-0.76378 -0.233924,-0.41312 -0.483477,-1.00547 -0.60048,-1.76164 -0.117002,-0.75618 -0.10136,-1.67624 0.0078,-2.42466 0.109112,-0.74842 0.311964,-1.32536 0.701766,-1.88671 0.389803,-0.56136 0.966648,-1.10693 2.089279,-1.55908 1.12263,-0.45216 2.790374,-0.81053 4.279325,-1.04438 1.48074,-0.23257 2.784365,-0.34169 4.056083,-0.55759 0.143571,-0.46609 0.166174,-0.93176 0.13901,-1.49241 -0.0389,-0.802911 -0.179559,-1.801031 -0.319877,-2.791046 -0.06373,-0.449645 -0.126736,-0.896112 -0.186036,-1.333769 l 0.0016,0.02015 c -0.003,-0.02445 -0.0068,-0.04884 -0.0098,-0.07338 -0.02351,-0.171774 -0.05294,-0.347703 -0.130741,-0.555005 -0.03134,-0.08357 -0.07102,-0.172544 -0.118856,-0.26665 z"
         sodipodi:nodetypes="scccscscccsscccscscscsscscsscscscccsscsssssccssccccssccccc" />
      <path
         id="path3754"
         style="font-size:36px;font-family:'Century Schoolbook';-inkscape-font-specification:'Century Schoolbook';text-align:end;text-anchor:end;opacity:1;fill:#ffffff;stroke:#000000;stroke-width:0.1;stroke-linecap:square;stroke-linejoin:round;stroke-dasharray:none;stroke-opacity:1;paint-order:stroke fill markers"
         d="m 102.89915,93.053752 -0.19069,0.167431 0.0594,0.542603 c -0.27433,0.0037 -0.51016,0.04112 -0.70694,0.112138 -0.19676,0.07102 -0.37578,0.177753 -0.53795,0.319877 -0.33828,0.296471 -0.5214,0.648468 -0.5488,1.056783 -0.0272,0.405048 0.10788,0.777239 0.40514,1.116211 0.28507,0.32507 0.61409,0.480881 0.98754,0.467155 0.26494,-0.01085 0.65535,-0.153259 1.17099,-0.426848 0.46808,-0.250433 0.79651,-0.401409 0.98547,-0.453202 0.1874,-0.05357 0.35326,-0.06002 0.49661,-0.01964 0.14182,0.03865 0.26642,0.119463 0.37465,0.242879 0.19053,0.217291 0.27106,0.474384 0.24133,0.771013 -0.0296,0.293349 -0.17343,0.553106 -0.4315,0.77928 -0.3191,0.279666 -0.71015,0.411909 -1.17357,0.396875 -0.46343,-0.01503 -0.91268,-0.196358 -1.34721,-0.544153 l -0.1881,0.164848 1.31,1.493966 0.18862,-0.164848 -0.0202,-0.619084 c 0.52029,-9.94e-4 0.97992,-0.176104 1.37924,-0.526066 0.37143,-0.325512 0.5743,-0.704385 0.60823,-1.136881 0.0342,-0.435761 -0.10128,-0.827973 -0.40618,-1.175639 -0.17073,-0.194689 -0.36215,-0.326451 -0.57412,-0.395842 -0.21349,-0.07114 -0.44924,-0.07789 -0.70745,-0.02067 -0.25646,0.05568 -0.64092,0.224901 -1.15394,0.508496 -0.36483,0.202903 -0.62824,0.324899 -0.79013,0.365352 -0.16169,0.03716 -0.31092,0.03392 -0.44752,-0.0093 -0.13812,-0.04497 -0.26125,-0.129282 -0.36948,-0.252698 -0.17374,-0.198167 -0.2477,-0.429866 -0.2217,-0.695565 0.026,-0.265691 0.1543,-0.499523 0.38448,-0.701249 0.2755,-0.241457 0.60535,-0.355351 0.99012,-0.342098 0.38651,0.01172 0.8228,0.185583 1.30896,0.521932 l 0.1726,-0.151412 z m -9.392731,3.874186 c -0.126267,0.0036 -0.261185,0.03146 -0.404627,0.08268 -0.301025,0.107486 -0.519933,0.297789 -0.656807,0.571541 -0.134854,0.273032 -0.15156,0.551534 -0.05013,0.835608 0.09352,0.261901 0.306513,0.555203 0.63872,0.879533 -0.335171,0.36273 -0.543576,0.682521 -0.624768,0.95912 -0.07917,0.27586 -0.06993,0.55075 0.02791,0.82475 0.127328,0.3566 0.358987,0.61235 0.694531,0.7674 0.337558,0.15434 0.697166,0.16321 1.079004,0.0269 0.210113,-0.075 0.39479,-0.1806 0.553454,-0.31678 0.158668,-0.13616 0.321718,-0.33869 0.489893,-0.60771 0.270228,0.11245 0.489731,0.17807 0.658358,0.1974 0.170644,0.0186 0.325686,0.003 0.465087,-0.0465 0.248499,-0.0887 0.418718,-0.25949 0.510564,-0.51263 0.09387,-0.25385 0.07354,-0.56945 -0.06098,-0.946195 l -0.188102,0.06718 c 0.05804,0.251856 0.06253,0.442515 0.01292,0.571545 -0.04759,0.12827 -0.134157,0.21468 -0.259415,0.25941 -0.206072,0.0736 -0.497908,0.0189 -0.875399,-0.16433 0.107488,-0.31777 0.182239,-0.689716 0.223759,-1.115693 0.02011,-0.211633 0.04731,-0.361159 0.08216,-0.448551 0.03616,-0.09012 0.08396,-0.164179 0.143144,-0.221692 0.05919,-0.05752 0.143601,-0.105741 0.252698,-0.144694 l 0.127124,-0.04547 -0.07441,-0.208256 -1.685169,0.601513 0.07441,0.208256 0.160714,-0.05736 c 0.157594,-0.05625 0.287322,-0.06576 0.389124,-0.02946 0.10181,0.03634 0.172306,0.109852 0.211873,0.220658 0.08776,0.245783 0.04384,0.62007 -0.131775,1.123449 -0.235444,-0.13628 -0.45922,-0.280899 -0.671277,-0.434599 -0.212056,-0.153702 -0.528394,-0.405547 -0.949296,-0.754995 0.334559,-0.32617 0.546377,-0.612753 0.63562,-0.860413 0.09055,-0.250401 0.09461,-0.491789 0.01189,-0.72347 -0.08705,-0.243776 -0.239675,-0.409732 -0.457853,-0.497644 -0.109091,-0.04396 -0.226684,-0.06409 -0.35295,-0.06046 z m -0.155546,0.291455 c 0.08332,9.95e-4 0.163905,0.02318 0.241845,0.06563 0.140581,0.07474 0.244507,0.206467 0.312126,0.395841 0.07193,0.20147 0.07952,0.394249 0.02222,0.578259 -0.05802,0.181993 -0.209664,0.388282 -0.45527,0.619084 -0.339428,-0.312657 -0.555111,-0.596798 -0.646472,-0.852661 -0.06261,-0.175277 -0.06206,-0.333045 0.0016,-0.473873 0.06289,-0.142846 0.170984,-0.241796 0.324528,-0.296623 0.06806,-0.0243 0.134666,-0.03643 0.199471,-0.03566 z m -7.436737,2.365743 -0.844393,1.085204 0.175183,0.13591 0.08372,-0.10749 c 0.07403,-0.095 0.153653,-0.14683 0.239778,-0.15503 0.08582,-0.0108 0.181088,0.0243 0.285254,0.10542 0.06996,0.0544 0.13374,0.123 0.19172,0.20568 l 1.502751,2.11615 -2.825668,-1.04645 c -0.03524,-0.0124 -0.06914,-0.0315 -0.101802,-0.0569 -0.04198,-0.0327 -0.05768,-0.0761 -0.04754,-0.13074 0.0086,-0.0559 0.06343,-0.14963 0.165365,-0.2806 l 0.116789,-0.14935 -0.175183,-0.13642 -1.122929,1.4428 0.174666,0.13643 0.164331,-0.21032 c 0.08858,-0.1138 0.166628,-0.1747 0.234611,-0.1819 0.0692,-0.009 0.246859,0.0409 0.532784,0.14831 l 1.541508,2.19108 -2.737817,-1.00046 -0.05529,-0.0207 c -0.07887,-0.0239 -0.132244,-0.0465 -0.160197,-0.0682 -0.04041,-0.0315 -0.05748,-0.0711 -0.05064,-0.11834 0.008,-0.0488 0.05934,-0.13367 0.153996,-0.25528 l 0.06408,-0.0822 -0.175184,-0.13591 -0.899169,1.15497 0.175183,0.13643 c 0.08373,-0.10759 0.163818,-0.17055 0.240295,-0.18862 0.07615,-0.0209 0.188944,-0.004 0.338997,0.0501 l 3.819406,1.41025 0.136425,-0.17519 -1.94045,-2.72748 3.152779,1.16995 0.127641,-0.16381 -2.170927,-3.05666 c -0.111833,-0.15463 -0.183307,-0.27641 -0.21394,-0.36535 -0.02941,-0.0905 -0.03842,-0.17633 -0.02739,-0.25787 0.0095,-0.08275 0.04488,-0.176835 0.106454,-0.281635 z m 7.309613,-0.08991 c 0.44943,0.384687 0.792856,0.664064 1.030428,0.838184 0.236853,0.17212 0.494698,0.33961 0.774113,0.50333 -0.189982,0.29727 -0.410987,0.4912 -0.663526,0.58136 -0.296985,0.10605 -0.595234,0.0557 -0.894519,-0.15089 -0.297982,-0.20935 -0.492271,-0.44069 -0.58291,-0.69453 -0.117976,-0.33041 -0.0057,-0.689527 0.336414,-1.077454 z"
         sodipodi:nodetypes="cccssssccccscsscccccsssccccccsscccccscsccscsscccccccscccscccccscscsccssccccsccscsccccccccccccccccccccccccccccccccccccccccccccccscsc" />
    </g>
  </g>
</svg>
