<?xml version="1.0" encoding="UTF-8" standalone="no"?>
<!-- Uploaded to: SVG Repo, www.svgrepo.com, Generator: SVG Repo Mixer Tools -->

<svg
   width="800px"
   height="800px"
   viewBox="0 0 512 512"
   version="1.1"
   id="svg4"
   sodipodi:docname="belt.svg"
   inkscape:version="1.1.1 (3bf5ae0d25, 2021-09-20)"
   xmlns:inkscape="http://www.inkscape.org/namespaces/inkscape"
   xmlns:sodipodi="http://sodipodi.sourceforge.net/DTD/sodipodi-0.dtd"
   xmlns="http://www.w3.org/2000/svg"
   xmlns:svg="http://www.w3.org/2000/svg">
  <defs
     id="defs8">
    <inkscape:path-effect
       effect="bspline"
       id="path-effect4208"
       is_visible="true"
       lpeversion="1"
       weight="33.333333"
       steps="2"
       helper_size="0"
       apply_no_weight="true"
       apply_with_weight="true"
       only_selected="false" />
    <inkscape:path-effect
       effect="bspline"
       id="path-effect4100"
       is_visible="true"
       lpeversion="1"
       weight="33.333333"
       steps="2"
       helper_size="0"
       apply_no_weight="true"
       apply_with_weight="true"
       only_selected="false" />
    <inkscape:path-effect
       effect="bspline"
       id="path-effect3308"
       is_visible="true"
       lpeversion="1"
       weight="33.333333"
       steps="2"
       helper_size="0"
       apply_no_weight="true"
       apply_with_weight="true"
       only_selected="false" />
    <inkscape:path-effect
       effect="bspline"
       id="path-effect3304"
       is_visible="true"
       lpeversion="1"
       weight="33.333333"
       steps="2"
       helper_size="0"
       apply_no_weight="true"
       apply_with_weight="true"
       only_selected="false" />
    <inkscape:path-effect
       effect="bspline"
       id="path-effect2911"
       is_visible="true"
       lpeversion="1"
       weight="33.333333"
       steps="2"
       helper_size="0"
       apply_no_weight="true"
       apply_with_weight="true"
       only_selected="false" />
    <inkscape:path-effect
       effect="bspline"
       id="path-effect2623"
       is_visible="true"
       lpeversion="1"
       weight="33.333333"
       steps="2"
       helper_size="0"
       apply_no_weight="true"
       apply_with_weight="true"
       only_selected="false" />
  </defs>
  <sodipodi:namedview
     id="namedview6"
     pagecolor="#ffffff"
     bordercolor="#666666"
     borderopacity="1.0"
     inkscape:pageshadow="2"
     inkscape:pageopacity="0.0"
     inkscape:pagecheckerboard="0"
     showgrid="false"
     inkscape:snap-global="false"
     inkscape:zoom="0.02"
     inkscape:cx="-2775"
     inkscape:cy="-6425"
     inkscape:window-width="1920"
     inkscape:window-height="1017"
     inkscape:window-x="-8"
     inkscape:window-y="-8"
     inkscape:window-maximized="1"
     inkscape:current-layer="svg4" />
  <path
     id="path2"
     style="fill:#ff6600;stroke:none;stroke-width:1.562;stroke-miterlimit:4;stroke-dasharray:none;paint-order:stroke fill markers"
     d="M 398.80078 95.324219 L 398.80078 95.326172 C 297.26016 94.468265 178.24453 129.3418 35.097656 229.9668 C 31.778906 231.7418 30.635938 232.73281 29.375 233.99219 C 28.859375 268.50312 29.45742 303.04766 29.638672 337.56641 C 93.910547 377.11016 186.87148 409.15117 251.31055 423.88086 C 188.80117 509.79336 148.56602 600.07109 118.82227 688.37109 L 115.82812 697.25391 L 193.30664 765.18164 L 201.4082 748.73828 C 248.15664 653.88203 287.63984 557.40078 349.58203 468.89453 C 366.16325 478.07023 384.99666 485.65714 412.375 478.05664 L 418.36719 478.30273 C 435.86094 479.02148 447.13633 481.63867 462.64258 476.24805 C 467.04309 474.71942 477.09831 468.92956 481.15234 466.63477 C 548.31172 546.63945 582.80195 656.87539 606.61133 744.00977 L 612.94727 767.1875 L 703.27539 678.06055 L 699.8418 669.4043 C 670.2668 594.87461 641.00937 496.76406 581.96875 419.65625 C 644.78125 402.79062 701.86602 376.97187 751.22852 344.46094 C 767.85352 333.50781 759.42383 339.07422 770.83008 330.99609 L 768.44922 234.52734 C 761.77422 230.38047 758.59922 228.81328 752.63672 225.60547 C 672.21953 182.34922 581.87305 120.64062 466.38867 101.25781 C 444.05131 97.50015 421.45119 95.515564 398.80078 95.324219 z M 386.06641 197.42383 C 404.31016 197.47073 422.16094 198.76875 439.65625 201.14062 C 516.66094 211.5719 587.37734 243.3375 654.27734 282.5 C 604.17578 302.61406 552.90078 316.83672 500.83203 324.90234 C 482.19766 303.51797 479.53462 306.68523 436.10156 295.08789 L 415.28711 298.60938 C 408.10742 295.58436 400.49609 292.43086 393.98047 290.26367 C 387.20391 288.02773 381.37109 286.10469 373.88672 286.375 C 341.98203 287.52812 321.97734 301.39062 312.00391 315.61719 C 309.68381 318.93687 307.70006 322.47858 306.08203 326.19141 C 247.64453 317.96328 188.81328 301.93516 130.08203 277.72266 C 224.68359 219.43984 308.91328 197.22539 386.06641 197.42383 z M 40.291016 237.8457 C 41.100212 237.86811 43.112437 238.40694 47.140625 239.8457 C 53.585725 242.14772 65.188074 246.75078 78.722656 252.36719 C 92.257239 257.98359 107.72508 264.61319 114.16992 268.01953 C 120.61476 271.42587 118.03649 271.60926 113.61719 270.22852 C 109.19789 268.84777 102.93724 265.9016 91.244141 260.92969 C 79.551039 255.95778 62.425753 248.9618 52.666016 244.72656 C 42.906278 240.49133 40.513472 239.01819 39.960938 238.28125 C 39.753737 238.0049 39.805498 237.83226 40.291016 237.8457 z M 751.63281 241.35547 C 752.11833 241.34202 752.17009 241.51466 751.96289 241.79102 C 751.41035 242.52796 749.0156 244.00109 739.25586 248.23633 C 729.49612 252.47156 712.37083 259.46949 700.67773 264.44141 C 688.98463 269.41332 682.72399 272.35949 678.30469 273.74023 C 673.88539 275.12098 671.30711 274.93759 677.75195 271.53125 C 684.19679 268.12491 699.66464 261.49531 713.19922 255.87891 C 726.7338 250.2625 738.33615 245.65944 744.78125 243.35742 C 748.80944 241.91866 750.82362 241.37788 751.63281 241.35547 z M 406.94531 323.70508 C 407.56017 323.81673 407.9381 324.55045 407.9668 325.93164 C 408.0586 330.35146 404.56123 341.39995 401.70703 353.92188 C 398.85283 366.44378 396.64242 380.43985 395.99805 392.68555 C 395.35367 404.93125 396.27529 415.42723 398.20898 424.72656 C 400.14268 434.0259 403.08907 442.12712 404.10156 446.82227 C 405.11405 451.51741 404.19206 452.80558 403.08789 453.08203 C 401.98368 453.35848 400.69529 452.62232 397.88672 446.91406 C 395.07815 441.2058 390.75079 430.52677 389.27734 416.43945 C 388.36694 407.73529 388.55111 397.72915 389.375 387.66211 C 389.03409 387.56601 388.66202 387.44658 388.2168 387.27344 C 385.2877 386.13435 379.94934 383.20443 373.01562 378.97266 C 366.08195 374.74088 357.55349 369.20569 350.75 364.25781 C 343.94651 359.30993 338.86869 354.94912 335.51562 351.53125 C 332.1626 348.11338 330.5348 345.6387 329.62305 343.7832 C 328.7113 341.92771 328.51515 340.69054 328.67773 339.64844 C 328.84032 338.60634 329.36212 337.76065 331.2832 339.48633 C 333.20429 341.212 336.52387 345.5092 342.02539 350.45703 C 347.52691 355.40486 355.21021 361.00326 362.11133 365.75586 C 369.01245 370.50846 375.13147 374.41407 379.85156 377.34375 C 384.57166 380.27343 387.89231 382.2263 389.71484 383.69141 C 389.72494 383.69941 389.73209 383.70674 389.74219 383.71484 C 390.22242 378.808 390.8258 373.92315 391.5332 369.20703 C 393.881 353.55469 397.19438 339.74308 400.69336 331.73242 C 403.0989 326.22509 405.59263 323.45944 406.94531 323.70508 z M 506.92188 346.89062 C 507.52423 346.90542 508.50479 348.10416 509.89648 351.69336 C 512.3706 358.07416 516.14607 372.00659 517.57812 382.87891 C 519.01022 393.75122 518.09839 401.56271 515.29883 409.375 C 512.49926 417.18729 507.81187 424.99933 503.58008 431.70508 C 499.34828 438.41083 495.57358 444.01011 493.23047 446.48438 C 490.88735 448.9586 489.97523 448.30892 490.95117 445.76953 C 491.92712 443.23014 494.79162 438.8028 498.63281 432.55273 C 502.474 426.30267 507.29229 418.22964 510.28711 411.26367 C 513.28192 404.29771 514.45366 398.43871 514.7793 392.44922 C 515.10493 386.45972 514.58256 380.34049 513.3457 374.2207 C 512.10885 368.10091 510.15752 361.97984 508.66016 357.55273 C 507.16279 353.12563 506.12066 350.39124 506.18555 348.4375 C 506.21395 347.58274 506.45336 346.87909 506.92188 346.89062 z M 301.01172 363.54297 C 301.47451 363.55437 301.95007 364.29406 302.35547 366.18164 C 303.28209 370.4961 303.83469 380.80758 306.78125 392.22461 C 309.72781 403.64164 315.06781 416.16263 321.05273 425.83008 C 327.03766 435.49752 333.6664 442.31187 336.98047 446.45508 C 340.29454 450.59829 340.29542 452.07123 339.2832 452.53125 C 338.27099 452.99127 336.24468 452.43775 332.91406 449.50391 C 329.58344 446.57002 324.94864 441.25436 320.67773 435.60156 C 316.40683 429.94877 312.50086 423.9597 309.11523 416.66797 C 305.72961 409.37623 302.8641 400.78267 301.23633 393.81641 C 299.60856 386.85014 299.21879 381.51179 299.02344 377.01953 C 298.82809 372.52727 298.82823 368.88213 299.47852 366.2168 C 299.8443 364.71754 300.4167 363.52826 301.01172 363.54297 z "
     transform="scale(0.64)" />
</svg>
