<svg width="1000" height="350" xmlns="http://www.w3.org/2000/svg" xmlns:xlink="http://www.w3.org/1999/xlink" id="svg7020" overflow="hidden"><defs id="defs7024"></defs><rect x="0" y="0" rx="50" ry="50" width="350" height="350" id="rect20" stroke-width="38.0391" stroke-linecap="round" stroke-linejoin="round" fill="#669900"/><path d="M175 100C133.218 100.026 93.3508 108.764 65 124.109L65 134.91 65 135 55 135C40.7095 135 27.5046 142.624 20.3594 155 13.2141 167.376 13.2141 182.624 20.3594 195 27.5046 207.376 40.7095 215 55 215L65 215 65 215.188 65 225.854C93.3378 241.213 133.207 249.965 175 250 216.782 249.974 256.649 241.236 285 225.891L285 215.09 285 215 295 215C309.291 215 322.495 207.376 329.641 195 336.786 182.624 336.786 167.376 329.641 155 322.495 142.624 309.291 135 295 135L285 135 285 134.813 285 124.147C256.662 108.787 216.793 100.035 175 100ZM175 110C203.616 110.013 231.536 114.098 255 121.703L255 228.238C231.551 235.864 203.63 239.969 175 240 146.385 239.987 118.466 235.903 95.0019 228.299L95.0019 121.762C118.451 114.136 146.371 110.031 175 110ZM265 125.236C268.481 126.591 271.819 128.024 275 129.529L275 220.402C271.819 221.912 268.482 223.348 265 224.707ZM85.0019 125.295 85.0019 224.768C81.5197 223.411 78.1818 221.978 75 220.471L75 129.598C78.1815 128.089 81.5194 126.653 85.0019 125.295ZM55 145 65 145 65 205 55 205C44.2821 205 34.3785 199.282 29.0195 190 23.6605 180.718 23.6605 169.282 29.0195 160 34.3785 150.718 44.2821 145 55 145ZM285 145 295 145C305.718 145 315.622 150.718 320.981 160 326.34 169.282 326.34 180.718 320.981 190 315.622 199.282 305.718 205 295 205L285 205Z" id="rect5457-3" stroke-width="28.7499" stroke-linecap="round" stroke-linejoin="round" fill="#FFFFFF"/><g id="g49" transform="matrix(2 0 0 2 -547.558 81.7754)"><text id="text18" stroke-width="0.760265" fill="#669900" font-family="Script MT Bold" font-weight="400" font-size="56.7664" text-anchor="middle" xml:space="preserve" x="622.742" y="48.4492"><tspan font-family="ClementePDak" x="622.742" y="48.4492">GreenMask</tspan></text><text id="text39" stroke-width="0.394925" fill="#3366CC" font-family="Script MT Bold" font-weight="400" font-size="29.4877" text-anchor="middle" xml:space="preserve" x="622.993" y="86.229"><tspan font-family="ClementePDaq" letter-spacing="5.90967" x="625.948" y="86.229">Healthcare IoT</tspan></text></g><path d="M171.089 224.704C167.785 223.608 164.945 221.488 163.209 218.822 159.404 212.983 160.169 205.97 165.152 201.001 170.597 195.571 178.924 195.441 184.558 200.698 186.52 202.529 187.671 204.229 188.418 206.4 190.734 213.132 187.56 220.629 181.028 223.853 178.914 224.896 178.825 224.915 175.521 224.987 173.264 225.037 171.811 224.944 171.089 224.704ZM149.328 197.413C147.52 196.973 145.58 195.456 144.718 193.81 144.088 192.606 143.826 190.432 144.152 189.102 144.798 186.461 150.843 181.352 156.851 178.37 169.841 171.921 185.178 172.852 197.526 180.84 200.001 182.441 204.025 185.869 204.872 187.098 206.213 189.042 206.35 191.713 205.221 193.864 204.235 195.741 201.759 197.364 199.771 197.436 197.466 197.519 196.581 197.162 194.536 195.326 190.394 191.607 186.252 189.31 181.531 188.112 177.759 187.155 172.505 187.161 168.565 188.126 163.792 189.295 160 191.364 155.971 194.998 153.351 197.363 151.654 197.979 149.328 197.413ZM131.912 179.229C130.493 178.793 128.617 177.133 127.809 175.597 127.149 174.345 127.141 171.249 127.794 170.038 128.429 168.861 131.538 165.912 134.924 163.277 143.687 156.455 154.148 152.007 165.704 150.187 169.926 149.522 180.109 149.526 184.386 150.195 197.636 152.265 209.156 157.703 219.119 166.593 222.176 169.32 223.037 171.065 222.665 173.776 222.304 176.395 219.958 178.823 217.227 179.404 215.123 179.851 213.323 179.251 211.328 177.438 204.35 171.096 197.522 167.179 189.249 164.772 184.413 163.364 180.943 162.911 174.983 162.909 167.822 162.906 163.289 163.706 156.801 166.117 150.34 168.518 145.403 171.555 139.366 176.844 136.125 179.683 134.784 180.112 131.912 179.23ZM115.314 161.312C111.295 159.809 109.436 155.598 111.215 152.028 112.239 149.973 118.275 144.744 124.613 140.421 142.502 128.219 165.764 122.795 187.207 125.824 201.58 127.855 214.746 132.997 226.518 141.176 232.919 145.624 238.657 150.839 239.16 152.667 239.841 155.143 239.365 157.325 237.742 159.169 236.325 160.779 234.96 161.384 232.732 161.392 230.455 161.4 229.65 160.976 226.57 158.148 214.621 147.178 198.564 140.138 181.834 138.533 177.76 138.142 168.006 138.374 164.373 138.948 148.238 141.496 135.21 147.684 123.001 158.598 121.819 159.655 120.446 160.727 119.949 160.981 118.732 161.603 116.516 161.761 115.314 161.312Z" id="path7018" stroke-width="0.268643" fill="#FFFFFF"/></svg>